<?xml version="1.0" encoding="UTF-8" standalone="no"?>
<!-- Created with Inkscape (http://www.inkscape.org/) -->

<svg
   width="24"
   height="24"
   viewBox="0 0 6.3499999 6.35"
   version="1.1"
   id="svg1"
   xml:space="preserve"
   xmlns="http://www.w3.org/2000/svg"
   xmlns:svg="http://www.w3.org/2000/svg"><defs
     id="defs1" /><g
     id="layer1"><path
       style="fill:#000000;fill-opacity:1;stroke-width:0.0310917;stroke-linecap:round;paint-order:stroke fill markers"
       d="M 2.8674872,6.3027319 C 2.8584371,6.2990069 2.8194718,6.2879702 2.7808955,6.2780509 2.6919792,6.255191 2.5993344,6.1743604 2.5599187,6.0852606 2.5430835,6.0471975 2.5147811,5.9369981 2.4970284,5.8403671 2.4792758,5.7437402 2.457354,5.6557661 2.4483163,5.6448756 2.4392799,5.6339768 2.4003298,5.6159178 2.3617632,5.6047293 2.3231979,5.5935546 2.2153469,5.5506629 2.1220953,5.5094406 L 1.9525469,5.4345009 1.779594,5.5514631 C 1.5914808,5.6786757 1.5072875,5.7105968 1.3989721,5.6957495 1.284398,5.6800497 1.236196,5.644401 0.9714771,5.3795751 0.70090063,5.1088942 0.65558159,5.0415078 0.6549627,4.9089355 0.65450012,4.8101012 0.67012584,4.7753906 0.80604076,4.573226 0.86753212,4.4817587 0.91784461,4.4023685 0.91784461,4.3967949 c 0,-0.00552 -0.0252921,-0.062109 -0.0562047,-0.125626 C 0.83072725,4.2076523 0.78976428,4.1085876 0.77060859,4.0510267 0.71985739,3.8985207 0.71327257,3.8928602 0.5551572,3.865827 0.23891802,3.8117606 0.14262497,3.7547557 0.07865034,3.5837713 0.04994094,3.507052 0.04584354,3.4554689 0.04584354,3.1706002 c 0,-0.3523682 0.01419604,-0.4344017 0.09366078,-0.5412901 C 0.19552972,2.5539428 0.27997894,2.5160867 0.45877737,2.4861908 0.72410268,2.441823 0.7202325,2.4441683 0.76130432,2.3028825 0.77603151,2.2522237 0.81849962,2.1485484 0.85567697,2.0724954 L 0.92327305,1.9342158 0.81447533,1.7738625 C 0.75463673,1.685665 0.69418421,1.5859822 0.6801344,1.5523394 0.64515474,1.4685703 0.64810018,1.3554889 0.68744626,1.2717902 0.72629707,1.1891386 1.1900841,0.72065122 1.2844093,0.66877841 c 0.043928,-0.0241567 0.091834,-0.0342002 0.1630815,-0.0342002 0.1118825,0 0.1495422,0.0175485 0.3797357,0.1769125 l 0.1278872,0.0885425 0.1189032,-0.0560392 c 0.065397,-0.030834 0.1744312,-0.0767469 0.2422985,-0.10203494 0.067868,-0.025288 0.1291454,-0.051114 0.136173,-0.0573774 0.00702,-0.006208 0.026926,-0.0938539 0.044219,-0.19463755 C 2.534671,0.26867897 2.5727837,0.17684891 2.6516083,0.11672611 2.7585422,0.03516438 2.8058489,0.02727309 3.1883089,0.02727309 c 0.382461,0 0.4297676,0.0078637 0.5367011,0.08945302 0.078703,0.0600262 0.1172284,0.15259575 0.1558375,0.37443619 0.017561,0.10090366 0.037358,0.18847628 0.043994,0.19461134 0.00664,0.00607 0.06389,0.0296475 0.1272346,0.0522729 0.063343,0.0226116 0.1723765,0.0683176 0.2422986,0.10155207 l 0.1271284,0.0604401 0.1278872,-0.0885425 c 0.2301939,-0.1593668 0.2678529,-0.1769125 0.3797358,-0.1769125 0.071248,0 0.1191543,0.0100711 0.1630815,0.0342002 0.094326,0.0518728 0.5581113,0.52035879 0.5969627,0.60301179 0.039983,0.085066 0.0429,0.2164008 0.00642,0.2890641 -0.014541,0.028958 -0.074992,0.1248121 -0.1343409,0.2130083 l -0.1079037,0.1603546 0.066085,0.1357936 c 0.036347,0.074691 0.082456,0.1853488 0.1024653,0.2459144 0.041765,0.1264262 0.037453,0.1239567 0.2969984,0.1697372 0.1807769,0.031883 0.2625868,0.068814 0.3182204,0.1436477 0.079466,0.1068911 0.093661,0.1889219 0.093661,0.5412915 0,0.2874927 -0.00393,0.3359965 -0.03361,0.4153343 C 6.2335841,3.7558663 6.1335544,3.8131609 5.8042851,3.8682482 5.7183197,3.8826374 5.6202838,3.9024622 5.5864272,3.9123125 5.4622374,3.9484717 5.3226856,3.8305714 5.3516213,3.7139445 5.3796809,3.6008452 5.4309191,3.5804686 5.8736798,3.5062959 5.9823037,3.4880991 5.9852933,3.4788696 5.9850119,3.1629986 5.9848523,3.0075499 5.9793141,2.8725412 5.9726783,2.8629778 5.9660286,2.8534586 5.8495355,2.8244733 5.7138006,2.7986749 5.5780663,2.7728764 5.4500598,2.741463 5.4293417,2.7288811 5.386417,2.7028067 5.365127,2.6578871 5.3023195,2.4608269 5.2778041,2.3839144 5.2178372,2.2406144 5.1690588,2.1423913 5.1202818,2.0441641 5.0803715,1.9427831 5.0803715,1.9170895 c 0,-0.031441 0.049027,-0.1202732 0.1499757,-0.271735 L 5.380323,1.4203327 5.1606517,1.2002085 C 5.0398322,1.0791351 4.9363356,0.98008428 4.9306581,0.98008428 c -0.00568,0 -0.065011,0.0372215 -0.1318494,0.0827206 C 4.7319687,1.108304 4.6389189,1.1716136 4.5920318,1.2035043 4.4575309,1.2949853 4.4264724,1.2936747 4.2166058,1.1877769 4.1170665,1.1375458 3.9531123,1.0698628 3.8522606,1.0373596 3.7514108,1.0048563 3.6565126,0.9645721 3.6413772,0.9478514 3.6141523,0.91776241 3.5874005,0.81433408 3.5416407,0.56224601 3.5030161,0.34945847 3.54244,0.37132783 3.1974441,0.37132783 c -0.2230357,0 -0.3057419,0.00538 -0.3185462,0.0208319 -0.00951,0.0114507 -0.029461,0.0910534 -0.044332,0.17686561 -0.041581,0.23996005 -0.069296,0.34564539 -0.09935,0.37885503 C 2.7200981,0.96458728 2.6255875,1.0047335 2.525193,1.0370989 2.4247984,1.0694642 2.2597964,1.1374783 2.1585219,1.1882474 1.9592984,1.2881163 1.9050953,1.2946418 1.8202947,1.2289317 1.7455771,1.17103 1.4596999,0.98007876 1.4477376,0.98007876 c -0.00665,0 -0.1110519,0.0991653 -0.2319998,0.22036014 L 0.99583236,1.4207977 1.1254771,1.6117931 C 1.2853168,1.8472736 1.2957087,1.8660706 1.2960106,1.9202749 1.2961382,1.9442109 1.2563446,2.0441627 1.2075656,2.1423872 1.1587876,2.2406142 1.0988203,2.3839062 1.0743062,2.4608214 1.0114992,2.6578802 0.9902088,2.7028095 0.94728406,2.728877 0.92656666,2.741431 0.79855959,2.772858 0.66282485,2.798671 0.52709052,2.824483 0.41059521,2.853413 0.40394708,2.862974 c -0.00665,0.00952 -0.0121956,0.1478968 -0.0123336,0.3074085 -1.9135e-4,0.2145562 0.005187,0.29453 0.0206319,0.307352 0.011492,0.00952 0.10958546,0.032351 0.21799799,0.0507 0.34228126,0.057943 0.36764265,0.07327 0.41198603,0.2490102 0.014784,0.058591 0.033567,0.1135546 0.041738,0.1221633 0.00817,0.00855 0.014858,0.027509 0.014858,0.042036 0,0.014513 0.044238,0.1148376 0.098306,0.2229344 0.055809,0.111568 0.098484,0.2187198 0.098716,0.2478569 3.031e-4,0.037829 -0.039374,0.1104781 -0.1508605,0.2762545 L 0.9937173,4.9136192 1.1984588,5.1196909 c 0.1126082,0.1133338 0.2165857,0.2126523 0.2310621,0.2206954 0.019666,0.010899 0.071663,-0.01701 0.2056586,-0.1105057 0.098636,-0.068828 0.2081738,-0.138121 0.2434173,-0.1539877 0.075465,-0.03398 0.1074913,-0.025674 0.3062591,0.079382 0.067952,0.035911 0.208622,0.093137 0.3126012,0.1271574 0.2514202,0.082251 0.2610118,0.092957 0.3098175,0.3455405 0.020982,0.1085881 0.043391,0.2233456 0.049799,0.255017 l 0.011644,0.057584 h 0.3191645 0.3191646 l 0.011395,-0.049362 c 0.00626,-0.02715 0.028447,-0.1410913 0.049293,-0.2532097 0.041414,-0.2227468 0.075405,-0.2868291 0.1622576,-0.3059047 0.071193,-0.015645 0.1604649,0.028571 0.1922414,0.09522 0.025386,0.053239 0.024533,0.0676 -0.016286,0.2742099 -0.023692,0.1199145 -0.043074,0.2315266 -0.043074,0.248021 0,0.056633 -0.08484,0.221388 -0.1342858,0.2607865 -0.099236,0.079065 -0.1632426,0.090874 -0.5155955,0.095109 -0.1809795,0.00221 -0.3364577,9.575e-4 -0.3455067,-0.00276 z"
       id="path1" /><path
       style="fill:#000000;fill-opacity:1;stroke-width:0.0310917;stroke-linecap:round;paint-order:stroke fill markers"
       d="M 2.9171239,4.4173274 C 2.6261679,4.3546662 2.3656081,4.1894099 2.1718715,3.9446447 2.0870305,3.8374501 1.9926852,3.6491793 1.9518546,3.5055744 1.8980228,3.3162414 1.8984353,2.9988791 1.952741,2.8227874 2.0875455,2.3856776 2.3793504,2.0865411 2.8130293,1.9408875 c 0.1241623,-0.041705 0.1586352,-0.045968 0.3752854,-0.046465 0.2206827,-4.773e-4 0.2490466,0.00304 0.3784119,0.047044 0.2258123,0.076843 0.3747258,0.1672291 0.5279579,0.3204623 0.1577428,0.1577416 0.2570712,0.326967 0.3292039,0.5608624 0.054371,0.1763013 0.054731,0.4935864 7.994e-4,0.6827856 -0.036166,0.1268125 -0.146911,0.3579941 -0.1993409,0.4161289 -0.013935,0.015451 -0.051495,0.059061 -0.083466,0.096903 C 3.9834322,4.2061896 3.712205,4.3631642 3.4515833,4.4181246 3.2584583,4.4588506 3.1089527,4.4586296 2.9171493,4.4173092 Z m 0.49532,-0.3446755 C 3.5582,4.0335955 3.6400171,3.9942908 3.7597325,3.9058587 4.0483617,3.6926352 4.1919851,3.2751198 4.0942582,2.9333869 4.0044575,2.6193701 3.8014668,2.3981726 3.4985373,2.2842345 3.3920118,2.244171 3.3548652,2.2387216 3.1883144,2.2387216 c -0.2040615,0 -0.3163825,0.028475 -0.4771275,0.1209492 C 2.6032555,2.4217664 2.4144054,2.6206338 2.3605215,2.7289377 2.2547631,2.9415086 2.2242353,3.17318 2.2754377,3.3746107 2.4065738,3.8904969 2.9187681,4.2049483 3.4124436,4.0726533 Z"
       id="path2" /><path
       style="fill:#000000;fill-opacity:1;stroke-width:0.0310917;stroke-linecap:round;paint-order:stroke fill markers"
       d="M 4.485468,6.1879108 C 4.4300344,6.1566078 4.3729081,6.0651406 4.3729081,6.0076887 c 0,-0.024295 0.010595,-0.093757 0.02354,-0.1543575 0.012941,-0.060606 0.032847,-0.1716218 0.044223,-0.2467036 L 4.461354,5.4701166 4.2581714,5.2664441 C 4.0553086,5.063093 4.0549777,5.0626349 4.0476629,4.9744263 c -0.00642,-0.077313 -0.0019,-0.094792 0.036103,-0.1399586 0.054419,-0.064675 0.099172,-0.078761 0.3549535,-0.1117059 0.1131131,-0.014569 0.2231924,-0.031855 0.2446227,-0.038422 0.029636,-0.00911 0.069025,-0.070856 0.1645274,-0.2580686 C 4.991394,4.1449177 5.0382055,4.0966567 5.1529874,4.111697 5.2584092,4.125507 5.2943053,4.167267 5.422602,4.4253096 5.505069,4.5911729 5.5540941,4.6715234 5.5789189,4.681502 5.5988109,4.689502 5.7158852,4.708432 5.8390846,4.72358 6.1097997,4.756856 6.1787065,4.78751 6.214567,4.8905856 6.255678,5.008748 6.227728,5.0600041 6.0023853,5.2797862 5.8276408,5.4502146 5.8061365,5.4772244 5.8134114,5.5171292 c 0.00451,0.024764 0.019895,0.1079534 0.034177,0.1848755 0.043314,0.2332884 0.047328,0.3668112 0.012623,0.419778 -0.033749,0.051514 -0.1136994,0.090253 -0.1862288,0.090253 -0.043118,0 -0.4424984,-0.1906381 -0.4858421,-0.2319073 -0.030524,-0.029068 -0.07465,-0.01352 -0.2914676,0.1027661 C 4.6589341,6.2103969 4.5669048,6.2338914 4.4854687,6.1878956 Z M 5.473532,5.5672291 C 5.462578,5.4729613 5.4586323,5.3758046 5.4647715,5.3513347 5.4709107,5.3268607 5.5277915,5.2574946 5.5911688,5.19718 5.654546,5.1368641 5.7039121,5.0800523 5.7008701,5.0709194 5.697835,5.0618141 5.6190932,5.0412857 5.5259031,5.0253513 5.4189044,5.0070579 5.344327,4.9854258 5.3235228,4.9666633 5.3054046,4.9503289 5.2578651,4.8718713 5.2178816,4.7923251 5.1778982,4.7127776 5.1377947,4.6522685 5.1287625,4.6578559 c -0.00904,0.00552 -0.048875,0.07476 -0.08854,0.1537436 -0.039665,0.078982 -0.0831,0.1527089 -0.096522,0.1638491 -0.013424,0.011175 -0.06405,0.026957 -0.1125075,0.035152 -0.1176988,0.019894 -0.1949057,0.033759 -0.2430044,0.043609 -0.037314,0.00759 -0.032663,0.015327 0.076443,0.1264262 0.1436745,0.1462855 0.1771928,0.2070374 0.1543214,0.2797076 -0.00908,0.028861 -0.021233,0.089481 -0.027004,0.1347314 -0.00578,0.045251 -0.014072,0.09522 -0.018447,0.1110575 -0.012002,0.043457 0.017982,0.035911 0.1855214,-0.046672 0.1794745,-0.088474 0.1880879,-0.088074 0.3887493,0.018155 0.074338,0.03936 0.1375265,0.069187 0.1404192,0.06629 0.0029,-0.0029 -0.00371,-0.082389 -0.014665,-0.1766628 z"
       id="path3" /></g></svg>
