 <svg
        xmlns="http://www.w3.org/2000/svg"
        width="150"
        height="150"
        viewBox="0 0 150 150"
        fill="none"
        style="width: 4rem; height: 4rem; background: none"
    >
        <path
            d="M134.374 53.432c-12.241-18.161-26.706-26.801-47.751-29.12-19.318-2.112-37.274-4.303-55.7 11.075-5.513 4.579-11.855 11.117-15.642 17.575-9.738 16.704-14.074 36.566-9.384 52.932 5.143 18.072 17.364 28.127 28.75 33.208 15.706 7.024 35.145 7.657 53.455 5.603 6.722-.75 13.435-1.859 19.719-3.992 17.655-5.968 30.345-19.863 35.758-35.727 5.693-16.53.829-36.587-9.205-51.554"
            fill="#A5BDC3"
        ></path>
        <path
            d="M46.883 31.473a24.705 24.705 0 00-4.061 5.81c-.38.75.612 1.415.992.654a23.37 23.37 0 013.856-5.54c.565-.601-.217-1.526-.787-.924zM54.557 30.889a24.693 24.693 0 01-2.467 6.184c-.417.734.592 1.389 1.004.66a25.989 25.989 0 002.582-6.496c.206-.818-.919-1.167-1.12-.348M63.866 30.162c.46 2.714.174 5.37-.824 7.948-.306.782.85 1.114 1.146.343 1.083-2.788 1.326-5.703.824-8.64-.142-.823-1.283-.47-1.146.349zM71.884 30.355a75.475 75.475 0 011.721 7.452c.148.824 1.305.475 1.152-.349a72.547 72.547 0 00-1.738-7.446c-.227-.797-1.368-.46-1.135.343zM82.62 31.001A616.6 616.6 0 0085 37.322c.29.777 1.442.439 1.141-.348-.803-2.107-1.605-4.21-2.392-6.316-.29-.777-1.42-.439-1.13.343M91.19 30.045a696.41 696.41 0 005.878 7.937c.502.666 1.305-.269.808-.924a640.584 640.584 0 01-5.883-7.937c-.486-.66-1.283.269-.802.924M24.971 50.183a880.41 880.41 0 01-2.53 5.65c-.358.793.809 1.13 1.163.349.845-1.886 1.684-3.766 2.519-5.65.348-.793-.803-1.131-1.152-.35M31.695 51.895c-.665 2.112-1.33 4.23-2.007 6.348-.258.818.914 1.162 1.173.343.67-2.112 1.33-4.23 1.99-6.348.254-.818-.902-1.161-1.156-.343M41.169 49.89a84.068 84.068 0 00-.45 8.767c0 .835 1.247.84 1.247 0-.01-2.92.137-5.84.428-8.766.084-.845-1.136-.84-1.225 0zM49.132 50.723c.618 2.593.84 5.223.65 7.932-.064.84 1.188.84 1.24 0a27.123 27.123 0 00-.691-8.275c-.19-.803-1.389-.46-1.199.343M60.339 48.571c-.032 2.936.058 5.857.269 8.772.058.83 1.304.84 1.241 0a107.85 107.85 0 01-.29-8.772c.01-.84-1.21-.84-1.22 0zM73.668 46.554a55.362 55.362 0 012.208 8.339c.153.824 1.346.475 1.193-.349a55.428 55.428 0 00-2.228-8.339c-.275-.776-1.447-.438-1.173.349M83.127 47.628c.908 2.493 1.827 4.98 2.762 7.468.29.781 1.484.443 1.183-.344a1078.22 1078.22 0 01-2.778-7.472c-.285-.777-1.457-.444-1.167.348M91.888 48.76c1.045 3.121 2.107 6.242 3.184 9.363.275.798 1.463.46 1.183-.343-1.082-3.126-2.15-6.248-3.2-9.369-.27-.797-1.431-.454-1.167.349M102.772 47.373a74.943 74.943 0 013.47 7.727c.301.792 1.479.454 1.172-.344a79.604 79.604 0 00-3.622-8.043c-.391-.755-1.405-.095-1.02.66M110.837 46.825a22.67 22.67 0 014.404 6.527c.343.771 1.516.438 1.162-.349-1.194-2.661-2.783-5.038-4.769-7.102-.586-.608-1.384.316-.797.924zM120.865 46.066a33.216 33.216 0 013.813 7.473c.291.813 1.447.47 1.157-.343a34.64 34.64 0 00-3.982-7.79c-.481-.707-1.474-.053-.988.66zM10.396 75.117a46.075 46.075 0 00-2.815 9.6c-.153.84 1.162.84 1.304 0 .555-3.157 1.463-6.225 2.704-9.251.333-.808-.86-1.152-1.194-.35M16.543 76.666c-1.146 3.3-1.87 6.639-2.138 10.034-.064.84 1.246.845 1.31 0 .253-3.28.934-6.496 2.032-9.685.286-.819-.918-1.167-1.204-.349zM28.642 77.7a49.256 49.256 0 00-1.098 9.426c-.016.84 1.299.845 1.31 0 .052-3.153.416-6.29 1.077-9.427.174-.834-1.115-.823-1.289 0zM39.199 76.626c-.175 2.63-.344 5.255-.513 7.885-.058.845 1.252.845 1.305 0 .164-2.63.327-5.255.496-7.885.053-.845-1.23-.845-1.288 0zM47.142 75.516c0 2.926-.117 5.846-.36 8.772-.068.84 1.241.84 1.305 0 .232-2.925.343-5.846.338-8.772 0-.834-1.283-.84-1.283 0M56.346 73.556c.222 3.353.27 6.707.132 10.076-.037.845 1.268.845 1.3 0 .132-3.37.079-6.723-.148-10.076-.058-.83-1.337-.835-1.284 0M62.816 74.642c.185 3.069.364 6.142.56 9.21.047.835 1.357.84 1.299 0-.196-3.068-.386-6.141-.576-9.21-.047-.834-1.33-.84-1.283 0M72.67 72.43c1.257 3.406 2.012 6.897 2.223 10.536.053.84 1.358.845 1.305 0a37.902 37.902 0 00-2.292-10.88c-.29-.78-1.521-.443-1.236.344M85.874 72.005c.618 4.167 1.251 8.334 1.895 12.506.127.819 1.437.83 1.305 0-.655-4.172-1.294-8.339-1.922-12.505-.127-.82-1.405-.83-1.278 0zM96.076 73.635a54.174 54.174 0 013 8.423c.221.824 1.462.47 1.24-.348-.813-3-1.874-5.9-3.163-8.735-.349-.771-1.42-.106-1.077.66zM104.826 70.195a68.476 68.476 0 013.201 10.124c.19.823 1.42.475 1.23-.349a69.701 69.701 0 00-3.221-10.118c-.317-.787-1.526-.45-1.21.343zM112.96 69.924a63.481 63.481 0 014.599 8.857c.333.792 1.558.449 1.22-.343a65.736 65.736 0 00-4.768-9.174c-.455-.728-1.506-.073-1.051.66M122.914 68.956c1.5 3.337 2.625 6.76 3.316 10.303.164.83 1.463.834 1.294 0a48.776 48.776 0 00-3.417-10.652c-.353-.781-1.547-.444-1.193.349M129.78 66.449c1.568 4.399 3.163 8.803 4.784 13.208.301.813 1.516.47 1.21-.349a1150.47 1150.47 0 01-4.811-13.208c-.296-.813-1.474-.47-1.183.349zM137.701 66.683c1.569 2.652 2.504 5.456 2.799 8.408.085.845 1.374.84 1.284 0-.328-3.184-1.373-6.21-3.069-9.068-.448-.755-1.462-.095-1.014.66M13.036 105.918a10.668 10.668 0 002.651 6.222c.539.618 1.6-.307 1.057-.925-1.4-1.594-2.176-3.501-2.366-5.645-.069-.824-1.41-.475-1.342.348M21.137 105.756c-.063 2.598.418 5.043 1.48 7.351.342.744 1.583.084 1.24-.66-.966-2.102-1.415-4.326-1.362-6.691.015-.835-1.337-.84-1.358 0zM28.78 107.016a627.73 627.73 0 003.295 6.512c.38.734 1.611.074 1.23-.661a833.623 833.623 0 01-3.3-6.506c-.37-.739-1.59-.079-1.225.655M37.995 107.001a40.831 40.831 0 003.158 7.447c.396.729 1.627.074 1.22-.66a39.475 39.475 0 01-3.047-7.13c-.243-.787-1.574-.449-1.331.343M51.98 104.351a739.352 739.352 0 003.379 7.23c.359.76 1.563.1 1.204-.655a813.502 813.502 0 01-3.39-7.235c-.349-.761-1.542-.095-1.194.66M61.063 103.511a59.166 59.166 0 012.677 8.138c.2.813 1.532.47 1.326-.349a59.699 59.699 0 00-2.694-8.138c-.311-.76-1.626-.428-1.31.349M72.78 102.651a86.033 86.033 0 002.277 11.175c.222.819 1.552.47 1.325-.343a86.45 86.45 0 01-2.302-11.18c-.116-.829-1.41-.476-1.3.348M81.906 101.973a64.79 64.79 0 013.259 9.881c.2.824 1.516.475 1.315-.349a65.442 65.442 0 00-3.28-9.881c-.322-.771-1.62-.438-1.294.349zM96.947 101.157a36.169 36.169 0 001.363 9.142c.232.824 1.537.475 1.304-.344a34.476 34.476 0 01-1.32-8.798c-.016-.84-1.362-.84-1.347 0zM104.362 100.905c.57 2.556 1.151 5.112 1.738 7.673.19.829 1.484.475 1.293-.349-.591-2.556-1.172-5.117-1.753-7.673-.19-.829-1.463-.475-1.278.349M111.328 99.357a41.917 41.917 0 011.817 7.937c.106.834 1.468.84 1.357 0a43.98 43.98 0 00-1.901-8.286c-.275-.813-1.542-.465-1.273.349M121.562 98.718c.934 2.931 1.309 5.878 1.067 8.851-.064.824 1.277 1.178 1.341.349.253-3.216-.127-6.38-1.146-9.548-.264-.819-1.521-.47-1.262.348M129.415 97.217c.138 2.995.27 5.989.396 8.983.037.845 1.395.84 1.358 0-.138-2.994-.275-5.988-.418-8.983-.037-.84-1.373-.834-1.336 0M136.334 98.054c.76 2.546.913 5.049.48 7.552-.142.813 1.204 1.157 1.342.343.475-2.725.264-5.466-.571-8.243-.248-.83-1.5-.476-1.251.348zM35.295 131.264c1.236 2.45 3.238 4.431 5.825 5.756.787.402 1.569-.723.782-1.13-2.387-1.225-4.198-3.015-5.344-5.281-.375-.745-1.638-.09-1.263.655M46.402 131.079c1.531 2.593 3.633 4.784 6.237 6.548.728.497 1.478-.639.76-1.125a19.173 19.173 0 01-5.75-6.078c-.429-.724-1.68-.069-1.247.655M58.702 128.947c.734 2.931 2.102 5.572 4.077 7.964.55.666 1.574-.264 1.03-.924a18.56 18.56 0 01-3.739-7.388c-.206-.813-1.574-.465-1.368.348M71.826 127.611a44.514 44.514 0 003.19 10.774c.337.771 1.72.433 1.378-.349a44.759 44.759 0 01-3.211-10.768c-.138-.829-1.49-.475-1.358.343zM82.266 126.502c.666 2.714 1.342 5.434 2.023 8.148.206.824 1.574.476 1.363-.343-.687-2.72-1.368-5.434-2.039-8.154-.206-.819-1.547-.47-1.347.349M91.783 126.134a278.5 278.5 0 011.098 8.328c.095.834 1.521.84 1.421 0a278.343 278.343 0 00-1.114-8.328c-.127-.829-1.527-.84-1.405 0M99.81 124.816c.301 2.334.454 4.668.438 7.013-.005.845 1.416.84 1.416 0a51.182 51.182 0 00-.455-7.013c-.11-.834-1.51-.84-1.399 0M109.279 122.843c.295 3.338-.058 6.549-1.083 9.696-.259.792 1.13 1.136 1.389.343 1.051-3.253 1.405-6.59 1.088-10.039-.074-.84-1.468-.84-1.394 0zM115.859 123.064a23.05 23.05 0 01-.919 8.133c-.238.803 1.151 1.141 1.389.348.818-2.751 1.114-5.576.924-8.481-.053-.845-1.447-.845-1.394 0zM127.155 121.571c-.163 2.979-1.336 5.593-3.512 7.679-.612.586.46 1.505 1.072.924 2.324-2.223 3.644-5.07 3.813-8.254.048-.824-1.325-1.178-1.373-.349"
            fill="#829AA7"
        ></path>
        <path
            d="M115.421 33.988c5.223-4.674 12.49-7.076 19.461-6.2 1.61.206 7.868 1.442 8.428-1.172.555-2.609-5.27-4.463-7.082-4.283 1.405-.243 8.856-2.091 8.112-5.112-.745-3.02-10.108-4.325-17.179-1.89 4.235-1.274 12.051-6.312 8.808-9.148-3.195-2.788-25.354 3.338-30.894 22.466a55.54 55.54 0 0110.346 5.34zM16.981 21.107c-4.294.534-12.178 2.857-11.66 5.519.66 3.422 6.928 1.336 9.505.818 6.903-1.394 13.72 1.104 19.033 5.646 3.227-2.382 6.443-4.251 9.654-5.704C39.526 16.132 29.249 7.228 17.451 5.164c-2.197-.386-5.218-.222-5.825 1.927-.93 3.274 5.572 6.56 7.69 7.077-2.652-.444-13.394-1.6-14.619 1.838-1.04 2.915 4.79 5.207 12.284 5.101"
            fill="#A5BDC3"
        ></path>
        <path
            d="M35.524 115.045c-1.595-3.618-5.202-6.195-9.739-6.089-2.983.074-5.656 1.959-7.689 4.151-1.68 1.811-2.313 3.517-1.938 5.962.285 1.896 2.06 6.01 7.911 6.961 3.364.549 7.188.607 9.738-1.653 2.303-2.034 3.306-5.709 1.717-9.332M130.308 108.572c-.851-.48-1.859-.718-2.873-.882-3.047-.496-6.559-.306-9.136 1.574-1.828 1.331-3.137 2.646-3.919 5.186s1.077 6.047 2.588 7.32c1.51 1.272 5.555 3.094 10.509 1.045 3.005-1.246 6.797-5.08 6.712-8.967-.047-2.329-2.783-4.652-3.881-5.276"
            fill="#E17D8A"
        ></path>
        <path
            d="M84.51 106.494c-1.5-4.732-6.923-7.304-11.887-7.14-4.964.169-9.934 2.561-11.159 7.668-1.547 6.411 3.095 10.889 6.56 15.088 1.399 1.69 3.152 3.454 5.349 3.464 2.43.016 4.277-2.081 5.772-3.998 1.711-2.191 3.438-4.415 4.574-6.955 1.135-2.545 1.631-5.476.792-8.127"
            fill="#6E354B"
        ></path>
        <path
            d="M108.746 104.127c7.377 2.54 21.414-2.467 23.875-10.9 2.826-10.172-2.799-20.364-11.935-24.225-8.782-3.855-22.133.349-24.594 10.53-1.405 4.58-2.096 11.25 0 15.818 1.415 2.799 5.271 6.226 12.654 8.777z"
            fill="#A77096"
        ></path>
        <path
            d="M126.162 76.96c-4.854-2.92-9.305-4.478-14.835-4.32-6.722.18-15.019 7.304-16.888 13.837 0 0 6.775 10.995 27.751 8.862 2.461-.249 4.922-1.088 6.956-2.673 2.033-1.568 3.58-4.166 3.496-6.912-.122-3.961-3.333-6.898-6.48-8.794"
            fill="#fff"
        ></path>
        <path
            d="M119.291 91.803c1.764-6.13.095-12.663-4.452-18.077-5.687 4.711-7.758 11.37-5.228 17.217.507 1.172 1.231 2.37 2.577 3.174 1.358.813 3.475 1.124 4.98.443 1.31-.586 1.812-1.71 2.123-2.757"
            fill="#1F1611"
        ></path>
        <path
            d="M50.57 100.604c6.675-5.957 7.741-17.908 2.82-25.275-5.266-8.085-18.617-8.793-26.702-4.927-9.485 4.22-13.34 14.053-11.238 23.876 1.405 5.63 4.214 8.793 9.136 10.9 3.866 1.748 8.894 3.86 13.694 2.112 4.822-1.764 9.844-4.219 12.29-6.686z"
            fill="#A77096"
        ></path>
        <path
            d="M45.583 78.999c-4.14-1.88-8.676-2.107-13.06-1.537-4.79.65-9.495 2.229-13.873 4.684-1.711.962-3.66 3.032-2.794 5.044.264.623.755 1.035 1.215 1.426 5.36 4.579 11.122 9.527 17.67 9.992 14.497 1.019 20.422-9.105 20.422-9.105-1.737-4.948-5.45-8.613-9.58-10.504"
            fill="#fff"
        ></path>
        <path
            d="M40.35 86.345c-.217-2.213-3.295-6.406-5.154-7.446-1.97 2.514-3.708 5.223-4.394 8.302-.935 4.167 2.197 10.493 5.492 10.826.317.037 4.97-2.324 4.056-11.682"
            fill="#1F1611"
        ></path>
        <path
            d="M37.425 50.123c-3.866-.454-4.215 7.272-.117 7.605 4.104.327 4.33-7.109.117-7.605zM48.758 51.81c-4.389-.95-4.241 6.74-.581 6.95 3.66.207 4.34-6.136.58-6.95zM26.736 61.166c4.393.945 4.24-6.74.58-6.95-3.66-.212-4.34 6.136-.58 6.95zM104.236 50.252c-3.866-.454-4.215 7.272-.117 7.605 4.104.327 4.331-7.109.117-7.605zM115.415 50.516c-4.388-1.014-4.24 7.208-.581 7.436 3.66.227 4.341-6.565.581-7.436zM124.356 61.286c4.394.95 4.241-6.734.586-6.945-3.659-.211-4.341 6.131-.586 6.945z"
            fill="#CE4880"
        ></path>
        <path fill="#fff" fill-opacity="0.01" d="M149 149h1v1h-1z"></path>
    </svg>