<svg
        xmlns="http://www.w3.org/2000/svg"
        width="150"
        height="150"
        viewBox="0 0 150 150"
        fill="none"
        style="width: 4rem; height: 4rem; background: none"
    >
        <path
            d="M40.38 114.892c-5.428 6.184-16.418 17.242-22.946 16.322 4.411 1.315 11.266 1.133 19.799-4.652 1.011-3.568 2.44-7.54 3.147-11.67zM105.894 114.273c.503 2.127.983 5.26 1.174 8.628 3.069 2.181 6.696 4.122 9.952 4.951 4.543 1.152 10.418 1.905 14.571.59-7.916 1.383-21.304-9-25.697-14.169z"
            fill="#FBCAA3"
        ></path>
        <path
            d="M111.937 124.669c-2.426 1.41 1.963 5.327 4.774 3.903 1.238-.625.78-1.899-.485-2.969-1.274-1.075-3.074-1.637-4.289-.934M106.352 120.061c-3.111-.666-2.897 3.269 1.555 4.557 3.799 1.097 1.999-3.8-1.555-4.557zM123.386 130.35c2.498-.726.924-3.655-2.771-2.87-3.155.666-.086 3.699 2.771 2.87zM88.366 127.651c-3.26-.376-3.06 5.649.535 6.252 1.587.268 2.326-1.074 2.212-2.761-.113-1.695-1.11-3.305-2.747-3.491M87.278 119.709c-2.326-2.475-6.053.853-3.056 4.67 2.557 3.265 5.717-1.836 3.056-4.67zM91.983 140.984c2.53 1.083 4.212-2.594.748-4.457-2.951-1.587-3.64 3.223-.748 4.457zM55.505 129.457c3.255.403 1.632 6.211-2 5.948-1.604-.117-2.008-1.6-1.496-3.21.513-1.618 1.864-2.942 3.496-2.738M57.287 121.669c2.847-1.854 5.671 2.267 1.858 5.264-3.26 2.562-5.118-3.142-1.858-5.264zM48.29 141.766c-2.724.449-3.49-3.541.332-4.53 3.264-.847 2.788 4.008-.331 4.53zM32.75 128.428c2.18 1.528-2.698 4.752-5.255 3.169-1.13-.698-.495-1.836.906-2.706 1.406-.875 3.256-1.234 4.348-.463M38.013 123.702c3.124-.643 2.947 3.342-1.519 4.607-3.817 1.074-2.053-3.872 1.52-4.607zM24.869 130.371c2.076.73.69 3.269-2.394 2.448-2.63-.698.018-3.282 2.394-2.448z"
            fill="#F03D4E"
        ></path>
        <path
            d="M121.268 107.207c-7.028-9.259-.866-16.069 3.69-26.76 12.083-28.331-.117-62.09-28.4-74.277-13.75-5.926-33.242-5.4-46.902.734-16.29 7.313-27.44 22.556-29.883 38.787-5.227 34.757 11.67 45.135 11.38 53.518-.29 8.383-24.995 22.306-16.3 30.757 5.723 5.564 19.292-7.966 25.526-15.07-1.845 10.763-9.317 23.068-.707 27.185 7.073 3.382 17.17-10.963 22.239-25.956-.97 10.21-2.43 30.798 6.819 30.952 9.249.15 13.728-19.019 14.707-32.181 3.038 3.296 5.223 29.23 17.528 29.23 9.657 0 6.661-22.543 4.929-29.847 5.227 6.153 23.195 19.695 29.524 11.997 6.329-7.699-7.966-10.927-14.15-19.069"
            fill="#F47185"
        ></path>
        <path
            d="M105.417 75.875c-3.472 6.098 8.551 10.763 12.754 4.203 1.859-2.897-.168-5.486-3.577-6.674-3.428-1.201-7.431-.585-9.177 2.471zM33.28 74.283c-6.28 3.663-1.125 13.021 8.27 8.61 8.029-3.768-1.084-12.804-8.27-8.61z"
            fill="#F8A1B0"
        ></path>
        <path
            d="M85.723 9.876c-3.477 5.685 8.546 10.033 12.754 3.917 1.859-2.702-.168-5.114-3.577-6.225-3.433-1.12-7.436-.548-9.177 2.308zM41.527 16.302c-2.23 3.912 5.49 6.91 8.188 2.697 1.197-1.863-.104-3.522-2.294-4.284-2.204-.771-4.774-.377-5.894 1.587zM100.158 15.49c-2.23 3.912 5.491 6.909 8.193 2.697 1.192-1.864-.109-3.523-2.299-4.29-2.203-.77-4.774-.376-5.894 1.592zM33.629 20.491c-1.537 2.703 3.785 4.765 5.649 1.86.825-1.284-.073-2.43-1.583-2.957-1.519-.53-3.291-.258-4.066 1.098zM89.345 20.491c-1.541 2.703 3.786 4.765 5.65 1.86.825-1.284-.073-2.43-1.583-2.957-1.523-.53-3.296-.258-4.067 1.098zM70.466 25.466c-1.31 2.299 3.224 4.058 4.81 1.582.703-1.092-.063-2.067-1.346-2.516-1.297-.454-2.806-.222-3.464.934zM56.982 18.642c-2.897 5.078 7.118 8.963 10.623 3.5 1.55-2.417-.14-4.57-2.979-5.563-2.86-.998-6.193-.485-7.644 2.063M77.643 4.185c-2.149 3.768 5.282 6.651 7.885 2.598 1.151-1.795-.105-3.391-2.213-4.13-2.122-.74-4.593-.363-5.672 1.532M74.873 16.645c-2.484 4.361 6.107 7.694 9.118 3.006 1.328-2.073-.123-3.922-2.557-4.775-2.453-.857-5.314-.417-6.56 1.769z"
            fill="#F04052"
        ></path>
        <path
            d="M65.724 5.695c-6.275 3.156-1.12 11.217 8.274 7.417 8.025-3.246-1.084-11.03-8.274-7.417zM51.247 8.107c-4.044 2.358-.726 8.388 5.327 5.545 5.173-2.425-.698-8.247-5.327-5.545z"
            fill="#F04052"
        ></path>
        <path
            d="M108.6 58.574c-1.963 6.352 3.436 10.818 6.538 5.486 1.609-2.775.884-6.17-.894-7.635-1.777-1.464-4.66-1.03-5.644 2.15zM36.965 58.328c-4.098 2.865.422 12.89 4.607 8.655 4.57-4.624-.513-11.525-4.607-8.655zM64.771 75.512c6.538 4.638 14.993 4.68 21.477-.081.875-.64.027-2.113-.853-1.465-6.038 4.43-13.669 4.412-19.767.082-.893-.635-1.741.839-.857 1.464"
            fill="#1F1611"
        ></path>
        <path
            d="M110.644 35.58c-.893-.468-5.626-1.9-6.515.421-.884 2.317 2.48 3.314 4.344 4.144.852.376 1.79.617 2.711.48.916-.14 1.809-.72 2.122-1.595.344-.952-.508-2.322-2.662-3.45M45.222 36.5c-.549-.617-1.478-.667-2.299-.613-4.384.29-7.93 2.44-6.579 5.074 1.356 2.634 6.751.163 8.125-1.075.952-.866 1.605-2.425.753-3.387"
            fill="#CF5363"
        ></path>
        <path
            fill="#fff"
            fill-opacity="0"
            d="M0 0h1v1H0zM149 148h1v1h-1z"
        ></path>
    </svg>