 <svg
        xmlns="http://www.w3.org/2000/svg"
        width="150"
        height="150"
        viewBox="0 0 150 150"
        fill="none"
        style="width: 4rem; height: 4rem; background: none"
    >
        <path
            d="M26.485 31.397c1.797-1.615 3.743-3.035 5.8-4.304-2.127-3.507-4.605-6.789-7.766-9.368-4.325-3.512-10.11-5.584-15.544-4.385C3.537 14.544-.848 19.306.14 26.761c1.52 11.4 9.804 16.422 15.714 17.872 2.624-4.711 6.086-9.142 10.631-13.236"
            fill="#F9AC12"
        ></path>
        <path
            d="M19.616 38.93c1.995-2.603 4.209-5.131 6.866-7.524.235-.21.514-.364.753-.569-2.822-2.927-5.909-5.59-9.449-7.584-1.49-.843-3.081-1.606-4.787-1.715-1.705-.105-3.56.583-4.407 2.069-.893 1.556-.539 3.555.19 5.196 2.497 5.614 6.77 8.272 10.834 10.127"
            fill="#B67926"
        ></path>
        <path
            d="M149.222 25.17c-1.356-4.55-5.861-7.884-12.136-7.188-8.247.92-14.286 6.401-17.86 12.251 3.16 2.54 6.091 5.54 8.775 9.137 2.252 3.017 3.89 6.58 5.143 10.396 3.913-.707 8.022-1.925 11.573-5.65 4.695-4.918 6.442-12.423 4.505-18.945z"
            fill="#F9AC12"
        ></path>
        <path
            d="M132.347 26.098c-3.601 1.928-5.866 5.523-7.863 9.135 1.198 1.306 2.391 2.642 3.515 4.142.861 1.158 1.552 2.482 2.259 3.777 3.464-1.295 14.276-6.584 13.58-13.745-.439-4.525-7.48-5.455-11.491-3.31"
            fill="#B67926"
        ></path>
        <path
            d="M128.006 39.373c-11.191-14.987-26.336-20.098-46.434-21.135-18.675-.968-41.192.652-55.085 13.163C12.588 43.917 7.885 59.283 11.104 77.704c2.119 12.125 8.493 29.169 16.42 38.586 20.624 24.511 54.655 23.344 70.174 16.924 18.392-7.615 30.812-24.392 35.209-40.603 4.459-16.46 5.139-39.781-4.901-53.238"
            fill="#F9AC12"
        ></path>
        <path
            d="M59.602 21.315c-1.333.514-2.477 1.941-2.225 3.42.263 1.544 1.795 2.42 3.201 2.908 1.606.55 3.337.892 4.97.467 1.636-.43 4.234-1.302 3.41-3.537-1.453-3.94-8.018-3.773-9.356-3.258M85.772 23.189c-1.685-1.413-3.414-1.466-4.602-1.37-1.188.102-2.387.514-3.35 1.445-.364.348-.711.84-.685 1.44.027.566.385.994.739 1.316 2.006 1.83 4.623 2.386 6.951 1.477.68-.268 1.413-.744 1.659-1.654.257-.947-.059-2.103-.712-2.654zM64.934 37.888c.415 1.451 1.914 1.76 3.1 1.951 2.307.372 4.673.745 6.948.08 2.28-.67 6.088-2.318 5.28-5.492-1.526-5.965-17.54-4.301-15.328 3.461M99.568 24.742c-1.449.197-2.92 1.777-2.225 4.084.7 2.296 8.015 1.881 8.14-1.038.132-2.92-4.466-3.242-5.915-3.046M88.667 32.039c-4.482 3.54-1.359 6.187 1.7 6.712 2.094.363 6.408-1.905 5.548-4.552-.867-2.647-4.9-4.017-7.248-2.16zM48.052 34.712c-.325 4.01 7.591 4.5 7.54.057-.036-3.266-7.302-2.962-7.54-.056zM43.856 26.84c-2.64-3.032-5.115.255-6.284 1.582-.735.832-1.307 2.011-.842 3.012.536 1.148 2.088 1.347 3.343 1.153 2.828-.439 6.432-2.715 3.783-5.747zM103.394 36.926c-.697 2.536 5.176 3.338 5.522 1.081.335-2.261-4.83-3.617-5.522-1.08zM21.113 45.313c-1.22-.407-3.243 1.676-4.017 3.06-.48.858-.59 1.949-.158 2.832.431.882 1.438 1.483 2.405 1.319.997-.169 1.77-1.002 2.217-1.905 1.304-2.623.768-4.9-.447-5.306M14.656 56.504c-1.933-.466-3.554 3.019-3.296 5.1.263 2.082 1.983 2.856 3.217 2.226 1.234-.624 1.8-2.156 1.665-3.534-.133-1.378.347-3.331-1.586-3.792zM130.629 55.268c-1.185-.468-3.16.203-3.16 2.308 0 2.309 2.015 5.751 4.47 5.78 2.455.033 2.336-6.649-1.31-8.088zM104.248 44.553c-.415-.95-1.295-1.775-2.332-1.808-.973-.027-1.89.699-2.147 1.639-.257.934-.235 3.364 1.431 5.472.595.76 1.732 1.175 2.562.678.928-.552 1.005-1.846.972-2.922-.038-1.038-.071-2.109-.486-3.06zM121.271 106.305c-.624-.3-1.376-.094-2.005.201-2.25 1.047-3.854 3.235-4.355 5.652-1.309 3.854 2.645 4.005 4.077 2.746 1.425-1.264 2.133-3.135 2.779-4.929.233-.64.467-1.297.451-1.977-.011-.679-.329-1.397-.947-1.693zM103.995 111.773c-1.159.456-2.73 4.104 1.418 4.489 4.154.379 4.637-2.781 3.412-3.824-1.225-1.044-3.67-1.121-4.83-.665zM105.114 121.098c-3.457-.499-7.046 1.725-6.547 3.95.493 2.23 3.648 2.947 5.232 2.816 1.589-.126 3.057-1.342 3.38-2.898.334-1.556-.487-3.638-2.065-3.868zM49.794 123.277c-.553-1.734-2.492-2.872-4.282-2.57-1.79.303-3.579.872-3.343 3.78.241 2.912 3.81 3.892 5.513 3.251 1.697-.646 2.661-2.733 2.112-4.461zM35.63 111.871c-.83-1.477-2.6-2.564-4.218-2.069-1.406.425-2.275 1.902-2.437 3.358-.172 1.457 2.887 7.293 6.367 6.191 3.48-1.103 1.113-6.003.288-7.48zM40.924 108.97c-2.043 1.59 1.335 5.876 2.507 5.422 1.183-.453 1.692-1.962 1.335-3.169-.356-1.208-1.615-3.985-3.842-2.253M125.146 43.776c-2.043 1.588 1.336 5.87 2.509 5.422 1.179-.455 1.69-1.965 1.331-3.172-.354-1.206-1.611-3.985-3.84-2.25M37.517 40.85c-2.579.878-2.752 3.705-2.812 4.543-.066 1.005.345 2.07 1.177 2.645 1.432.995 3.543.147 4.508-1.31.964-1.452 1.502-3.579 1.183-5.03-.33-1.458-2.67-1.32-4.056-.848z"
            fill="#D9681B"
        ></path>
        <path
            d="M36.64 97.661c-1.07-2.939-4.247-5.484-8.696-6.227-2.934-.49-5.808.41-8.091 1.652-1.894 1.025-2.742 2.161-2.712 4.025.025 1.44 1.207 4.778 6.803 6.535 3.217 1.01 6.95 1.748 9.752.556 2.536-1.081 4.01-3.596 2.945-6.54M127.097 92.579c-.725-.444-1.624-.691-2.54-.877-2.769-.573-6.051-.601-8.697.815-1.871 1.005-3.264 2.023-4.332 4.079-1.061 2.062.197 5.056 1.428 6.186 1.236 1.129 4.741 2.848 9.612 1.415 2.956-.87 6.99-3.837 7.428-7.056.27-1.927-1.961-3.99-2.899-4.562z"
            fill="#F25547"
        ></path>
        <path
            d="M120.6 74.93c-.917-.413-2.007-.637-2.901-.172-1.555.81-1.622 4.853-1.376 6.586.201 1.364 1.342 5.603 4.261 5.983 1.532.201 2.896-1.09 3.572-2.483 1.706-3.517.001-8.28-3.556-9.913zM26.697 74.085c-3.641.12-4.804 6.273-4.473 8.42.336 2.146 1.705 4.643 4.067 4.588 2.356-.05 4.387-2.046 4.974-4.333.592-2.286-.923-8.8-4.568-8.675z"
            fill="#1F1611"
        ></path>
        <path
            d="M49.046 106.206c-.015.553-.056 1.147-.071 1.69l.148.01c-.04-.573-.087-1.142-.077-1.7zM50.16 100.891c2.422-4.681 6.66-7.824 11.796-9.25 4.498-1.246 9.661-.937 14.337-1.1 4.671-.167 10.393.586 14.03 3.485 3.391 2.71 5.38 6.762 6.789 10.832.325.937.482 1.961.585 3.001-.157-15.34-2.357-36.239-9.553-52.586-1.848-4.205-6.887-14.295-15.465-14.462-8.572-.168-15.383 11.996-16.981 16.813-4.698 14.202-6.042 31.634-6.584 47.028.174-1.344.466-2.645 1.046-3.761"
            fill="#F68412"
        ></path>
        <path
            d="M97.11 104.864c-1.41-4.068-3.401-8.12-6.792-10.832-3.634-2.897-9.357-3.65-14.027-3.488-4.676.163-9.84-.14-14.337 1.101-5.137 1.427-9.379 4.568-11.798 9.249-2.571 4.985-.868 12.894 2.658 17.271 5.273 6.558 10.496 10.692 22.289 10.225 11.787-.472 15.97-3.824 19.842-9.308 2.718-3.852 3.705-9.78 2.165-14.218"
            fill="#fff"
        ></path>
        <path
            d="M61.96 91.64c4.495-1.248 9.664-.937 14.335-1.098 3.632-.128 7.88.338 11.302 1.896-1.51-10.782-6.98-32.621-14.077-32.289-6.958.322-13.771 23.05-16.273 33.527 1.468-.836 3.016-1.564 4.714-2.036"
            fill="#D9681B"
        ></path>
        <path
            d="M86.066 89.782c-1.071-.73-2.373-1.002-3.643-1.243-7.497-1.42-15.55-2.02-22.496 1.135-.884.402-1.843.992-1.998 1.946-.21 1.243 3.52 8.552 14.505 9.275 10.985.729 14.93-6.146 15.25-7.834.237-1.27-.551-2.556-1.618-3.28"
            fill="#79481D"
        ></path>
        <path
            d="M84.413 93.53c-4.53 2.696-3.54 6.515-11.463 6.375-8.687-.156-5.949-5.664-11.704-7.912-3.513-1.367-6.562.973-5.148 3.523 1.42 2.55 6.654 6.933 16.707 6.793 5.95-.08 13.221-2.049 16.653-5.449.473-.462 1.775-2.581 1.178-3.227-1.48-1.603-2.625-2.237-6.223-.102"
            fill="#1F1611"
        ></path>
        <path
            d="M90.747 113.231c-3.93 6.414-11.993 5.373-16.504.366-.173-3.789-.34-7.578-.507-11.367-.302.011-.63.075-.932.081-.345.005-.636-.033-.965-.038.156 3.584.318 7.174.48 10.758-.017.022-.049.016-.06.038-4.7 6.301-11.82 6.759-17.614 1.595-.91-.814-2.258.529-1.342 1.342 6.425 5.73 14.25 5.309 19.7-.975 5.352 5.869 14.87 6.522 19.382-.841.641-1.051-.997-2-1.638-.959"
            fill="#1F1611"
        ></path>
        <path
            d="M117.026 54.094c-1.107-.29-6.668-.667-7.057 2.108-.39 2.775 3.559 3.02 5.817 3.459 1.034.2 2.13.228 3.103-.156.973-.384 1.807-1.251 1.93-2.291.139-1.129-1.14-2.42-3.793-3.12zM35.455 55.118c-.56-.74-1.603-.882-2.53-.892-4.952-.06-9.132 2.047-7.841 5.128 1.296 3.08 7.583.776 9.232-.5 1.145-.887 2.017-2.586 1.14-3.736z"
            fill="#fff"
        ></path>
        <path fill="#fff" fill-opacity="0.01" d="M149 149h1v1h-1z"></path>
    </svg>