<svg
        xmlns="http://www.w3.org/2000/svg"
        width="150"
        height="150"
        viewBox="0 0 150 150"
        fill="none"
        style="width: 4rem; height: 4rem; background: none"
    >
        <path
            d="M123.12 72.752c-3.65.942-8.371-.553-12.082-2.274 3.741 5.47-1.213 13.764-7.77 14.72-6.557.958-12.91-3.65-16.098-9.461.468 6.985-7.663 12.994-14.204 10.498-5.315-2.028-8.012-7.81-10.189-13.069.784 5.21-5.164 9.808-10.288 8.59-5.122-1.224-8.395-6.878-7.96-12.127-.766 4.637-4.798 10.187-10.662 9.206-5.863-.987-6.434-5.299-4.485-13.024-1.905 3.522-4.615 5.042-7.266 5.362a5.932 5.932 0 00.153 1.998c.522 2.008 2.68 3.685 4.649 3.03-2.077 1.321-4.37 2.974-4.61 5.426-.294 3.01 2.627 5.254 5.253 6.758-1.638 2.768-3.329 5.728-3.258 8.944.07 3.212 2.698 6.596 5.892 6.212-2.694 4.306-2.667 10.162.065 14.444 1.297 2.033 5.117 3.458 7.528 3.419-2.185 13.088 6.204 14.114 9.542 11.741 2.386 11.1 11.376 12.294 15.929 8.48a18.428 18.428 0 004.199 4.574c2.111 1.632 8.338 2.624 11.29-3.612 1.768 3.02 6.458 3.049 9.227.908 2.769-2.136 4.044-5.648 5.02-9.008 2.664 2.264 6.995 1.939 9.617-.38 2.621-2.319 3.541-6.211 2.726-9.61 2.866 1.495 6.691-.37 7.972-3.335 1.283-2.97.427-6.527-1.423-9.176 2.488.666 5.357-.631 6.501-2.94 1.144-2.304.44-5.372-1.596-6.951 3.623-.276 8.022-1.12 9.175-4.568.618-1.845.006-3.927-1.125-5.51-1.13-1.59-2.722-2.773-4.288-3.932 2.782-2.097 5.539-4.672 6.26-8.081.615-2.91-1.033-6.379-3.694-7.252"
            fill="#B5D8C1"
        ></path>
        <path
            d="M35.297 93.647a80.419 80.419 0 01-2.717-10.05c-.176-.877-1.512-.502-1.336.37a80.012 80.012 0 002.716 10.045c.287.843 1.627.483 1.337-.365zM43.502 82.62a24.48 24.48 0 002.973 10.35c.428.784 1.626.083 1.197-.701a22.794 22.794 0 01-2.784-9.65c-.055-.888-1.442-.892-1.386 0M54.03 89.744a28.237 28.237 0 001.496 7.893c.288.838 1.627.478 1.336-.37a26.9 26.9 0 01-1.445-7.523c-.041-.893-1.428-.898-1.386 0zM43.804 102.166a28.107 28.107 0 002.567 7.607c.403.8 1.599.094 1.198-.7a26.775 26.775 0 01-2.428-7.272c-.16-.883-1.497-.508-1.337.365zM54.035 107.883c.629 3.118 1.34 6.221 2.133 9.304.223.863 1.56.498 1.337-.37a179.652 179.652 0 01-2.133-9.304c-.176-.873-1.513-.503-1.337.37zM47.607 117.629a83.784 83.784 0 004.38 10.651c.396.799 1.593.099 1.198-.7a81.006 81.006 0 01-4.24-10.316c-.282-.848-1.62-.483-1.338.365M36.534 108.453a37.468 37.468 0 003.912 11.588c.418.794 1.615.094 1.198-.7a36.301 36.301 0 01-3.773-11.258c-.144-.883-1.48-.508-1.337.37M66.82 105.727c-.543-2.881-1.084-5.762-1.625-8.648-.166-.878-1.502-.503-1.338.37l1.625 8.648c.165.878 1.5.503 1.337-.37zM75.346 98.44a41.176 41.176 0 01-.597-8.101c.02-.898-1.367-.893-1.387 0a43.114 43.114 0 00.646 8.465c.155.883 1.49.508 1.338-.365M79.905 112.304a86.608 86.608 0 001.66-12.329c.056-.892-1.331-.887-1.386 0a84.136 84.136 0 01-1.61 11.964c-.183.868 1.154 1.243 1.336.365zM87.438 93.943a49.17 49.17 0 001.244-9.507c.03-.893-1.357-.893-1.386 0a47.275 47.275 0 01-1.195 9.137c-.2.868 1.136 1.238 1.337.37M111.898 105.097a48.76 48.76 0 003.023-9.087c.197-.874-1.14-1.244-1.337-.37a46.962 46.962 0 01-2.883 8.756c-.359.814.835 1.519 1.197.701M86.188 123.287c1.693-3.182 2.42-6.65 2.72-10.222.075-.893-1.312-.888-1.387 0-.28 3.325-.954 6.556-2.53 9.521-.42.789.777 1.49 1.197.701zM96.863 111.875a36.097 36.097 0 001.897-8.446c.09-.888-1.299-.883-1.386 0-.277 2.777-.925 5.451-1.848 8.081-.298.843 1.042 1.203 1.337.365M105.069 95.927l1.679-6.956c.21-.868-1.127-1.238-1.337-.37l-1.679 6.956c-.209.868 1.127 1.238 1.337.37M117.362 85.01a18.648 18.648 0 002.106-7.435c.064-.893-1.323-.888-1.386 0a16.914 16.914 0 01-1.917 6.74c-.415.788.781 1.489 1.197.695zM99.07 123.866c1.509-2.698 2.738-5.51 3.61-8.475.253-.864-1.086-1.224-1.337-.37-.84 2.856-2.019 5.55-3.472 8.145-.437.784.761 1.48 1.198.7M90.012 133.347l2.795-7.42c.316-.838-1.024-1.198-1.337-.37l-2.796 7.42c-.316.839 1.025 1.199 1.338.37zM79.48 136.708c.744-2.412 1.02-4.879 1.004-7.4-.007-.893-1.392-.893-1.387 0 .016 2.402-.245 4.731-.954 7.035-.263.858 1.076 1.218 1.338.365zM62.404 138.115a37.682 37.682 0 01-2.771-8.633c-.17-.873-1.507-.503-1.338.37a39.038 39.038 0 002.911 8.959c.375.814 1.57.108 1.198-.696M72.678 143.344a27.818 27.818 0 00-.397-7.958c-.169-.878-1.505-.508-1.337.365.486 2.526.59 5.037.348 7.593-.085.888 1.303.883 1.386 0zM62.546 78.736c-.1 2.688.186 5.323.85 7.927.221.864 1.559.499 1.338-.37a26.37 26.37 0 01-.8-7.557c.033-.893-1.355-.888-1.388 0M92.016 102.129a27.683 27.683 0 001.461-7.834c.038-.898-1.348-.893-1.386 0a26.346 26.346 0 01-1.411 7.464c-.29.849 1.049 1.209 1.336.37zM108.373 120.353a21.802 21.802 0 002.331-5.826c.208-.869-1.128-1.239-1.337-.37a20.446 20.446 0 01-2.192 5.495c-.448.775.75 1.47 1.198.701zM49.86 132.408a21.684 21.684 0 002.807 5.609c.508.725 1.712.034 1.198-.701a20.327 20.327 0 01-2.668-5.278c-.28-.844-1.62-.479-1.337.37"
            fill="#DEEFDF"
        ></path>
        <path
            d="M135.699 4.961c-.061-.252-.141-.518-.336-.696-.34-.3-.867-.197-1.303-.064-13.02 3.996-28.232 15.831-23.468 41.514 3.366-.094 6.285-.839 13.674-5.728 7.388-4.889 16.068-15.949 11.433-35.026"
            fill="#B5D8C1"
        ></path>
        <path
            d="M132.624 12.89c-7.892 5.269-13.825 13.404-16.431 22.526-.514 1.8-1.409 3.887-2.006 5.209 7.475-2.585 11.464-6.359 14.721-11.233 3.196-4.78 4.257-10.78 3.716-16.502"
            fill="#8CBEBA"
        ></path>
        <path
            d="M20.008 24.152C17.182 10.813 21.547 4.395 23.44 3c10.874 5.11 18.06 9.62 20.451 24.68 1.23 7.746.718 11.96-.238 16.981-14.11-.957-21.461-10.217-23.644-20.507z"
            fill="#B5D8C1"
        ></path>
        <path
            d="M24.104 8.95c-1.534 5.6-.357 11.642 1.923 16.985a43.25 43.25 0 009.226 13.596c-.638-3.029-1.276-6.058-1.915-9.082-1.634-7.755-3.531-15.999-9.234-21.5z"
            fill="#8CBEBA"
        ></path>
        <path
            d="M133.334 41.867c-3.078-5.92-13.062-6.705-17.041-2.817 1.291-2.501 1.977-8.406-1.273-11.016-3.249-2.61-7.952-2.748-11.897-1.401-3.945 1.342-7.31 3.956-10.593 6.521.481-3.216.928-6.664-.521-9.575-2.48-4.978-9.616-5.945-14.601-3.483-4.985 2.457-8.302 7.277-11.395 11.894-.285-4.45-1.64-12.639-8.285-14.183-6.646-1.549-11.407 7.366-12.07 14.42-1.653-4.05-5.819-7.548-10.19-7.681-4.369-.133-9.085 5.55-7.637 13.586-9.807-10.207-21.543 2.57-9.244 13.503-8.927 4.375-6.856 12.629-4.81 16.141 2.046 3.513 11.09 6.379 15.605-1.963-1.949 7.725-1.378 12.037 4.485 13.024 5.865.981 9.896-4.569 10.662-9.206-.435 5.25 2.838 10.903 7.96 12.126 5.124 1.219 11.073-3.38 10.289-8.589 2.176 5.26 4.873 11.041 10.189 13.069 6.54 2.496 14.671-3.513 14.203-10.498 3.189 5.81 9.542 10.419 16.098 9.462 6.557-.957 11.511-9.25 7.771-14.721 5.213 2.417 12.424 4.395 15.849-.217 2.692-3.626.867-8.732-1.033-12.827 6.547-1.297 10.559-9.65 7.479-15.57z"
            fill="#F4CDD3"
        ></path>
        <path
            d="M29.345 61.441c-1.176 0-2.21-.28-3.04-.848-1.114-.77-1.682-1.969-1.557-3.296.163-1.736 1.433-3.35 3.536-4.548-2.003-1.786-4.964-4.613-3.7-7.745 1.183-2.936 5.196-2.575 7.927-2.038-.291-.582-.55-1.179-.773-1.79-.698-1.915-.517-3.439.509-4.297 3.412-2.857 8.932-.716 11.447 1.85.33.34.325.883-.013 1.208a.852.852 0 01-1.209-.01c-2.057-2.101-6.633-3.818-9.128-1.736-.622.523-.157 1.963 0 2.397.407 1.11.942 2.176 1.592 3.163a.856.856 0 01-.907 1.302l-.34-.079c-1.982-.464-6.626-1.554-7.52.671-.874 2.166 1.781 4.524 3.54 6.083l.66.592a.854.854 0 01-.235 1.41c-2.177.958-3.553 2.349-3.684 3.73-.066.7.226 1.313.824 1.722 1.337.917 3.703.68 6.327-.627a.852.852 0 011.147.38c.21.424.039.938-.385 1.15-1.81.902-3.528 1.356-5.018 1.356M71.253 74.383c-1.501 0-2.847-.79-3.776-1.52-1.965-1.554-3.403-3.774-4.09-6.265-1.792 1.89-4.01 3.503-6.525 2.925-2.884-.66-4.177-3.778-4.788-6.205-.694 1.149-1.518 2.195-2.619 2.935-1.904 1.282-4.863 1.332-6.323-.824-1.85-2.733.328-6.473 1.043-7.7a.854.854 0 011.17-.307.85.85 0 01.308 1.165c-1.583 2.718-1.945 4.642-1.105 5.88.843 1.248 2.723 1.199 3.953.37 1.415-.952 2.31-2.64 3.177-4.425a.866.866 0 01.894-.474c.37.054.662.345.72.715.69 4.396 1.984 6.754 3.955 7.208 2.174.498 4.239-1.569 5.98-3.66a.844.844 0 01.897-.272.853.853 0 01.608.71c.347 2.7 1.77 5.274 3.805 6.883.675.532 2.005 1.386 3.274 1.085 2.254-.518 2.97-3.986 3.173-6.803a.857.857 0 011.528-.464c1.186 1.534 3.079 3.39 5.373 3.547 1.019.054 2.145-.365 2.944-1.13.703-.67 1.079-1.519 1.058-2.387a.856.856 0 01.835-.878c.499.014.864.365.875.833.032 1.357-.53 2.66-1.586 3.67-1.152 1.1-2.742 1.708-4.242 1.594-2.143-.143-3.94-1.357-5.298-2.708-.584 3.724-2.018 5.875-4.274 6.393-.32.074-.635.109-.944.109zM102.415 64.79c-.315 0-.631-.026-.943-.09-1.935-.365-3.69-1.894-4.814-4.193a.858.858 0 01.392-1.145.856.856 0 011.145.395c.418.854 1.607 2.886 3.597 3.266 1.099.207 2.323-.173 3.107-.977a3.522 3.522 0 00.893-3.132.855.855 0 011.188-.962c1.957.883 3.982 1.795 6.1 1.889 1.792.079 4.016-.627 4.926-2.383.403-.784.417-1.633.041-2.53-.628-1.5-2.333-2.98-4.056-3.513a.855.855 0 01.507-1.633c2.199.68 4.308 2.526 5.127 4.484.572 1.367.537 2.743-.101 3.977-1.103 2.136-3.665 3.418-6.518 3.31-1.941-.089-3.772-.75-5.447-1.475a5.181 5.181 0 01-1.434 3.157 5.212 5.212 0 01-3.71 1.554M108.753 47.496a.854.854 0 01-.713-1.327c1.072-1.618 1.127-3.927.133-5.604-.982-1.658-2.947-2.63-4.791-2.353-1.993.296-3.861 1.86-5.71 4.785a.857.857 0 01-.922.375.86.86 0 01-.653-.755c-.29-3.049-1.637-5.081-3.794-5.722-2.745-.81-6.274.774-8.784 3.941a.844.844 0 01-.873.301.867.867 0 01-.637-.67c-.279-1.461-.597-3.114-1.445-4.332-.683-.982-2.017-1.796-3.142-1.377-.733.277-1.309 1.022-1.775 1.717a19.785 19.785 0 00-1.996 3.814.86.86 0 01-1.109.483.857.857 0 01-.483-1.11 21.41 21.41 0 012.17-4.139c.616-.918 1.406-1.919 2.59-2.363 1.953-.74 4.069.444 5.15 1.998.703 1.011 1.095 2.17 1.37 3.31 2.848-2.856 6.418-4.11 9.449-3.211 2.27.67 3.895 2.491 4.633 5.116 1.779-2.285 3.659-3.548 5.711-3.853 2.502-.37 5.185.937 6.513 3.172 1.314 2.22 1.242 5.273-.178 7.424a.854.854 0 01-.714.38M50.394 51.512a.893.893 0 01-.384-.09c-1.126-.571-3.135-2.268-3.73-4.414-.31-1.115-.167-2.196.414-3.118.766-1.214 2.098-1.9 3.752-1.924 1.496.01 3.052.478 4.358 1.302-.562-3.675.19-6.008 2.248-6.946 1.148-.518 2.348-.488 3.466.084 2.105 1.085 3.467 3.848 3.697 5.017a.852.852 0 01-.675 1.002.852.852 0 01-1.004-.671c-.155-.795-1.296-3.054-2.8-3.824-.656-.34-1.303-.355-1.977-.049-1.105.503-2.14 2.19-.791 7.375l.073.296c.093.4-.115.81-.493.977a.857.857 0 01-1.05-.31c-.994-1.476-3.094-2.59-5.026-2.541-.748.01-1.758.217-2.332 1.125-.326.518-.395 1.09-.212 1.75.401 1.446 1.914 2.867 2.853 3.34a.855.855 0 01-.387 1.619M90.39 57.04c-1.403 0-3.022-.435-4.523-1.806a.856.856 0 011.154-1.263c2.334 2.136 5 1.263 5.831.745 1.015-.637 1.605-1.905 1.431-3.089-.172-1.189-1.099-2.235-2.253-2.555a.852.852 0 01-.598-1.051.86.86 0 011.052-.597c1.788.493 3.225 2.121 3.491 3.957.268 1.835-.644 3.803-2.218 4.785-.59.37-1.854.873-3.367.873M71.909 60.176c-1.713 0-3.126-.849-3.743-1.411-.912-.834-1.528-1.92-1.764-3.044-1.335.508-2.82.75-4.063-.128-.686-.484-1.131-1.248-1.255-2.156-.153-1.115.198-2.353.916-3.236 1.163-1.431 2.938-2.062 4.364-2.566a.847.847 0 011.093.518.854.854 0 01-.518 1.09c-1.56.553-2.816 1.056-3.613 2.038a2.632 2.632 0 00-.548 1.924c.043.306.171.725.548.992.873.616 2.307.049 3.456-.513a.862.862 0 01.852.054.862.862 0 01.378.764c-.067 1.051.435 2.2 1.308 2.995.36.33 1.609 1.14 3.066.932 1.178-.167 2.217-.971 3.087-2.392a.853.853 0 111.458.888c-1.148 1.88-2.598 2.955-4.304 3.197a5.14 5.14 0 01-.718.054"
            fill="#F8A7C1"
        ></path>
        <path
            d="M84.262 119.838c-.263-2.925-1.732-16.423-13.75-16.605-8.9-.134-11.761 9.832-12.685 13.211-.81 2.965-1.236 6.132-.823 9.21.647 4.835 3.343 9.068 6.733 11.919 1.145.967 2.396 1.806 3.767 2.19 1.106.311 2.257.321 3.395.326 2.742.01 5.651-.054 7.961-1.786 1.928-1.44 3.168-3.867 4.005-6.369 1.28-3.823 1.763-8.011 1.397-12.096"
            fill="#F4ECDE"
        ></path>
        <path
            d="M77.433 110.418a28.952 28.952 0 00-5.66-1.954c-1.605-.375-3.329-.621-5.067-.103-1.738.523-3.484 1.993-3.883 3.774-.433 1.924.794 3.532 2.274 4.425 1.48.888 2.543 1.667 5.345 1.559 2.802-.109 6.128-.632 8.89-4.045 1.154-1.426-.511-3.01-1.899-3.656z"
            fill="#1F1611"
        ></path>
        <path
            d="M70.442 118.119c-.404.015-.704-.025-1.043-.045.363 4.909.42 13.103.807 17.755.103 1.239 1.85 1.248 1.747 0-.387-4.657-.445-12.871-.809-17.774-.232.015-.477.054-.702.064z"
            fill="#1F1611"
        ></path>
        <path
            d="M44.717 108.495c-1.164-2.644-3.8-4.524-7.116-4.45-2.183.054-4.137 1.431-5.62 3.034-1.23 1.327-1.694 2.57-1.421 4.356.21 1.386 1.506 4.396 5.785 5.091 2.46.4 5.254.444 7.12-1.209 1.684-1.489 2.416-4.173 1.252-6.822M111.597 105.552c-.46-.675-1.103-1.198-1.77-1.667-2.007-1.416-4.538-2.432-6.902-1.761-1.67.473-2.974 1.1-4.259 2.906-1.285 1.8-.989 5.263-.29 6.798.7 1.529 3.023 4.356 7.11 4.336 2.479-.01 6.263-1.86 7.327-5.042.637-1.904-.621-4.701-1.216-5.57"
            fill="#F57DB2"
        ></path>
        <path
            d="M107.355 94.693c-.132-2.067 0-5.412-3.36-5.708-3.361-.291-3.185 7.952-2.862 8.845.241.666.516 1.372 1.106 1.761.64.42 1.453.193 2.194 0 2.081-.547 2.968-4.178 2.922-4.898M44.327 90.901c-.949-1.524-3.13-2.13-4.73-1.312-1.6.819-2.033 7.504-1.428 8.732.605 1.228 1.895 2.235 3.255 2.062.982-.128 1.813-.839 2.318-1.687.505-.854.732-1.835.925-2.807.335-1.677.561-3.537-.34-4.988"
            fill="#1F1611"
        ></path>
        <path fill="#fff" fill-opacity="0.01" d="M149 149h1v1h-1z"></path>
    </svg>