<svg
        xmlns="http://www.w3.org/2000/svg"
        width="150"
        height="150"
        viewBox="0 0 150 150"
        fill="none"
        style="width: 4rem; height: 4rem; background: none"
    >
        <path
            d="M123.349 24.102c-16.031-10.045-31.566-11.49-37.522-11.732-14.14-.566-28.602-1.095-42.11 3.379-14.705 4.874-27.336 13.84-35.089 27.974-7.753 14.14-10.552 33.312-7.287 49.3 2.225 10.895 10.21 23.376 18.635 30.033 14.093 11.136 26.244 13.69 42.613 15.252 16.623 1.591 57.725 3.495 79.82-32.311 3.659-5.929 7.108-18.522 7.145-25.609.113-21.73-8.567-45.238-26.205-56.286"
            fill="#E68516"
        ></path>
        <path
            d="M73.588 117.221c.895 7.219 1.132 14.502 1.567 21.771 1.169.009 2.364.004 3.599-.021-.455-7.24-.671-14.497-1.5-21.7a60.534 60.534 0 01-3.666-.05zm-18.245 10.84c-.886 2.912-1.661 6.003-2.542 9.056 1.277.2 2.569.388 3.893.55 2.22-7.244 3.767-14.826 6.34-21.921a49.79 49.79 0 01-3.535-.975c-1.56 4.37-2.818 8.886-4.156 13.29zm-15.564-7.703c-2.501 3.52-4.953 7.078-7.414 10.631a61.34 61.34 0 003.442 1.563c1.327-1.913 2.647-3.833 3.978-5.745 3.466-4.979 6.984-10.769 11.069-15.727a47.882 47.882 0 01-3.085-1.854c-2.847 3.616-5.424 7.524-7.99 11.132zm.463-17.214c-.914-.9-1.77-1.825-2.567-2.775-.437.279-.854.542-1.21.792-3.484 2.433-7.04 4.757-10.592 7.078-4.184 2.737-8.457 5.37-12.636 8.144.836.996 1.691 1.95 2.564 2.854 4.243-2.799 8.57-5.474 12.812-8.249 3.7-2.42 7.392-4.857 11.01-7.415.202-.142.41-.283.619-.429zm70.76-1.766c7.389 5.524 14.915 10.844 22.304 16.364a68.423 68.423 0 002.559-2.8c-7.554-5.666-15.261-11.107-22.827-16.756a50.767 50.767 0 01-2.036 3.192zm6.246-12.315a51.024 51.024 0 01-1.369 3.528c4.717 1.85 9.508 3.504 14.285 5.154 4.579 1.575 9.301 3.466 14.059 4.737a54.09 54.09 0 001.451-3.608c-4.175-1.108-8.31-2.742-12.343-4.104-5.368-1.812-10.782-3.624-16.083-5.707zm32.248-12.036h-29.692a48.703 48.703 0 01-.482 3.858h30.215c.004-.167.016-.337.017-.496a82.08 82.08 0 00-.058-3.362zm-59.76 38.89c2.485 6.874 4.177 14.135 5.977 21.3a89.437 89.437 0 003.58-.77c-1.842-7.237-3.571-14.56-6.045-21.543-1.172.4-2.345.734-3.512 1.013zM105 108.193c-.958.833-1.944 1.6-2.953 2.3 2.488 4.282 5.186 8.444 7.845 12.568 1.567 2.433 3.154 5.266 4.891 7.974a70.382 70.382 0 003.321-1.725c-1.8-2.757-3.426-5.699-5.044-8.194-2.744-4.229-5.519-8.511-8.06-12.923zm-74.813-21.03C20.942 90.454 11.905 94.5 2.712 97.97a50.362 50.362 0 001.368 3.57c9.21-3.491 18.268-7.545 27.54-10.82a45.684 45.684 0 01-1.433-3.557zm44.581-41.51c.352-11.21-.604-22.43-.969-33.636-1.223-.012-2.447-.02-3.67-.008.364 11.181 1.317 22.371.974 33.548 1.221.017 2.444.05 3.665.096zM92.745 13c-2.377 11.16-4.676 22.334-6.828 33.545 1.228.15 2.443.316 3.64.496 2.15-11.178 4.444-22.318 6.816-33.445A78.101 78.101 0 0092.744 13zm25.172 8.003a78.007 78.007 0 00-3.353-1.637c-2.464 3.67-4.679 7.574-6.908 11.302-3.418 5.72-7.184 11.673-9.68 17.993a81.42 81.42 0 013.58.933c2.27-5.586 5.668-10.865 8.661-15.955 2.45-4.166 4.902-8.587 7.7-12.636zm1.055 42.78a38.21 38.21 0 01.671 3.813c4.242-1.288 8.454-2.763 12.646-4.07 4.845-1.505 9.705-2.98 14.541-4.53a77.704 77.704 0 00-1.073-3.69c-4.805 1.537-9.632 3.004-14.443 4.503-4.092 1.27-8.202 2.708-12.342 3.975zm-91.426 11.37c-9.16.295-18.323 1.133-27.486 1.374a77.035 77.035 0 00-.047 3.858c9.35-.242 18.701-1.116 28.05-1.391a53.833 53.833 0 01-.517-3.841zm86.115-20.23c4.266-3.612 8.288-7.616 12.391-11.357 3.099-2.824 6.221-5.624 9.421-8.324-.776-1-1.583-1.97-2.423-2.903-2.152 1.804-4.25 3.683-6.339 5.553-5.471 4.908-10.726 10.357-16.464 14.99a25.414 25.414 0 013.414 2.04zM36.993 50.96c-6.837-6.045-13.286-12.586-20.195-18.518a54.534 54.534 0 00-2.448 2.812c6.604 5.611 12.77 11.819 19.229 17.647a25.072 25.072 0 013.414-1.941zm7.7-2.712c1.203-.313 2.448-.6 3.738-.858-2.928-5.52-5.13-11.67-7.398-17.36-1.491-3.75-3.078-7.586-4.479-11.486a67.833 67.833 0 00-3.34 1.6c1.484 4.087 3.164 8.103 4.729 12.036 2.093 5.253 4.134 10.898 6.75 16.068zM27.917 61.796c-8.147-1.745-16.42-3.374-24.501-5.503a75.508 75.508 0 00-1.027 3.704c8.264 2.179 16.729 3.837 25.055 5.628.114-1.416.278-2.704.473-3.829zm32.129-15.922C58.915 34.876 57.44 23.92 56.084 12.95a70.128 70.128 0 00-3.598.584c1.35 10.881 2.809 21.754 3.925 32.665 1.194-.13 2.407-.233 3.635-.325"
            fill="#D15B1E"
        ></path>
        <path
            d="M117.67 59.549c-6.604-16.63-83.891-20.605-89.275 0-1.94 7.42-3.092 29.016 11.98 43.735 12.815 12.514 29.228 15.493 45.31 13.385 8.358-1.092 17.686-4.974 24.256-13.806 11.608-15.606 11.581-33.616 7.729-43.314"
            fill="#FBC62C"
        ></path>
        <path
            d="M125.382 40.041c-4.097-3.57-9.192-1.604-12.88 1.183-3.042 2.304-5.054 6.587-5.95 10.036 4.878 1.88 8.555 4.179 10.347 6.853 2.092-1.3 7.878-4.574 9.608-12.006.494-2.129.483-4.666-1.125-6.066"
            fill="#FBC62C"
        ></path>
        <path
            d="M121.361 42.992c-1.564-.674-3.395.4-4.713 1.571-2.547 2.266-4.679 4.333-6.286 8.378 1.61.82 3.009 1.704 4.16 2.641 3.081-1.408 7.065-4.758 8.164-8.365.482-1.592.174-3.583-1.325-4.225"
            fill="#F79733"
        ></path>
        <path
            d="M40.267 49.613c-1.13-6.124-5.615-12.181-10.252-13.644-5.826-1.837-9.468 3.542-10.277 6.604-.777 2.94.544 6.324 2.375 8.81 1.392 1.888 4.31 5.112 6.574 7.254 1.489-3.937 5.722-6.912 11.58-9.024"
            fill="#FBC62C"
        ></path>
        <path
            d="M31.387 54.684c1.172-1.138 2.622-2.163 4.319-3.075-2.065-4.628-4.697-7.657-6.333-8.565-1.966-1.087-3.899-.175-4.444.67-.5.775.046 2.646.41 3.5.583 1.358 1.452 3.741 6.048 7.47z"
            fill="#F79733"
        ></path>
        <path
            d="M45.708 89.576c-1.083-2.466-3.536-4.224-6.622-4.153-2.03.05-3.849 1.337-5.23 2.828-1.144 1.237-1.575 2.4-1.322 4.066.197 1.292 1.402 4.1 5.385 4.75 2.288.37 4.888.412 6.625-1.13 1.566-1.387 2.247-3.895 1.164-6.361M112.638 85.888c-.578-.346-1.264-.512-1.952-.633-2.074-.354-4.463-.217-6.219 1.129-1.241.95-2.133 1.887-2.664 3.707-.53 1.817.732 4.325 1.761 5.237 1.028.908 3.778 2.212 7.148.746 2.044-.892 4.626-3.633 4.568-6.412-.033-1.666-1.894-3.332-2.642-3.774z"
            fill="#F79162"
        ></path>
        <path
            d="M60.844 83.148c2.926-1.658 6.409-.93 12.555-1.146 3.293-.116 7.174.159 10.104 1.025 1.612.48 2.996 1.196 3.602 2.133.23-10.59-2.647-21.267-5.029-28.145-1.02-2.95-3.923-11.165-8.849-11.34-2.342-.083-3.879 2.116-4.864 3.95-5.327 9.902-8.2 26.79-8.923 34.756.263-.429.718-.846 1.404-1.233"
            fill="#F7A70D"
        ></path>
        <path
            d="M83.503 83.029c-2.93-.867-6.811-1.142-10.104-1.025-6.146.216-9.629-.513-12.555 1.145-6.421 3.637 7.264 9.507 11.847 9.657 4.583.154 12.116-2.595 14.026-4.924 1.91-2.329-.285-3.987-3.214-4.853M102.799 82.767c2.129.1 2.118-3.053 2.177-4.607.058-1.558-.761-3.254-1.945-3.296-1.184-.046-1.968 1.008-2.116 2.87-.148 1.859-.246 4.933 1.884 5.033M42.403 83.274c1.79.2 2.72-3.953 2.21-6.753-.508-2.8-3.252-2.774-4.433-.312-1.18 2.462.432 6.865 2.223 7.065z"
            fill="#1F1611"
        ></path>
        <path
            d="M81.242 100.739c.459 4.374-5.09 6.245-6.959 2.275a89.965 89.965 0 01-.457-10.228c-.392.021-.775.034-1.135.021a2.39 2.39 0 01-.17-.008 89.916 89.916 0 00.476 10.427c.017 1.642-1.291 2.566-2.677 2.912-3.35.833-3.847-2.341-3.597-4.97.084-.879-1.22-.871-1.304 0-.168 1.758-.204 3.416.75 4.937.91 1.45 2.66 1.57 4.14 1.412 1.547-.171 2.978-1.175 3.625-2.599 2.937 3.474 9.157 1.012 8.611-4.179-.091-.87-1.396-.879-1.303 0"
            fill="#1F1611"
        ></path>
        <path fill="#fff" fill-opacity="0.01" d="M149 149h1v1h-1z"></path>
    </svg>