 <svg
        xmlns="http://www.w3.org/2000/svg"
        width="150"
        height="150"
        viewBox="0 0 150 150"
        fill="none"
        style="width: 4rem; height: 4rem; background: none"
    >
        <path
            d="M106.219 62.123c-10.934-4.216-21.572-6.647-34.295-5.993-18.085.928-31.52 8.586-37.67 13.14-9.188 6.804-13.278 17.368-14.14 28.922-1.45 19.474 11.042 37.745 29.151 44.051 16.944 5.898 34.995 4.532 51.577-1.865 15.92-6.139 27.278-16.573 28.422-39.027 1.166-22.9-15.453-36.302-23.045-39.228"
            fill="#FABBC1"
        ></path>
        <path
            d="M28.59 74.667a31.667 31.667 0 015.664-5.398c2.886-2.135 7.376-4.957 13.197-7.446.056-8.2 1.081-16.174.872-24.96-.173-7.28-.71-30.366-8.134-31.507-3.839-.59-7.473 12.137-9.886 33.143-1.12 9.755-1.812 28.073-1.74 36.185l.027-.017M106.219 62.123c2.535.974 6.068 3.118 9.614 6.39l.354.499c1.503-17.51 1.061-18.6.733-40.414-.221-14.709-3.33-24.56-6.714-24.598-3.088-.033-5.918 4.229-7.758 12.707-2.976 13.69-5.718 35.894-5.989 42.162a105.62 105.62 0 019.76 3.255"
            fill="#FABBC1"
        ></path>
        <path
            d="M39.824 65.638c.705-8.874 3.578-48.805.577-48.742-2.394.054-4.533 34.433-4.779 51.393a64.429 64.429 0 014.202-2.651M106.219 62.123c.961.37 2.069.908 3.263 1.615 1.032-6.563 1.411-15.945 1.544-27.29.067-5.844.674-21.085-1.59-21.564-2.26-.479-4.561 39.756-5.048 46.553.607.22 1.219.45 1.831.686"
            fill="#F4EFDF"
        ></path>
        <path
            d="M50.586 70.54a34.34 34.34 0 00-1.252 9.207c.001.782 1.192.787 1.193.004 0-3.022.401-5.972 1.206-8.882.21-.757-.939-1.082-1.147-.329M64.357 79.835c-.104 3.209-.204 6.418-.304 9.63-.025.783 1.166.787 1.19.005.105-3.213.204-6.422.304-9.631.025-.783-1.165-.787-1.19-.004zM74.329 68.092c.087 2.772.104 5.544.05 8.316-.017.787 1.178.79 1.19.004.054-2.772.038-5.54-.05-8.312-.02-.782-1.215-.79-1.19-.008M82.579 84.546c.586 3.238.878 6.484.886 9.772.004.787 1.194.79 1.19.004a56.983 56.983 0 00-.928-10.093c-.141-.77-1.29-.45-1.148.317zM88.771 72.352c1.211 4 2.68 7.72 3.113 11.933.08.774 1.274.786 1.19.008-.445-4.324-1.91-8.153-3.154-12.257-.225-.75-1.378-.433-1.149.316M102.478 66.006a49.855 49.855 0 014.216 9.003c.258.732 1.411.42 1.153-.32a52.031 52.031 0 00-4.337-9.29c-.4-.67-1.432-.063-1.032.607M101.508 89.198c.491 2.306.716 4.62.682 6.976-.008.786 1.182.79 1.195.004a32.565 32.565 0 00-.729-7.296c-.162-.77-1.315-.45-1.148.316M52.855 128.058a30.874 30.874 0 01-1.353-6.876c-.063-.774-1.255-.786-1.193-.004a32.359 32.359 0 001.395 7.197c.235.745 1.387.432 1.15-.317M111.775 79.747c1.802 3.2 2.939 6.51 3.018 10.23.012.783 1.207.787 1.19.005-.083-3.921-1.278-7.467-3.176-10.843-.383-.682-1.415-.074-1.032.608M122.027 81.824c1.386 3.163 1.985 6.543 2.605 9.93.138.77 1.291.446 1.149-.32-.641-3.5-1.29-6.954-2.722-10.222-.316-.716-1.344-.1-1.032.612M124.049 102.432c-.333 3.018-.633 6.002-1.486 8.924-.22.753.928 1.078 1.149.328.882-3.025 1.186-6.122 1.527-9.244.084-.782-1.107-.778-1.19-.008M114.643 110.104a89.091 89.091 0 01-1.49 10.442c-.158.766.991 1.099 1.149.329a91.872 91.872 0 001.531-10.767c.067-.783-1.127-.783-1.19-.004M102.706 107.54a32.976 32.976 0 01-.599 6.768c-.15.762.999 1.095 1.148.325.458-2.344.675-4.699.641-7.088-.008-.783-1.202-.791-1.19-.005zM104.496 124.517a22.407 22.407 0 01-1.465 7.184c-.279.732.87 1.053 1.145.328a23.53 23.53 0 001.515-7.508c.029-.787-1.166-.787-1.195-.004M91.398 102.487c.05 4.054-.1 8.095-.445 12.133-.071.782 1.123.782 1.19.004.346-4.037.495-8.079.45-12.133-.009-.782-1.203-.79-1.195-.004M93.221 128.505a123.258 123.258 0 01-.832 8.474c-.104.774 1.086.77 1.19.004.379-2.813.654-5.639.833-8.47.05-.786-1.145-.786-1.19-.008zM82.94 136.474c.142 1.573.05 3.117-.303 4.661-.17.762.974 1.095 1.149.329.374-1.644.5-3.305.345-4.986-.067-.774-1.261-.787-1.19-.004zM80.772 117.273c-.012 2.568-.02 5.14-.033 7.708-.004.783 1.186.787 1.19.005.013-2.568.025-5.136.033-7.709.005-.782-1.186-.786-1.19-.004zM68.19 108.168a82.178 82.178 0 00.117 9.057c.054.778 1.244.787 1.19.004a83.163 83.163 0 01-.116-9.052c.033-.787-1.157-.791-1.19-.009zM73.077 93.745c.208 2.76.42 5.519.629 8.282.058.775 1.252.787 1.194.005-.212-2.76-.42-5.52-.632-8.279-.059-.778-1.249-.79-1.19-.008zM57.358 97.38a41.615 41.615 0 00-.284 12.823c.103.778 1.252.45 1.151-.316a39.66 39.66 0 01.28-12.183c.137-.765-1.01-1.098-1.148-.324zM45.674 87.692a58.924 58.924 0 00-1.078 11.325c.001.782 1.193.786 1.191.004a57.237 57.237 0 011.035-11c.147-.766-1-1.1-1.148-.33M30.88 81.821a39.64 39.64 0 00-3.644 10.106c-.164.766.983 1.095 1.147.329.735-3.442 1.9-6.701 3.523-9.814.36-.691-.665-1.311-1.026-.62zM34.052 99.763a29.014 29.014 0 00.181 9.764c.146.77 1.295.449 1.151-.316a27.147 27.147 0 01-.184-9.12c.114-.765-1.033-1.102-1.148-.328zM27.588 113.556a47.64 47.64 0 002.583 7.708c.31.72 1.338.104 1.031-.607a45.965 45.965 0 01-2.464-7.421c-.184-.762-1.334-.441-1.15.32M42.932 110.359c-.059 2.214.23 4.374.866 6.492.225.745 1.377.433 1.15-.32a19.41 19.41 0 01-.824-6.168c.02-.787-1.172-.787-1.192-.004M38.975 126.28c.852 3.267 2.691 6.01 5.325 8.045.613.475 1.21-.578.606-1.044-2.38-1.844-4.013-4.379-4.78-7.317-.199-.758-1.35-.442-1.151.316M59.13 127.994c.35 3.154 1.082 6.164 1.973 9.198.22.749 1.373.437 1.153-.316-.866-2.931-1.599-5.827-1.936-8.874-.083-.77-1.277-.787-1.19-.008M71.624 135.928a32.53 32.53 0 00.79 7.67c.175.762 1.324.446 1.154-.32a31.097 31.097 0 01-.754-7.346c.013-.783-1.178-.787-1.19-.004M40.01 77.464a22.417 22.417 0 011.468-7.183c.278-.733-.873-1.053-1.148-.33a23.529 23.529 0 00-1.512 7.51c-.03.786 1.163.786 1.192.003zM58.412 71.19c.284-2.772.667-5.528 1.146-8.27.133-.766-1.015-1.1-1.15-.325a122.35 122.35 0 00-1.188 8.59c-.08.779 1.113.779 1.192.004zM67.662 64.454a14.876 14.876 0 01.3-4.662c.174-.762-.974-1.09-1.145-.329a15.813 15.813 0 00-.345 4.986c.066.775 1.26.787 1.19.005M97.075 70.272c-.85-3.055-2.073-5.89-3.438-8.732-.341-.703-1.37-.091-1.032.608 1.319 2.747 2.497 5.494 3.32 8.44.209.754 1.362.438 1.15-.316zM81.097 65.693a32.764 32.764 0 00-.795-7.671c-.17-.766-1.324-.445-1.149.316a31.16 31.16 0 01.75 7.35c-.013.783 1.181.787 1.194.005"
            fill="#F6D5D9"
        ></path>
        <path
            d="M78.67 97.853c-1.123-1.161-2.963-1.145-4.523-.77-1.233.295-2.577.92-2.93 2.16-.342 1.199.39 2.422 1.169 3.384.961 1.194 3.005 2.576 3.005 2.576 1.41-.657 2.788-1.565 3.571-2.938.778-1.37.8-3.284-.291-4.412"
            fill="#1F1611"
        ></path>
        <path
            d="M83.14 129.078c-.245 2.435-1.84 4.32-4.39 3.954-1.594-.229-2.652-1.694-3.018-3.188.55-8.349 1.007-16.682.429-25.039-.254.141-.512.275-.77.395 0 0-.167-.112-.416-.295.566 8.237.12 16.444-.417 24.673-.537 3.005-2.963 4.715-5.56 3.117-1.207-.745-1.49-2.447-1.461-3.758.012-.808-1.207-.808-1.224-.005-.045 2.115.766 4.516 2.901 5.278 2.577.916 4.782-.375 5.898-2.568.874 1.598 2.456 2.622 4.378 2.697 2.91.116 4.604-2.61 4.874-5.257.083-.803-1.14-.799-1.224-.004M40.105 92.995c-1.688-.799-3.74 2.131-3.544 4.017.478 4.578 2.345 3.896 3.59 3.696 1.245-.2 1.76-1.673 1.683-3.409-.078-1.74-.02-3.496-1.729-4.304M115.268 94.464c-.774-.866-1.981-1.136-2.776-.296-.441.466-.695 1.199-.853 1.931-.417 1.957-.3 4.441 1.502 5.361 1.802.92 2.581-.711 3.051-2.318.466-1.607.05-3.588-.924-4.678"
            fill="#1F1611"
        ></path>
        <path
            d="M37.77 109.025c-.99-2.327-3.249-3.987-6.1-3.933-1.875.037-3.559 1.24-4.84 2.643-1.061 1.157-1.465 2.247-1.237 3.816.176 1.216 1.279 3.863 4.953 4.487 2.112.358 4.514.408 6.123-1.032 1.453-1.303 2.092-3.659 1.1-5.981zM124.133 107.706c-.395-.591-.945-1.053-1.515-1.469-1.719-1.248-3.891-2.147-5.923-1.569-1.44.408-2.563.957-3.675 2.531-1.111 1.577-.865 4.615-.27 5.964.595 1.348 2.58 3.833 6.093 3.833 2.127-.004 5.386-1.611 6.314-4.399.553-1.669-.516-4.125-1.024-4.891"
            fill="#F599A4"
        ></path>
        <path fill="#fff" fill-opacity="0.01" d="M149 149h1v1h-1z"></path>
    </svg>