<svg
        xmlns="http://www.w3.org/2000/svg"
        width="150"
        height="150"
        viewBox="0 0 150 150"
        fill="none"
        style="width: 4rem; height: 4rem; background: none"
    >
        <path
            d="M116.365 80.117c-1.247-14.573-7.558-24.325-15.334-30.978-7.775-6.653-17.173-7.98-32.776-6.75-15.608 1.232-24.816 12.831-28.74 22.02-4.862 11.393-2.327 24.007-.266 36.197 2.676 15.846 9.9 26.181 17.922 35.756 4.64 5.538 9.852 10.452 17.177 11.224 5.602.592 10.295-.636 14.935-3.73 9.635-6.424 19.496-20.446 23.154-31.2 2.886-8.492 4.79-22.526 3.928-32.54"
            fill="#CC9343"
        ></path>
        <path
            d="M39.893 63.582C43 56.748 48.964 48.84 58.225 44.859 51.339 31.72 41.639-1.533 38.259 2.307c-3.703 4.205-6.524 13.711-6.983 25.033-.451 11.104 3.207 32.716 8.617 36.242z"
            fill="#944C24"
        ></path>
        <path
            d="M42.698 58.441c2.113-3.292 4.87-6.548 8.315-9.268-1.36-7.374-3.663-11.91-5.49-17.765-2.133-6.834-3.626-9.688-6.725-16.143-1.183 2.362-2.226 9.735-2.165 12.605.133 6.681.165 11.668 1.429 18.413.954 5.1 2.833 9.289 4.636 12.158"
            fill="#452619"
        ></path>
        <path
            d="M110.847 3.09c-4.604 1.087-10.448 29.714-16.666 41.736a27.205 27.205 0 016.85 4.31c4.242 3.63 8.041 8.195 10.831 13.95 4.213-3.968 8.343-13.294 8.689-25.021.354-12.014-4.729-36.15-9.704-34.975z"
            fill="#944C24"
        ></path>
        <path
            d="M109.68 59.137a122.198 122.198 0 002.367-4.492c1.211-2.447 3.924-9.373 3.964-16.734.044-7.269.177-14.916-3.34-21.27-1.924 1.553-2.814 4.016-3.603 6.358a462.594 462.594 0 00-7.936 26.225c3.183 2.74 6.113 6.009 8.548 9.913"
            fill="#452619"
        ></path>
        <path
            d="M74.255 108.919c-.35-2.395-.704-4.789-1.058-7.184-.11-.749-1.248-.431-1.14.314.355 2.394.705 4.789 1.06 7.184.108.748 1.247.43 1.138-.314zM78.976 101.778a38.123 38.123 0 00-.133-7.108c-.084-.748-1.267-.756-1.183 0 .266 2.367.31 4.73.133 7.108-.052.756 1.127.752 1.183 0zM84.104 109.398a32.47 32.47 0 00.347-5.928c-.029-.761-1.212-.765-1.184 0a30.132 30.132 0 01-.306 5.614c-.108.741 1.03 1.063 1.143.314zM84.168 98.596c.222-1.26.282-2.511.145-3.787-.084-.745-1.264-.753-1.183 0a12.246 12.246 0 01-.1 3.473c-.133.745 1.005 1.063 1.138.314M88.981 96.583a9.456 9.456 0 00.455-3.655c-.052-.752-1.235-.76-1.183 0a8.62 8.62 0 01-.41 3.34c-.238.725.901 1.035 1.138.315M89.718 105.126c.21-1.32.414-2.641.624-3.961.12-.744-1.019-1.066-1.14-.318l-.627 3.965c-.117.744 1.022 1.066 1.143.314zM69.893 111.095l-.942-4.133c-.17-.74-1.308-.427-1.139.314l.942 4.133c.169.741 1.308.427 1.139-.314zM68.15 101.524a35.276 35.276 0 00-1.236-5.425c-.225-.724-1.364-.414-1.139.314a35.296 35.296 0 011.236 5.425c.108.749 1.247.431 1.139-.314zM71.08 96.729a26.078 26.078 0 00-.717-5.578c-.177-.737-1.32-.427-1.138.314.414 1.734.635 3.485.676 5.264.016.76 1.195.764 1.179 0M65.486 91.796a31.17 31.17 0 00-.81-5.28c-.18-.741-1.32-.427-1.142.313.398 1.634.656 3.285.768 4.967.053.752 1.232.76 1.184 0M75.552 93.643a27.553 27.553 0 00-.536-4.938c-.153-.745-1.292-.427-1.143.317.31 1.526.471 3.063.495 4.62.012.761 1.192.766 1.184 0M85.738 91.368c.157-1.095.23-2.186.17-3.292-.041-.757-1.224-.765-1.18 0 .052.994.012 1.988-.129 2.978-.105.744 1.034 1.066 1.139.314zM79.35 109.294a8.333 8.333 0 00-.16-2.467c-.157-.744-1.296-.426-1.14.314.154.725.182 1.421.118 2.153-.065.761 1.114.757 1.183 0zM88.49 108.948a14.994 14.994 0 01-.518 3.099c-.202.736.937 1.05 1.138.318.31-1.123.492-2.258.56-3.417.044-.761-1.135-.757-1.18 0zM92.885 96.201c.528-1.984.817-3.996.874-6.049.02-.76-1.16-.756-1.183 0a24.886 24.886 0 01-.83 5.735c-.197.737.942 1.05 1.14.314z"
            fill="#944C24"
        ></path>
        <path
            d="M114.305 73.184c2.72-.588 8.017-3.534 6.391-5.796-1.626-2.262-4.673-3.026-7.458-2.994 4.423-3.01 6.637-7.913 5.007-10.83-1.304-2.327-8.138-.423-10.384 1.4 3.031-4.781 3.373-10.504.117-11.317-3.256-.81-6.142 2.366-8.87 4.318.583-2.918.58-9.957-2.914-10.5-2.367-.367-5.61 2.398-8.166 5.014.58-13.764-7.587-10.5-10.617-1.513-1.16-4.024-3.61-7.28-7.003-7.12-3.389.166-3.067 2.927-4.898 7.004-2.327-1.86-5.494-7.325-8.947-5.563-3.453 1.763-.882 5.426-1.787 9.644-3.852-2.802-7.035-4.886-10.086-2.975-3.055 1.908-.648 8.227 1.22 11.024-2.544-1.364-7.704-4.858-10.034-1.163-2.334 3.69 1.05 8.05 2.793 10.146-3.598-1.05-8.226-1.09-9.43 1.787-1.207 2.877 2.456 6.568 4.226 7.969 0 0-4.439 3.368-3.892 6.58.552 3.212 8.702 4.56 11.54 1.554-1.748 2.459-.902 7.083 2.112 6.962 3.55-.14 7.466-3.618 8.621-6.15-.266 3.277.113 6.859 3.28 7.317 1.47.214 5.132-2.684 6.999-8.049 3.09 9.108 9.216 13.064 11.317-.817.037 3.848 1.365 10.617 4.902 12.134 3.534 1.518 7.752-7.924 6.182-11.434 1.759 3.445 2.918 9.39 6.766 8.983 4.435-.467 5.526-5.38 5.019-9.216 2.008 2.709 3.614 8.995 8.166 8.4 4.551-.596 2.825-6.07 2.334-9.567 4.306 3.276 8.89 7.224 12.13 3.151 3.244-4.077-2.729-8.661-4.636-8.383"
            fill="#B56530"
        ></path>
        <path
            d="M82.64 52.639a16.4 16.4 0 012.728-6.436c.406-.575-.535-1.114-.938-.547a17.063 17.063 0 00-2.837 6.693c-.133.684.913.978 1.046.29zM91.678 43.97a48.338 48.338 0 012.576-3.35c.455-.534-.407-1.203-.853-.667a48.364 48.364 0 00-2.58 3.348c-.399.572.454 1.24.857.668M89.034 58.12a59.505 59.505 0 006.693-3.655c.592-.374-.004-1.28-.595-.905a57.765 57.765 0 01-6.44 3.53c-.628.293-.29 1.323.342 1.03M101.671 54.157a26.213 26.213 0 004.118-3.4c.491-.5-.274-1.269-.765-.77a24.546 24.546 0 01-3.9 3.232c-.579.387-.036 1.328.547.938M107.209 59.723a88.776 88.776 0 016.315-2.5c.66-.233.189-1.21-.467-.981a90.54 90.54 0 00-6.314 2.503c-.64.282-.173 1.26.466.978zM40.577 66.19a92.75 92.75 0 01-6.617 1.534c-.688.129-.394 1.175.29 1.046a90.53 90.53 0 006.617-1.533c.676-.185.39-1.232-.29-1.046zM116.092 77.815a11.893 11.893 0 00-3.486-2.48c-.632-.297-1.155.657-.519.955a11.07 11.07 0 013.252 2.306c.491.503 1.24-.282.753-.78zM101.772 64.841c1.67.109 3.329.065 4.987-.145.688-.084.696-1.171 0-1.082a26.132 26.132 0 01-4.987.14c-.7-.048-.696 1.039 0 1.087zM116.245 69.433a27.3 27.3 0 01-6.605-.857c-.672-.173-1.038.849-.362 1.026 2.258.58 4.548.894 6.878.914.701.004.789-1.079.089-1.083M107.37 73.324a17.886 17.886 0 01-3.779-2.624c-.519-.467-1.288.298-.769.769a19.018 19.018 0 004.001 2.793c.619.322 1.167-.616.547-.938zM94.274 69.66a18.359 18.359 0 004.017 4.387c.543.426 1.32-.338.769-.77a17.32 17.32 0 01-3.848-4.169c-.382-.583-1.32-.04-.938.552zM91.303 51.69a18.251 18.251 0 003.707-4.653c.338-.603-.535-1.251-.877-.64a17.36 17.36 0 01-3.514 4.452c-.519.467.165 1.312.684.84M63.01 45.378a18.26 18.26 0 003.369 4.906c.479.495 1.352-.153.865-.656a17.302 17.302 0 01-3.228-4.665c-.298-.628-1.304-.221-1.006.415zM99.708 80.299a13.719 13.719 0 012.072 2.853c.334.616 1.272.068.938-.547a14.717 14.717 0 00-2.242-3.071c-.483-.511-1.251.257-.768.764M87.839 72.563c.89 1.831 1.779 3.658 2.664 5.49.306.631 1.244.08.938-.548-.89-1.831-1.775-3.662-2.664-5.49-.302-.631-1.24-.08-.938.548zM74.9 44.976c.394 1.992.792 3.988 1.187 5.985.137.688 1.183.39 1.046-.294-.394-1.996-.793-3.989-1.187-5.985-.137-.688-1.183-.39-1.046.294zM81.33 70.867c.117 1.69.471 3.324 1.083 4.906.254.644 1.304.362 1.047-.29a15.794 15.794 0 01-1.043-4.616c-.048-.697-1.13-.7-1.087 0M82.2 38.264a16.55 16.55 0 00-1.5 4.789c-.11.692.969.833 1.074.145a15.654 15.654 0 011.428-4.52c.314-.628-.692-1.038-1.002-.414M77.29 77.534c.358 2.608.72 5.216 1.083 7.824.092.688 1.139.394 1.046-.29a5248.45 5248.45 0 01-1.083-7.824c-.096-.688-1.143-.394-1.046.29zM73.261 77.672c.06-2.33-.044-4.645-.306-6.96-.08-.687-1.167-.695-1.087 0a50.21 50.21 0 01.31 6.96c-.02.7 1.067.696 1.083 0zM64.826 77.006a61.75 61.75 0 002.551-6.19c.234-.664-.817-.946-1.046-.29a59.38 59.38 0 01-2.443 5.928c-.298.632.636 1.184.938.552M57.46 72.821a12.741 12.741 0 01-1.67 4.15c-.37.595.572 1.139.938.547a13.679 13.679 0 001.779-4.407c.145-.684-.902-.974-1.046-.29zM68.085 79.37a12.732 12.732 0 01-.21 4.467c-.152.684.914.89 1.067.21.35-1.566.431-3.156.23-4.75-.089-.692-1.175-.62-1.087.073zM69.111 57.202a17.015 17.015 0 01-5.357-2.515c-.575-.403-1.114.539-.547.938a17.826 17.826 0 005.615 2.624c.676.18.962-.866.29-1.047zM57.118 64.41a58.694 58.694 0 01-5.377 5.26c-.531.459.242 1.224.769.769a58.727 58.727 0 005.377-5.265c.467-.519-.302-1.288-.769-.764M45.129 75.223l2.873-4c.41-.568-.531-1.112-.938-.548-.958 1.332-1.915 2.668-2.873 4-.41.572.531 1.111.938.548zM50.61 62.538c-1.928.225-3.86.447-5.787.672-.688.076-.696 1.163 0 1.083 1.928-.222 3.86-.443 5.787-.669.689-.08.697-1.167 0-1.086zM37.691 57.23c1.228.62 2.451 1.235 3.679 1.851.62.31 1.215-.6.592-.914-1.228-.615-2.451-1.231-3.679-1.847-.616-.31-1.215.596-.592.91zM90.865 84.043a19.798 19.798 0 01-1.714-3.368c-.258-.656-1.216-.141-.962.503a19.68 19.68 0 001.714 3.373c.375.587 1.337.084.962-.508M56.756 84.618a19.85 19.85 0 011.686-3.389c.37-.591-.612-1.058-.978-.47a19.686 19.686 0 00-1.69 3.384c-.25.652.728 1.127.982.475M48.835 49.688a19.997 19.997 0 01-2.716-2.632c-.455-.535-1.196.262-.745.785a19.76 19.76 0 002.713 2.636c.543.439 1.292-.35.748-.789zM51.102 47.748a45.943 45.943 0 007.24 4.87c.616.33 1.163-.608.547-.938a44.655 44.655 0 01-7.019-4.696c-.535-.443-1.308.322-.768.764zM60.016 45.048c-1.006-1.191-1.642-2.575-1.932-4.105-.129-.688-1.175-.394-1.046.29.326 1.715 1.082 3.248 2.21 4.58.45.54 1.215-.233.768-.765zM69.876 38.924A17.902 17.902 0 0171 43.222c.093.693 1.171.56 1.079-.136a19.09 19.09 0 00-1.196-4.572c-.257-.648-1.263-.238-1.006.41M74.952 55.421a20.176 20.176 0 01-2.145-3.827c-.274-.64-1.212-.085-.938.551a20.5 20.5 0 002.145 3.824c.402.563 1.344.024.938-.548zM60.696 57.61a63.585 63.585 0 01-6.552-2.094c-.652-.25-.934.801-.286 1.047a63.203 63.203 0 006.548 2.093c.68.177.966-.87.29-1.047M61.892 69.212a36.218 36.218 0 016.491-5.888c.572-.402.028-1.344-.547-.938a37.333 37.333 0 00-6.713 6.057c-.455.528.31 1.3.769.769M78.16 67.514c-.512-1.191-.717-2.443-.664-3.735.028-.7-1.059-.696-1.087 0-.06 1.493.225 2.914.813 4.282.274.644 1.207.089.938-.547zM50.07 74.901a15.093 15.093 0 01-3.456 5.9c-.48.507.285 1.276.768.765a16.325 16.325 0 003.735-6.375c.21-.668-.837-.954-1.046-.29zM37.932 75.178a8.751 8.751 0 01-3.662 1.417c-.696.1-.459 1.159.23 1.058a9.5 9.5 0 003.94-1.513c.571-.386.076-1.352-.508-.962zM90.567 67.394a34.2 34.2 0 00-3.449-3.425c-.531-.45-1.3.314-.768.769a33.776 33.776 0 013.449 3.425c.462.527 1.227-.242.768-.769zM44.574 56.62a47.9 47.9 0 006.44 2.218c.68.181.965-.865.289-1.046a46.059 46.059 0 01-6.182-2.109c-.636-.27-1.191.668-.547.938zM96.938 60.407c-1.638.25-3.284.402-4.939.467-.696.028-.728 1.115-.028 1.086a47.462 47.462 0 005.228-.499c.693-.104.423-1.155-.261-1.054M84.49 55.353a12.117 12.117 0 01-2.85 2.83c-.571.406.045 1.3.616.893a13.023 13.023 0 003.059-3.014c.406-.568-.415-1.28-.825-.709z"
            fill="#944C24"
        ></path>
        <path
            d="M97.213 114.813c1.15 2.242 3.759 3.835 7.035 3.771 2.157-.044 4.089-1.215 5.554-2.572 1.215-1.123 1.674-2.177 1.404-3.694-.209-1.172-1.489-3.723-5.719-4.311-2.431-.338-5.192-.378-7.035 1.023-1.666 1.263-2.386 3.537-1.24 5.783M47.149 117.499c.455.543 1.09.97 1.747 1.348 1.984 1.147 4.487 1.968 6.821 1.429 1.65-.383 2.942-.894 4.21-2.355 1.272-1.457.978-4.262.286-5.501-.692-1.244-2.986-3.53-7.023-3.514-2.451.008-6.19 1.505-7.244 4.081-.628 1.546.615 3.807 1.203 4.512z"
            fill="#C96331"
        ></path>
        <path
            d="M92.306 117.229c-3.1-3.501-7.848-5.333-12.525-5.317-5.775.021-14.658 3.248-16.694 10.312-.576 1.996-.29 4.141.322 6.125 1.211 3.928 3.215 7.591 6.44 10.356 3.219 2.769 9.513 4.705 15.196 2.145 5.683-2.556 8.621-6.927 9.97-10.549 1.63-4.379.394-9.575-2.71-13.072"
            fill="#E4B877"
        ></path>
        <path
            d="M108.569 103.238c-.269-1.698-.909-4.841-4.29-4.785-3.381.06-3.98 5.812-3.445 7.51.531 1.694 1.421 4.761 4.649 4.475 3.227-.289 3.356-5.505 3.086-7.2M49.447 99.104c-3.477.83-3.827 6.963-2.865 8.971 1.509 3.139 3.996 3.505 5.892 2.338 3.481-2.149 1.843-12.472-3.027-11.309"
            fill="#1F1611"
        ></path>
        <path
            d="M86.498 117.648c-1.534 1.175-3.296 5.288-7.744 5.26-4.443-.028-5.743-4.339-7.654-5.152-.825-.354-1.916-.378-2.496.31-.583.684-.137 2.419 1.815 3.602 1.952 1.179 3.764 2.918 8.32 2.854 4.551-.065 7.9-2.282 10.057-4.383.596-.58 1.207-1.26 1.227-2.089.02-.829-1.513-1.94-3.525-.402"
            fill="#221A15"
        ></path>
        <path
            d="M90.813 130.7c-2.242 4.516-8.404 6.298-11.326 1.505.733-2.427.46-5.437.319-7.759-.355.032-.7.072-1.067.08-.125 0-.225-.012-.346-.012.165 2.487.608 6.866-.845 8.81-1.43 1.912-4.5 2.222-6.472 1.103-1.783-1.019-2.87-2.886-3.763-4.661-.407-.813-1.63-.096-1.224.717 2.101 4.173 6.182 7.86 10.964 5.038.772-.454 1.34-1.07 1.767-1.787 3.65 4.697 10.609 2.934 13.217-2.318.406-.813-.818-1.533-1.224-.716"
            fill="#1F1611"
        ></path>
        <path fill="#fff" fill-opacity="0.01" d="M149 149h1v1h-1z"></path>
    </svg>