<svg
        xmlns="http://www.w3.org/2000/svg"
        width="150"
        height="150"
        viewBox="0 0 150 150"
        fill="none"
        style="width: 4rem; height: 4rem; background: none"
    >
        <path
            d="M120.407 55.314c-2.271-9.836-11.72-23.437-38.503-22.433-23.425.879-35.689 10.149-40.61 22.317-4.927 12.17-1.493 30.155-2.896 45.255-1.493 15.931-8.057 29.191-19.777 42.25 11.054 7.365 25.355 6.894 37.667 5.385 19.35-2.368 35.315-7.328 48.379-21.793 9.379-10.378 13.73-22.395 15.404-33.814 2.011-13.732 3.349-24.11.336-37.167"
            fill="#D7D0CA"
        ></path>
        <path
            d="M87.187 104.576c2.135-3.957 7.228-13.989 10-28.795 2.22-11.852 9.855-23.475 20.813-26.824-4.483-8.433-14.8-16.867-36.096-16.069-14.726.553-25.032 4.425-31.884 10.245 6.783 9.975 4.24 34.096-.493 50.943-7.498 26.716-24.417 45.276-30.903 48.635 26.59-.463 36.361-9.664 50.52-19.149 6.306-4.227 14.445-12.303 18.043-18.986"
            fill="#86675D"
        ></path>
        <path
            d="M114.861 54.592c-7.602 7.689-15.018 16.436-16.928 27.082-1.481 8.286-.772 15.502-3.322 23.522-3.068 9.654-18.578 21.437-19.028 23.343 14.225-2.354 30.19-16.216 35.935-30.826 2.296-5.833 2.904-12.176 3.486-18.42.772-8.231 1.534-16.607-.143-24.7M49.374 52.125c-3.52 5-6.829 10.291-7.997 16.294-4.281 21.964 2.881 30.87-4.801 49.94 2.194-1.919 6.676-13.119 8.507-18.383 4.526-13.035 9.387-33.311 4.29-47.85"
            fill="#515254"
        ></path>
        <path
            d="M33.994 136.272a52.487 52.487 0 005.843-3.68c.883-.644-.217-1.938-1.1-1.298a48.252 48.252 0 01-5.472 3.437c-.96.519-.236 2.064.729 1.541M44.86 133.584a22.098 22.098 0 005.721-4.012c.782-.757-.313-2.064-1.105-1.299a20.584 20.584 0 01-5.345 3.774c-.983.481-.26 2.018.729 1.537zM45.63 127.512c1.7-1.126 2.946-2.592 4.304-4.077.728-.799-.361-2.112-1.1-1.299-1.358 1.485-2.604 2.952-4.299 4.077-.913.608.196 1.901 1.095 1.299zM39.248 127.727a22.768 22.768 0 003.258-3.013c.726-.822-.673-1.789-1.394-.976-.89 1.009-1.898 1.873-2.967 2.69-.872.663.227 1.962 1.103 1.299zM84.103 75.302c.888-2.531 1.561-5.07 1.929-7.728.153-1.087-1.542-1.242-1.695-.16-.352 2.513-.99 4.904-1.827 7.298-.367 1.035 1.23 1.626 1.593.59zM63.64 93.582c1.101-2.363 1.998-4.755 2.606-7.291.26-1.055-1.335-1.653-1.59-.588-.617 2.536-1.51 4.923-2.61 7.29-.464.995 1.14 1.58 1.594.59zM48.791 117.789c1.455-1.079 2.504-2.583 3.366-4.157.524-.953-.867-1.938-1.391-.976-.799 1.457-1.73 2.835-3.077 3.839-.881.654.22 1.948 1.102 1.294M56.427 125.173c2.231-1.42 4.1-3.246 5.509-5.488.58-.924-.808-1.905-1.393-.976-1.245 1.98-2.871 3.666-4.85 4.928-.907.579-.193 2.125.734 1.536M59.385 113.54c1.897-1.518 3.183-3.769 4.027-6.021.383-1.027-1.216-1.616-1.599-.588-.74 1.985-1.852 3.97-3.53 5.31-.855.687.243 1.986 1.102 1.299zM60.826 102.767c.794-1.187 1.498-2.499 1.985-3.849.367-1.032-1.23-1.62-1.598-.589-.442 1.22-1.067 2.387-1.787 3.461-.605.911.784 1.892 1.4.977zM53.869 108.807c1.034-1.299 1.9-2.653 2.56-4.181.439-1.009-1.162-1.592-1.595-.588-.606 1.396-1.413 2.606-2.363 3.792-.68.855.718 1.831 1.398.977zM67.489 101.332c1.373-1.807 2.38-3.857 3.061-6.02.326-1.046-1.267-1.64-1.598-.593-.646 2.04-1.558 3.932-2.86 5.637-.662.873.736 1.845 1.397.976zM65.995 115.161a14.5 14.5 0 003.417-4.656c.466-.99-1.136-1.574-1.6-.588a12.347 12.347 0 01-2.918 3.946c-.8.738.29 2.041 1.1 1.298M75.398 100.906a38.141 38.141 0 002.908-4.932c.486-.986-1.118-1.565-1.598-.593A34.773 34.773 0 0174 99.93c-.632.897.764 1.873 1.397.976zM81.146 93.542c1.013-1.523 1.72-3.143 2.33-4.862.372-1.032-1.226-1.625-1.592-.589-.565 1.584-1.196 3.07-2.138 4.475-.605.911.784 1.887 1.4.976zM72.117 89.31c.397-.752.759-1.513 1.03-2.326.347-1.037-1.246-1.63-1.598-.588a12.554 12.554 0 01-.83 1.938c-.502.957.885 1.943 1.398.976zM71.374 106.475c.497-.602.95-1.228 1.341-1.901.543-.948-.849-1.929-1.397-.98a14.032 14.032 0 01-1.336 1.905c-.693.85.703 1.822 1.392.976M55.15 120.419a15.544 15.544 0 001.75-1.854c.675-.86-.72-1.835-1.4-.976a12.519 12.519 0 01-1.449 1.532c-.808.738.29 2.041 1.099 1.298M78.645 85.483c1.08-1.794 1.72-3.755 2.181-5.787.244-1.064-1.45-1.214-1.694-.159-.39 1.729-.964 3.443-1.882 4.97-.563.934.832 1.915 1.395.976zM87.043 79.835c.547-1.322 1.018-2.653 1.315-4.055.225-1.072-1.469-1.221-1.694-.161-.266 1.25-.732 2.445-1.219 3.623-.414 1.018 1.183 1.602 1.598.593M70.399 82.087c1.02-2.083 1.753-4.269 2.275-6.53.241-1.055-1.35-1.656-1.597-.591a30.332 30.332 0 01-2.275 6.532c-.482.986 1.12 1.565 1.597.588M89.84 64.434c-.19.986-.473 1.936-.838 2.875-.385 1.026 1.213 1.615 1.598.59.411-1.076.714-2.175.935-3.305.216-1.075-1.484-1.225-1.695-.16M87.032 63.055a17.03 17.03 0 00.88-4.404c.077-1.092-1.616-1.254-1.693-.16a15.476 15.476 0 01-.783 3.973c-.358 1.037 1.238 1.63 1.596.59M80.616 62.722a27.813 27.813 0 001.422-6.186c.127-1.09-1.57-1.249-1.697-.16a25.449 25.449 0 01-1.325 5.755c-.366 1.034 1.234 1.624 1.6.59M74.14 55.427c.17-.932.341-1.865.513-2.796.196-1.08-1.5-1.23-1.697-.161-.171.932-.337 1.864-.514 2.796-.196 1.079 1.5 1.23 1.697.16zM68.001 59.004a32.277 32.277 0 001.285-5.746c.135-1.09-1.56-1.246-1.695-.161a29.74 29.74 0 01-1.185 5.316c-.335 1.042 1.26 1.635 1.595.591zM79.099 45.336a27.934 27.934 0 01-.878 4.177c-.31 1.049 1.283 1.644 1.598.591a30.4 30.4 0 00.974-4.607c.147-1.09-1.547-1.245-1.694-.161M92.464 52.01c-.186 1.823-.557 3.639-1.19 5.362-.377 1.03 1.22 1.62 1.597.59.685-1.854 1.087-3.83 1.288-5.792.119-1.091-1.577-1.25-1.695-.16M63.353 75.763c-.278 1.811-.756 3.605-1.472 5.29-.438 1.014 1.164 1.598 1.597.594.776-1.817 1.268-3.774 1.572-5.724.169-1.084-1.527-1.239-1.697-.16zM73.447 63.943c-.186 1.824-.554 3.639-1.188 5.362-.378 1.03 1.218 1.62 1.596.592.68-1.855 1.088-3.832 1.29-5.793.115-1.092-1.582-1.25-1.698-.161M88.347 51.185l.769-3.528c.236-1.07-1.465-1.218-1.696-.16l-.768 3.527c-.236 1.07 1.465 1.218 1.695.16zM96.317 45.486c.672-1.945.998-3.976 1.184-6.02.104-1.092-1.593-1.252-1.697-.16-.17 1.902-.455 3.778-1.086 5.589-.357 1.035 1.236 1.627 1.599.59zM91.038 39.979c.452-1.355.74-2.746.874-4.168.097-1.093-1.599-1.252-1.696-.161a16.864 16.864 0 01-.771 3.738c-.35 1.04 1.249 1.631 1.593.59zM84.406 41.013c.357-1.145.545-2.286.591-3.483.046-1.093-1.651-1.257-1.692-.16-.046 1.05-.183 2.045-.494 3.053-.326 1.044 1.269 1.638 1.595.59M67.214 68.9c.354-1.145.539-2.287.594-3.484.045-1.092-1.653-1.256-1.697-.16-.04 1.05-.185 2.046-.495 3.053-.324 1.044 1.273 1.639 1.598.591M77.56 74.672c.466-1.105.739-2.232.906-3.416.151-1.088-1.543-1.243-1.694-.16a11.367 11.367 0 01-.81 2.986c-.425 1.012 1.174 1.598 1.598.59zM58.389 96.302c.563-1.06.969-2.125 1.245-3.297.248-1.055-1.349-1.658-1.596-.593-.237 1.018-.553 1.99-1.048 2.914-.509.958.88 1.943 1.399.976zM76.025 41.687c.373-1.911.53-3.715.444-5.662-.05-1.09-1.72-.782-1.675.297.076 1.78-.121 3.459-.46 5.204-.206 1.076 1.489 1.227 1.69.16M70.065 44.383c.39-1.371.626-2.75.716-4.173.07-1.092-1.618-1.258-1.693-.16a17.903 17.903 0 01-.616 3.743c-.29 1.05 1.302 1.646 1.593.59z"
            fill="#423934"
        ></path>
        <path
            d="M50.025 43.121c3.91-3.324 8.997-5.98 15.346-7.777C64.938 21.879 55.23 7.627 46.58.999c-4.94 7.927-6.34 16.043-4.99 24.632 1.577 10.116 8.707 17.898 8.434 17.49z"
            fill="#86675D"
        ></path>
        <path
            d="M54.148 40.168a39.795 39.795 0 014.957-2.642c-.182-9.03-3.036-15.632-9.85-23.394-3.383 3.94-3.22 10.053-2.143 15.129 1.022 4.839 3.649 7.85 7.036 10.907z"
            fill="#332E2C"
        ></path>
        <path
            d="M136.914 8.51c-1.782-1.263-16.454 3.51-23.619 12.043-4.079 4.862-6.48 10.859-8.528 16.182.038.017.07.037.108.055 6.584 3.1 10.707 7.623 13.124 12.16 5.362-3.873 10.267-7.05 13.825-11.49 6.307-7.877 7.888-19.528 5.09-28.95"
            fill="#86675D"
        ></path>
        <path
            d="M110.19 39.915a27.588 27.588 0 015.264 5.139c.011.018.032.041.043.06.188.239.382.474.559.714.017.025.033.042.049.066 4.968-2.715 7.307-5.92 9.555-9.245 3.404-5.031 5.092-11.526 5.092-17.424-12.867 1.609-18.895 15.127-20.562 20.69z"
            fill="#332E2C"
        ></path>
        <path
            d="M103.283 78.672c-.625 2.19-1.607 9.131 2.988 8.954 3.571-.136 4.055-6.227 3.02-9.333-1.234-3.702-5.352-1.919-6.008.379zM46.879 75.43c-1.063-1.41-3.489-1.03-4.565.368-1.087 1.401-1.438 6.983 2.08 7.445 3.522.463 4-5.366 2.485-7.813M12.363 137.261c-1.91 1.752-1.654 3.816-.209 5.969 1.27 1.901 3.593 3.172 5.811 3.069 2.223-.108 5.143-2.088 6.133-4.545 2.759-6.856-8.669-7.295-11.735-4.493"
            fill="#1F1611"
        ></path>
        <path fill="#fff" fill-opacity="0.01" d="M149 149h1v1h-1z"></path>
    </svg>