 <svg
        xmlns="http://www.w3.org/2000/svg"
        width="150"
        height="150"
        viewBox="0 0 150 150"
        fill="none"
        style="width: 4rem; height: 4rem; background: none"
    >
        <path
            d="M103.265 22.3c-9.422-3.818-29.556-5.353-39.176-4.05C7.465 25.925 8.328 67.526 15.3 92.77c5.638 20.416 15.071 32.058 34.965 39.328 14.87 5.43 38.649 6.273 53.183 0 17.495-7.556 32.234-22.702 34.008-41.678 4.82-51.55-23.678-63.857-34.191-68.12z"
            fill="#FCDCE1"
        ></path>
        <path
            d="M27.843 40.425c-1.755 3.794-2.755 7.826-2.903 12.007-.027.77 1.162.765 1.19 0a29.623 29.623 0 012.74-11.41c.32-.688-.706-1.294-1.027-.597zM41.434 31.653v9.133c0 .77 1.19.77 1.19 0v-9.133c0-.77-1.19-.77-1.19 0zM53.025 43.79l1.123 7.85c.108.755 1.254.432 1.147-.315l-1.123-7.853c-.107-.756-1.254-.433-1.147.319M63.98 27.424l1.302 9.128c.107.756 1.254.437 1.146-.314l-1.3-9.129c-.109-.756-1.255-.432-1.148.315zM71.618 53.87l1.27 9.132c.106.757 1.252.433 1.147-.314l-1.27-9.133c-.105-.756-1.251-.432-1.147.315M82.447 38.326c.732 3.835 1.465 7.666 2.199 11.497.144.756 1.29.432 1.146-.315-.732-3.835-1.465-7.666-2.198-11.496-.144-.752-1.29-.433-1.147.314zM90.322 26.927a34.469 34.469 0 014.85 8.6c.273.71 1.424.401 1.147-.314a35.525 35.525 0 00-4.969-8.887c-.46-.601-1.494-.009-1.028.601zM104.973 45.156a71.496 71.496 0 013.138 9.447c.191.743 1.338.429 1.147-.314a70.982 70.982 0 00-3.138-9.447c-.288-.701-1.439-.396-1.147.314zM114.21 37.198a108.969 108.969 0 015.412 10.222c.323.692 1.348.09 1.028-.602a109.225 109.225 0 00-5.413-10.221c-.394-.656-1.423-.06-1.027.601zM130.883 65.713a34.62 34.62 0 00-3.145-8.896c-.351-.683-1.378-.082-1.028.602a33.371 33.371 0 013.026 8.613c.155.752 1.301.433 1.147-.319M18.086 59.78a41.725 41.725 0 00-.082 14.94c.132.756 1.278.437 1.147-.314a40.06 40.06 0 01.082-14.312c.14-.752-1.006-1.07-1.147-.315M23.027 94.865c.88 3.302 2.257 6.34 3.836 9.36.356.679 1.383.078 1.028-.601-1.532-2.924-2.864-5.876-3.717-9.078-.197-.738-1.345-.424-1.147.319zM36.889 62.595c.1 3.343.488 6.641 1.163 9.92.155.748 1.302.429 1.147-.318a55.622 55.622 0 01-1.12-9.602c-.023-.77-1.213-.77-1.19 0M55.262 70.706a65.65 65.65 0 00.948 11.506c.129.756 1.275.437 1.147-.314a63.84 63.84 0 01-.905-11.192c.005-.765-1.185-.765-1.19 0M68.444 74.178l.36 9.775c.028.766 1.218.766 1.19 0l-.36-9.775c-.029-.765-1.219-.77-1.19 0zM60.596 95.32l.904 8.605c.08.752 1.27.761 1.19 0l-.905-8.604c-.08-.752-1.27-.761-1.19 0M47.396 101.035a139.825 139.825 0 01-2.075-9.762c-.132-.751-1.279-.432-1.147.32a139.55 139.55 0 002.074 9.761c.187.742 1.335.428 1.148-.319zM84.673 100.062c.365-3.102.462-6.2.25-9.315-.05-.766-1.24-.77-1.189 0 .21 3.115.115 6.213-.25 9.315-.09.76 1.1.751 1.19 0M90.525 70.468a40.286 40.286 0 011.766 9.624c.046.766 1.235.77 1.19 0a41.628 41.628 0 00-1.81-9.939c-.227-.729-1.375-.419-1.146.315M108.156 92.434a69.81 69.81 0 00-1.001-13.378c-.129-.756-1.276-.438-1.147.314a68.052 68.052 0 01.958 13.064c-.017.765 1.173.765 1.19 0M124.974 84.904c.21-3.37.015-6.695-.566-10.02-.132-.752-1.278-.433-1.148.318.563 3.22.728 6.441.524 9.702-.047.766 1.143.761 1.19 0zM131.028 103.503a71.972 71.972 0 002.202-9.843c.114-.752-1.033-1.075-1.147-.32a72.046 72.046 0 01-2.202 9.849c-.22.738.929 1.048 1.147.314M116.98 100.32c.316 3.457.436 6.919.361 10.39-.017.769 1.173.765 1.19 0a92.629 92.629 0 00-.361-10.39c-.069-.757-1.259-.766-1.19 0M102.95 106.064l-.483 9.879c-.038.766 1.152.761 1.189 0l.485-9.879c.037-.766-1.153-.766-1.191 0zM88.016 111.28a63.126 63.126 0 01-1.003 10.049c-.136.747 1.01 1.07 1.147.314.624-3.43.975-6.878 1.046-10.363.016-.765-1.174-.765-1.19 0M66.627 113.928a50.406 50.406 0 001.248 9.611c.172.747 1.319.428 1.148-.319a48.653 48.653 0 01-1.206-9.292c-.026-.765-1.215-.77-1.19 0zM54.548 120.338a26.784 26.784 0 004.195 10.431c.425.633 1.456.037 1.027-.601a25.971 25.971 0 01-4.074-10.149c-.131-.756-1.278-.432-1.148.319zM37.046 110.234a45.897 45.897 0 004.808 9.261c.426.633 1.458.041 1.027-.597a44.69 44.69 0 01-4.688-8.978c-.272-.71-1.422-.401-1.147.314M97.34 130.3c.39-3.147.559-6.295.51-9.465-.01-.766-1.2-.766-1.189 0 .048 3.17-.12 6.318-.512 9.465-.094.761 1.096.752 1.19 0zM111.431 117.287a59.767 59.767 0 01-1.13 8.336c-.157.747.99 1.066 1.146.319.596-2.861.986-5.74 1.173-8.655.049-.77-1.141-.761-1.189 0zM80.442 133.59c.796-3.253.462-6.878.624-10.199.037-.77-1.152-.765-1.19 0-.157 3.207.186 6.746-.58 9.884-.183.743.964 1.062 1.146.315"
            fill="#FAC0C7"
        ></path>
        <path
            d="M40.901 106.964c1.522-7.885-5.154-8.95-8.412-9.716-3.259-.76-7.35 1.69-8.176 6.076-.825 4.391.929 7.671 4.773 8.878 3.845 1.203 10.293 2.646 11.815-5.238M125.886 103.775c-1.318-5.79-10.639-6.168-15.827-2.829-5.188 3.339-2.493 11.998 3.635 14.216 6.127 2.214 13.51-5.602 12.192-11.387z"
            fill="#F9B3BF"
        ></path>
        <path
            d="M121.389 56.802c-6.931-5.699-17.887-12.02-28.172-8.76-10.284 3.262-10.168 18.699-8.841 23.39 1.895 6.71 4.063 13.547 8.462 18.954 4.398 5.402 11.456 6.546 18.342 5.48 12.213-1.895 16.183-17.414 16.183-22.639 0-6.536-.604-12.011-5.974-16.425zM67.562 53.984c-1.435-2.71-4.211-4.45-7.042-5.63-11.972-4.983-27.004-1.239-35.238 8.778-1.71 2.081-2.976 4.51-3.594 7.128-4.527 19.218 6.393 29.162 20.463 29.376 9.45.14 18.91-14.576 24.195-26.26 1.916-4.236 3.391-9.288 1.216-13.392M74.469 74.254c-2.48-.738-5.658.88-5.778 3.462-.106 2.314 1.596 3.28 4.778 3.33 3.183.045 4.197-1.126 4.217-2.925.02-1.803-1.49-3.357-3.217-3.867"
            fill="#1F1611"
        ></path>
        <path
            d="M73.064 79.753a373.632 373.632 0 00-.696 31.575c.015.766 1.205.766 1.19 0a374.01 374.01 0 01.696-31.575c.05-.765-1.14-.76-1.19 0z"
            fill="#1F1611"
        ></path>
        <path
            d="M67.528 112.322c3.775.92 7.273.874 10.987-.401.72-.251.41-1.399-.317-1.148-3.518 1.212-6.78 1.275-10.354.401-.745-.182-1.061.965-.316 1.148zM124.266 36.418c3.445-3.184 7.245-8.008 6.446-12.859-.833-5.051-5.154-9.228-10.167-10.28-5.014-1.048-9.287.938-12.824 4.646-1.634 1.712-2.918 3.047-4.096 4.523 4.911 2 13.346 5.712 20.641 13.97z"
            fill="#1F1611"
        ></path>
        <path
            d="M120.56 32.672c1.463-.82 3.764-2.893 4.517-3.94 1.045-1.453 1.337-3.312 1.455-5.097.045-.684.069-1.376-.093-2.04-.356-1.463-1.604-2.606-3.026-3.112-1.422-.501-2.992-.433-4.465-.105-3.813.848-7.192 3.471-8.955 6.96 0 0 .189.105.501.287 3.142 1.686 6.641 3.95 10.066 7.047z"
            fill="#B59791"
        ></path>
        <path
            d="M21.05 39.691c4.214-5.684 10.16-10.704 18.338-14.571-2.036-3.726-5.656-9.101-12.755-10.13-6.768-.984-16.417 5.005-12.686 15.254.88 2.419 4.699 7.758 7.102 9.447z"
            fill="#1F1611"
        ></path>
        <path
            d="M24.437 35.68c2.758-2.897 6.057-5.562 9.985-7.912-.463-1.308-1.956-3.462-3.128-4.6-1.868-1.814-4.336-3.45-6.896-2.97-2.046.382-3.654 2.24-3.903 4.304-.746 6.19 2.521 9.884 3.942 11.178"
            fill="#B59791"
        ></path>
        <path
            d="M100.34 65.81c1.683 3.202 4.854 6.933 8.968 6.099 3.536-.72 5.124-4.031 6.239-7.133.321-.898-1.098-1.276-1.416-.392-.863 2.405-1.985 5.065-4.59 5.98-3.611 1.267-6.521-2.61-7.933-5.292-.441-.843-1.708-.1-1.268.738M31.303 65.61c.707 4.227 3.474 8.267 8.195 7.884 4.017-.323 6.414-5.17 7.327-8.563.246-.916-1.17-1.303-1.416-.387-.725 2.692-2.133 5.493-4.566 6.996-4.35 2.688-7.544-2.851-8.124-6.322-.155-.93-1.57-.533-1.416.392"
            fill="#fff"
        ></path>
        <path fill="#fff" fill-opacity="0.01" d="M149 149h1v1h-1z"></path>
    </svg>
