 <svg
        xmlns="http://www.w3.org/2000/svg"
        width="150"
        height="150"
        viewBox="0 0 150 150"
        fill="none"
        style="width: 4rem; height: 4rem; background: none"
    >
        <path
            d="M115.619 32.96C97.997 17.642 71.412 13.525 49.982 22.796 26.851 32.8 11.101 58.625 14.448 83.604c.815 6.083-.078 40.884 40.512 50.892 10.21 2.521 22.8 3.315 33.169 1.564 5.587-.947 11.199-2.002 16.469-4.08 14.975-5.9 25.96-19.919 30.231-35.44 6.195-22.51-1.587-48.26-19.21-63.58"
            fill="#B1D3CB"
        ></path>
        <path
            d="M52.216 26.581l-.095 2.89c-.024.742 1.132.742 1.155 0l.095-2.89c.024-.742-1.13-.742-1.155 0zM62.035 23.848a14.96 14.96 0 00.087 5.191c.14.733 1.255.42 1.115-.308a13.26 13.26 0 01-.087-4.575c.113-.728-1-1.04-1.114-.308M35.414 38.838a15.22 15.22 0 01-.003 5.602c-.134.728.979 1.036 1.114.308.386-2.082.39-4.14.003-6.218-.136-.728-1.25-.42-1.114.308M30.7 41.233l.209 3.67c.042.737 1.197.741 1.155 0l-.208-3.67c-.042-.738-1.198-.742-1.156 0zM40.36 37.363l.362 6.676c.04.737 1.195.742 1.155 0l-.36-6.676c-.04-.737-1.196-.742-1.156 0zM18.16 71.567a18.825 18.825 0 01-.108-6.363c.112-.728-1.001-1.04-1.115-.308-.36 2.344-.327 4.65.109 6.98.137.732 1.25.42 1.114-.309M70.429 132.902a18.849 18.849 0 01-.108-6.367c.112-.729-1.001-1.041-1.114-.308a20.531 20.531 0 00.108 6.978c.136.733 1.25.425 1.114-.303zM18.688 83.678a18.861 18.861 0 01-.108-6.367c.113-.728-1-1.041-1.114-.304a20.55 20.55 0 00.109 6.98c.136.728 1.25.42 1.113-.309zM21.62 65.977v4.178c0 .747 1.156.747 1.156 0v-4.178c0-.747-1.155-.747-1.155 0zM128.924 57.651c.569 2.12.756 4.253.574 6.443-.061.742 1.092.737 1.153 0a19.577 19.577 0 00-.611-6.75c-.196-.72-1.307-.416-1.116.307zM128.816 83.588c.215 1.652.262 3.305.15 4.966-.052.743 1.106.738 1.157 0a25.532 25.532 0 00-.149-4.966c-.093-.729-1.251-.738-1.158 0zM80.613 36.205c.266 2.087.331 4.174.186 6.28-.046.741 1.107.737 1.158 0 .14-2.106.08-4.193-.191-6.28-.094-.728-1.247-.737-1.153 0M124.946 96.428c.374 2.404.565 4.818.584 7.25.004.747 1.162.747 1.153 0a51.257 51.257 0 00-.626-7.553c-.112-.733-1.228-.425-1.111.303M101.722 112.401c.373 2.404.565 4.813.583 7.249.005.743 1.163.743 1.153 0a51.12 51.12 0 00-.625-7.557c-.112-.733-1.228-.421-1.111.308M107.212 112.376c.411 1.863.672 3.739.766 5.644.037.742 1.19.747 1.153 0a34.956 34.956 0 00-.808-5.948c-.159-.728-1.274-.42-1.111.304M43.07 114.871v6.092c0 .747 1.156.747 1.156 0v-6.092c0-.742-1.155-.742-1.155 0zM74.382 128.31c.214 1.587.429 3.169.642 4.756.1.733 1.213.421 1.115-.308l-.643-4.752c-.1-.733-1.213-.42-1.114.304M123.602 58.622l.266 4.784c.042.743 1.195.747 1.158 0-.093-1.596-.182-3.193-.271-4.784-.042-.743-1.195-.747-1.153 0zM122.972 83.502c.476 1.961.565 3.931.233 5.924-.117.729.994 1.041 1.116.308.364-2.203.294-4.369-.234-6.54-.177-.719-1.293-.415-1.115.308zM30.5 65.1a18.37 18.37 0 00.33 4.383c.143.728 1.256.42 1.115-.309a17.044 17.044 0 01-.29-4.075c.035-.742-1.12-.742-1.154 0M63.588 128.175l.07 3.987c.014.742 1.169.742 1.155 0-.022-1.33-.046-2.656-.07-3.987-.013-.742-1.168-.742-1.155 0zM79.595 127.828c.458 1.844.607 3.692.458 5.588-.061.737 1.097.737 1.153 0a18.17 18.17 0 00-.5-5.896c-.177-.724-1.293-.416-1.11.308zM57.11 127.624a13.389 13.389 0 00.166 3.189c.123.732 1.236.42 1.114-.309a12.096 12.096 0 01-.125-2.88c.052-.742-1.103-.737-1.155 0zM85.108 128.136v4.831c0 .747 1.158.747 1.158 0v-4.831c0-.743-1.158-.743-1.158 0zM120.568 70.117c-.028 2.04-.052 4.075-.08 6.115-.009.743 1.144.743 1.153 0l.084-6.115c.01-.742-1.148-.742-1.157 0zM92.278 115.407l.084 5.14c.014.742 1.168.747 1.154 0l-.085-5.14c-.009-.742-1.167-.747-1.153 0zM112.576 111.966c.523 1.956.653 3.917.406 5.924-.089.738 1.069.733 1.158 0a16.24 16.24 0 00-.453-6.232c-.192-.714-1.307-.411-1.111.308zM122.364 111.048c.234 1.275.336 2.554.322 3.847-.004.742 1.149.747 1.158 0a21.798 21.798 0 00-.364-4.155c-.135-.728-1.247-.42-1.116.308zM34.149 102.821l.6 6.348c.07.733 1.226.743 1.156 0l-.601-6.348c-.07-.733-1.226-.742-1.155 0zM133.223 83.562c.145 1.63.094 3.25-.177 4.864-.122.729.994 1.041 1.116.308a20.23 20.23 0 00.214-5.172c-.065-.733-1.223-.742-1.153 0zM30.787 108.903a16.66 16.66 0 01-.012-5.144c.113-.729-1-1.041-1.114-.309-.299 1.938-.29 3.828.012 5.761.115.733 1.229.42 1.114-.308M120.329 97.292c.117 1.988.238 3.977.355 5.966.042.737 1.2.742 1.153 0l-.35-5.966c-.042-.738-1.2-.743-1.158 0M117.254 110.957l1.008 6.367c.117.733 1.228.42 1.111-.308a3644.53 3644.53 0 00-1.004-6.363c-.116-.732-1.228-.424-1.115.304M131.384 69.036c.555 2.488.714 4.98.504 7.52-.065.738 1.092.738 1.153 0a25.653 25.653 0 00-.546-7.828c-.159-.724-1.274-.42-1.111.308M126.179 70.835c.308 1.578.308 3.16-.005 4.738-.14.728.971 1.036 1.116.308.35-1.788.355-3.562.005-5.354-.145-.729-1.256-.42-1.116.308M48.607 113.917l.538 6.848c.058.738 1.214.743 1.156 0l-.538-6.848c-.058-.737-1.214-.742-1.156 0zM53.681 116.397l.138 3.744c.027.742 1.182.747 1.155 0l-.137-3.744c-.028-.738-1.183-.742-1.156 0zM28.922 92.229l.162 5.564c.021.742 1.177.747 1.155 0l-.162-5.564c-.021-.743-1.177-.747-1.155 0zM26.737 51.975l.127 4.832c.02.742 1.175.742 1.155 0l-.127-4.832c-.02-.742-1.175-.747-1.155 0zM64.1 37.842c-.04 1.298.077 2.581.335 3.851.147.728 1.261.42 1.114-.303a15.385 15.385 0 01-.294-3.548c.024-.742-1.132-.742-1.154 0zM97.19 26.026c-.024.83.05 1.648.214 2.464.15.729 1.26.42 1.116-.308a9.55 9.55 0 01-.178-2.156c.024-.747-1.13-.747-1.153 0zM130.973 102.115a16.737 16.737 0 00-.331-3.856c-.15-.728-1.265-.42-1.116.308.238 1.177.331 2.348.294 3.548-.023.742 1.13.742 1.153 0zM120.713 46.848a14.145 14.145 0 00.238 5.392c.172.723 1.288.415 1.111-.308a12.548 12.548 0 01-.234-4.776c.103-.728-1.013-1.04-1.115-.308M94.351 28.496a9.538 9.538 0 00-.173-3.725c-.177-.719-1.293-.416-1.11.308a8.111 8.111 0 01.172 3.11c-.107.727 1.008 1.04 1.111.307M114.671 37.36v3.74c0 .742 1.154.742 1.154 0v-3.74c0-.742-1.154-.742-1.154 0zM110.167 35.747c.075 1.783.154 3.571.229 5.354.033.738 1.186.743 1.153 0-.075-1.783-.149-3.57-.229-5.354-.032-.738-1.185-.742-1.153 0zM37.497 115.167l.408 5.341c.057.737 1.212.742 1.155 0l-.407-5.341c-.057-.737-1.213-.742-1.156 0zM22.782 78.136l-.408 5.34c-.056.743 1.1.738 1.155 0 .137-1.778.272-3.557.408-5.34.056-.742-1.1-.738-1.155 0zM104.57 35.138c-.088 2.553.07 5.074.449 7.595.112.733 1.223.425 1.115-.304a39.717 39.717 0 01-.411-7.291c.028-.743-1.125-.743-1.153 0zM86.285 36.398c.103 2.077.201 4.15.304 6.227.032.742 1.19.747 1.153 0-.098-2.077-.201-4.15-.299-6.227-.037-.742-1.19-.742-1.158 0M108.347 71.1c.098 2.078.2 4.15.298 6.228.038.737 1.191.742 1.158 0-.103-2.077-.201-4.15-.299-6.227-.037-.743-1.195-.747-1.157 0zM92.591 37.24c.355 1.927.369 3.855.038 5.788-.127.728.99 1.04 1.115.308a18.224 18.224 0 00-.037-6.405c-.135-.733-1.246-.42-1.116.308M117.426 59.227c.355 1.928.369 3.86.038 5.793-.127.728.989 1.041 1.111.308a18.133 18.133 0 00-.033-6.405c-.135-.732-1.247-.424-1.116.304M22.878 57.401a14.875 14.875 0 01-.033-5.224c.125-.723-.988-1.036-1.114-.303a16.546 16.546 0 00.032 5.835c.134.728 1.248.42 1.115-.308zM51.916 37.064c.614 1.923.877 3.874.792 5.891-.03.742 1.125.742 1.155 0a17.776 17.776 0 00-.832-6.2c-.226-.704-1.341-.4-1.114.309M91.574 126.28c.518 2.087.723 4.188.653 6.335-.023.742 1.135.742 1.158 0 .07-2.25-.159-4.458-.696-6.643-.177-.723-1.293-.415-1.115.308zM115.577 47.013c.616 1.923.878 3.875.794 5.891-.033.742 1.125.742 1.153 0a17.811 17.811 0 00-.831-6.2c-.229-.704-1.345-.4-1.116.309M74.591 35.84c.467 2.222.748 4.453.848 6.722.033.738 1.188.742 1.156 0a43.313 43.313 0 00-.89-7.03c-.153-.728-1.267-.42-1.114.308zM82.951 24.004a10.822 10.822 0 00.51 4.402c.237.7 1.353.402 1.115-.308a9.983 9.983 0 01-.471-4.094c.07-.737-1.088-.733-1.154 0M69.46 37.378a10.72 10.72 0 00.512 4.397c.233.705 1.35.401 1.114-.303a9.895 9.895 0 01-.47-4.094c.067-.743-1.088-.738-1.156 0zM51.782 102.866c.268 2.086.33 4.173.188 6.278-.05.743 1.105.738 1.155 0 .142-2.105.08-4.192-.188-6.278-.093-.729-1.249-.738-1.155 0zM56.385 103.21l.299 6.227c.036.738 1.19.742 1.155 0l-.299-6.227c-.035-.742-1.19-.747-1.155 0zM46.086 103.245c.204 2.003.22 4.001.047 6.008-.064.738 1.091.733 1.155 0a31.936 31.936 0 00-.047-6.008c-.074-.733-1.23-.742-1.155 0zM40.63 104.038a10.702 10.702 0 00.511 4.397c.234.705 1.35.402 1.114-.303a9.906 9.906 0 01-.47-4.094c.068-.742-1.089-.738-1.155 0zM105.252 83.426c.266 2.087.331 4.173.187 6.279-.052.737 1.106.737 1.157 0a32.05 32.05 0 00-.191-6.28c-.093-.727-1.246-.737-1.153 0M110.923 83.616c.103 2.078.201 4.15.299 6.228.037.737 1.19.742 1.158 0-.098-2.078-.201-4.15-.299-6.228-.038-.742-1.191-.747-1.158 0zM117.23 84.45c.355 1.932.369 3.86.037 5.793-.126.728.99 1.04 1.111.308a18.11 18.11 0 00-.032-6.405c-.136-.733-1.247-.42-1.116.304M99.841 82.907a41.79 41.79 0 01.85 6.722c.033.737 1.186.742 1.153 0a43.496 43.496 0 00-.887-7.03c-.154-.724-1.27-.42-1.116.308M95.103 84.604a10.73 10.73 0 00.513 4.398c.234.705 1.35.401 1.111-.308a9.952 9.952 0 01-.471-4.09c.07-.742-1.088-.737-1.153 0M75.267 117.552a10.72 10.72 0 00.512 4.397c.233.7 1.35.402 1.114-.308a9.88 9.88 0 01-.47-4.089c.067-.742-1.088-.738-1.156 0M104.911 49.16c.271 2.092.332 4.179.191 6.28-.051.742 1.102.742 1.154 0 .144-2.101.079-4.188-.187-6.28-.094-.727-1.251-.737-1.158 0M69.862 115.093l.3 6.227c.035.743 1.19.747 1.155 0l-.299-6.227c-.036-.737-1.191-.742-1.156 0zM63.526 114.543c.468 2.222.749 4.454.85 6.722.031.738 1.187.743 1.155 0a43.249 43.249 0 00-.89-7.03c-.154-.728-1.267-.42-1.115.308zM58.396 116.081a10.713 10.713 0 00.512 4.397c.233.705 1.35.402 1.113-.303a9.912 9.912 0 01-.47-4.094c.068-.742-1.088-.738-1.155 0zM90.075 61.255v5.63c0 .747 1.153.747 1.153 0v-5.63c0-.747-1.153-.747-1.153 0zM94.987 61.51l.224 5.494c.028.742 1.186.747 1.153 0-.075-1.835-.145-3.665-.22-5.494-.032-.743-1.185-.747-1.157 0zM99.766 62.166l.14 3.744c.028.737 1.182.742 1.154 0-.042-1.251-.089-2.497-.136-3.744-.028-.742-1.18-.747-1.158 0M110.074 60.153c.466 2.222.747 4.458.845 6.722.032.742 1.19.747 1.157 0a42.852 42.852 0 00-.891-7.025c-.15-.729-1.265-.42-1.111.303zM104.332 61.692a10.65 10.65 0 00.509 4.402c.233.7 1.349.401 1.115-.308a9.908 9.908 0 01-.471-4.094c.07-.738-1.088-.733-1.153 0M77.314 22.718c.083 1.952.162 3.903.241 5.854.033.742 1.186.742 1.158 0-.084-1.951-.163-3.902-.243-5.854-.032-.737-1.187-.742-1.156 0M72.662 23.321a15.075 15.075 0 00.534 4.659c.197.719 1.311.415 1.114-.304a14.085 14.085 0 01-.493-4.355c.031-.742-1.124-.742-1.155 0M18.72 92.18a15.102 15.102 0 00.534 4.659c.197.714 1.312.41 1.114-.308a14.036 14.036 0 01-.492-4.35c.03-.748-1.124-.743-1.155 0zM48.21 27.525c-.04.943.07 1.876.32 2.787.197.714 1.312.41 1.114-.309a7.993 7.993 0 01-.28-2.478c.032-.747-1.124-.742-1.155 0M57.464 38.761a15.135 15.135 0 00.534 4.664c.197.714 1.311.41 1.114-.308a14.05 14.05 0 01-.493-4.356c.031-.742-1.124-.742-1.155 0M66.857 23.747v4.77c0 .743 1.155.743 1.155 0v-4.77c0-.742-1.155-.742-1.155 0zM88.017 24.365c-.019 1.49.29 2.904.892 4.258.303.681 1.297.093.998-.58a8.682 8.682 0 01-.732-3.678c.009-.747-1.144-.747-1.158 0zM115.321 76.856a9.542 9.542 0 00-.173-3.726c-.182-.719-1.293-.415-1.116.308a8.025 8.025 0 01.178 3.11c-.108.728 1.008 1.04 1.111.308M92.699 77.621a9.63 9.63 0 00-.178-3.725c-.177-.724-1.293-.415-1.115.308a8.023 8.023 0 01.177 3.11c-.102.727 1.008 1.04 1.116.307M34.463 92.107a10.726 10.726 0 00.511 4.402c.234.7 1.35.397 1.114-.308a9.903 9.903 0 01-.47-4.094c.067-.737-1.088-.737-1.155 0zM39.88 92.273a10.064 10.064 0 00.152 4.356c.187.718 1.3.415 1.115-.309a8.651 8.651 0 01-.154-3.739c.13-.728-.983-1.04-1.114-.308M28.966 78.545a14.948 14.948 0 00.087 5.191c.14.728 1.254.42 1.114-.303a13.284 13.284 0 01-.087-4.58c.113-.728-1-1.04-1.114-.308M49.883 78.696a10.727 10.727 0 00.511 4.402c.233.7 1.35.401 1.114-.308a9.912 9.912 0 01-.47-4.094c.068-.738-1.088-.733-1.155 0M44.244 77.41c.081 1.951.163 3.902.243 5.854.031.742 1.187.742 1.156 0-.08-1.952-.162-3.903-.243-5.854-.03-.738-1.187-.742-1.156 0zM39.048 78.86a15.118 15.118 0 00.533 4.662c.197.715 1.312.411 1.114-.308a14.065 14.065 0 01-.492-4.355c.031-.742-1.124-.742-1.155 0M33.788 78.434v4.771c0 .742 1.155.742 1.155 0v-4.77c0-.743-1.155-.743-1.155 0zM55.377 78.868a10.08 10.08 0 000 4.36c.158.724 1.272.416 1.113-.308a8.657 8.657 0 010-3.744c.159-.724-.955-1.036-1.114-.308M111.371 49.166a10.022 10.022 0 00-.06 4.36c.149.728 1.26.42 1.115-.309a8.66 8.66 0 01.056-3.743c.173-.724-.943-1.032-1.111-.308M25.342 104.837a10.086 10.086 0 00-.059 4.36c.148.729 1.261.421 1.114-.308a8.66 8.66 0 01.06-3.744c.168-.723-.946-1.031-1.115-.308M116.665 103.029c.341-1.452.36-2.899.061-4.36-.149-.728-1.26-.42-1.116.308a8.645 8.645 0 01-.056 3.744c-.172.723.943 1.031 1.111.308M96.102 49.03c.374 2.203.565 4.407.584 6.638.004.742 1.162.747 1.157 0a43.855 43.855 0 00-.63-6.946c-.121-.728-1.237-.42-1.11.308zM91.49 49.893l.35 5.966c.042.738 1.2.742 1.153 0l-.35-5.966c-.042-.737-1.2-.747-1.153 0zM102.129 54.713a16.665 16.665 0 00-.332-3.851c-.149-.728-1.26-.42-1.116.308.239 1.172.332 2.348.295 3.543-.024.747 1.134.747 1.153 0zM87.825 54.623a10.08 10.08 0 00.056-4.355c-.144-.729-1.26-.42-1.11.308a8.73 8.73 0 01-.061 3.743c-.168.724.943 1.032 1.115.304M86.14 66.789c.34-1.448.36-2.9.06-4.356-.149-.728-1.26-.42-1.115.304a8.656 8.656 0 01-.056 3.744c-.173.723.943 1.036 1.11.308M52.156 127.558c-.003.719.056 1.429.172 2.133.12.733 1.234.421 1.114-.308a11.04 11.04 0 01-.131-1.825c.003-.742-1.153-.742-1.155 0M99.668 130.99a20.01 20.01 0 00-.266-3.38c-.121-.732-1.237-.424-1.115.304.168 1.018.233 2.045.228 3.076-.004.742 1.149.742 1.153 0zM98.618 119.918a10.02 10.02 0 00-.21-4.355c-.192-.715-1.307-.411-1.111.308a8.65 8.65 0 01.205 3.739c-.116.728.995 1.041 1.116.308M126.473 51.758c.215-1.452.215-2.871-.028-4.318-.126-.733-1.237-.42-1.116.308.205 1.223.21 2.474.028 3.702-.107.728 1.004 1.04 1.116.308M32.989 115.171a10.063 10.063 0 00.219 4.355c.197.715 1.312.411 1.114-.308a8.673 8.673 0 01-.22-3.739c.119-.723-.994-1.041-1.113-.308M98.973 37.46c.08 1.676.154 3.352.234 5.032.032.743 1.19.747 1.153 0-.075-1.68-.155-3.356-.234-5.032-.033-.742-1.19-.747-1.153 0zM97.414 71.966c.355 1.928.364 3.86.032 5.788-.121.729.99 1.041 1.116.309.369-2.143.36-4.263-.033-6.405-.135-.733-1.25-.42-1.115.308M102.876 72.194c.079 1.676.154 3.357.233 5.033.033.742 1.19.747 1.158 0l-.238-5.033c-.033-.742-1.186-.746-1.153 0M48.855 91.159c.267 2.09.33 4.178.187 6.278-.05.743 1.106.738 1.156 0 .142-2.1.08-4.187-.188-6.278-.093-.729-1.25-.738-1.155 0zM109.504 97.694a40.92 40.92 0 00.453 7.595c.107.733 1.223.42 1.111-.308a39.224 39.224 0 01-.406-7.287c.023-.747-1.13-.742-1.158 0M54.53 91.351l.297 6.227c.036.742 1.192.747 1.156 0l-.299-6.227c-.035-.738-1.19-.742-1.155 0zM97.53 97.782c.351 1.928.365 3.856.034 5.789-.122.728.99 1.041 1.115.308a18.112 18.112 0 00-.037-6.405c-.13-.733-1.246-.42-1.111.308M103.907 98.009c.08 1.675.159 3.356.234 5.032.037.742 1.19.742 1.158 0-.08-1.676-.159-3.356-.234-5.032-.037-.743-1.19-.747-1.158 0zM81.374 116.351a16.43 16.43 0 01.037 5.793c-.126.728.985 1.037 1.111.304.369-2.143.36-4.262-.032-6.405-.136-.728-1.247-.42-1.116.308M86.747 115.573l.238 5.033c.033.742 1.186.747 1.153 0-.079-1.676-.154-3.357-.233-5.033-.033-.742-1.19-.747-1.158 0M58.714 64.928c.371 1.69.566 3.389.585 5.12.008.743 1.163.743 1.155 0a26.582 26.582 0 00-.626-5.428c-.159-.729-1.273-.42-1.114.308zM44.15 91.051c.192 1.77.207 3.534.035 5.308-.072.742 1.084.738 1.155 0a25.824 25.824 0 00-.035-5.308c-.08-.733-1.236-.742-1.155 0zM63.944 63.676c.179 2.1.195 4.192.041 6.293-.054.742 1.102.737 1.156 0 .153-2.101.137-4.192-.041-6.293-.063-.733-1.219-.742-1.156 0zM48.813 64.74l.084 5.14c.013.741 1.168.746 1.156 0l-.085-5.14c-.013-.743-1.168-.747-1.155 0zM55.152 69.242a10.04 10.04 0 00-.208-4.35c-.196-.72-1.31-.416-1.114.303a8.68 8.68 0 01.209 3.74c-.12.727.992 1.04 1.113.307M36.905 64.673c.353 1.928.366 3.856.035 5.788-.124.729.989 1.041 1.114.309a18.158 18.158 0 00-.035-6.405c-.134-.733-1.248-.42-1.114.308M43.284 64.901l.234 5.033c.035.742 1.19.747 1.155 0l-.234-5.032c-.034-.743-1.19-.747-1.155 0zM75.995 50.841l.085 5.14c.012.742 1.167.746 1.155 0l-.085-5.14c-.012-.742-1.167-.747-1.155 0zM59.596 52.459a10.726 10.726 0 00.512 4.402c.233.7 1.35.397 1.113-.308a9.911 9.911 0 01-.47-4.094c.068-.738-1.088-.733-1.155 0zM48.977 51.342c.268 2.092.33 4.178.188 6.279-.05.742 1.105.737 1.155 0 .142-2.1.08-4.188-.188-6.279-.092-.728-1.25-.737-1.155 0zM54.651 51.53l.3 6.228c.035.742 1.19.747 1.155 0l-.299-6.227c-.035-.738-1.19-.742-1.156 0zM42.956 50.977c.467 2.222.748 4.458.848 6.722.033.743 1.188.747 1.155 0a43.257 43.257 0 00-.89-7.025c-.152-.728-1.266-.42-1.113.303zM37.825 52.516a10.728 10.728 0 00.512 4.402c.233.7 1.35.401 1.113-.308a9.905 9.905 0 01-.47-4.094c.068-.738-1.087-.733-1.155 0M82.335 55.355c.243-1.47.187-2.913-.21-4.35-.196-.72-1.307-.416-1.11.308a8.646 8.646 0 01.205 3.739c-.117.723.994 1.036 1.115.303M65.463 50.867c.353 1.928.366 3.861.035 5.794-.124.728.989 1.04 1.114.308a18.172 18.172 0 00-.035-6.41c-.134-.728-1.248-.42-1.114.309M70.466 51.158l.234 5.037c.034.738 1.19.742 1.155 0l-.234-5.037c-.034-.738-1.19-.742-1.155 0zM56.255 25.52l.234 3.8c.045.738 1.201.742 1.156 0l-.235-3.8c-.046-.742-1.201-.747-1.155 0zM32.093 51.758l.234 5.037c.035.742 1.19.742 1.155 0l-.234-5.037c-.034-.738-1.19-.742-1.155 0zM25.953 64.075a40.082 40.082 0 01-.021 6.358c-.061.743 1.095.738 1.155 0 .176-2.119.183-4.234.022-6.358-.057-.737-1.212-.742-1.156 0zM46.445 38.174l.625 5.019c.091.728 1.248.737 1.155 0-.207-1.672-.416-3.348-.625-5.019-.09-.728-1.246-.737-1.155 0zM23.731 91.49a21.654 21.654 0 00.142 5.444c.11.733 1.223.42 1.114-.308a20.505 20.505 0 01-.1-5.135c.076-.738-1.08-.733-1.156 0"
            fill="#99BBB8"
        ></path>
        <path
            d="M41.007 27.71c-4.185-4.551-9.46-9.9-13.36-13.094-3.599-2.94-6.07-1.41-6.832.943-1.849 5.705-1.695 24.826-.486 35.609 4.75-9.378 11.928-17.604 20.678-23.458z"
            fill="#8CBEBA"
        ></path>
        <path
            d="M36.252 31.247c-1.886-3.558-7.704-8.342-10.466-10.714-1.82 4.034-.695 16.39-.403 22.342a62.089 62.089 0 0110.87-11.628z"
            fill="#D2939A"
        ></path>
        <path
            d="M115.619 32.96c7.026 6.105 12.483 13.878 16.115 22.434 1.745-10.031 3.23-20.446 2.693-30.413-.163-3.034.061-7.45-2.96-7.763-1.078-.112-12.384 6.904-19.811 12.604 1.363.99 2.689 2.031 3.963 3.137"
            fill="#8CBEBA"
        ></path>
        <path
            d="M127.005 46.32a106.942 106.942 0 001.704-21.763c-3.725 3.151-7.842 6.508-11.231 10.098a60.349 60.349 0 019.527 11.665z"
            fill="#D2939A"
        ></path>
        <path
            d="M93.46 90.635c-1.863-8.3-4.617-16.399-8.24-24.092-1.704-3.623-4.44-7.67-8.439-7.511-2.407.093-4.441 1.76-6.134 3.473-10.819 10.956-13.03 31.473-12.213 38.984.965 8.879 6.29 12.389 13.319 13.514 4.826.77 10.811.019 13.383-.532 4.598-.98 7.927-5.298 9.014-9.873 1.093-4.575.337-9.374-.69-13.963"
            fill="#8CBEBA"
        ></path>
        <path
            d="M114.214 73.658c-1.83 1.26-3.618 1.326-5.737.953-2.764-.495-7.707-2.092-5.014-5.579 2.871-3.72 11.484-4.294 13.972.094.294 1.708-2.04 3.715-3.221 4.532zm5.144-5.177c-.018-.07-.056-.116-.084-.177-.009-.019-.009-.042-.018-.065-.014-.028-.038-.052-.052-.084-.018-.024-.028-.056-.046-.075-3.511-6.148-18.598-5.145-18.594 3.072 0 4.341 7.04 5.755 10.331 5.685 3.655-.079 9.481-4.136 8.463-8.356z"
            fill="#515254"
        ></path>
        <path
            d="M113.481 68.507c-.915-2.325-3.328-5.042-5.373-3.604-.807.565-1.125 1.601-1.302 2.572-.654 3.534-.612 7.516 3.104 7.997 3.716.48 4.229-5.29 3.571-6.965"
            fill="#1F1611"
        ></path>
        <path
            d="M43.255 78.097c-1.634.472-3.284.346-4.91-.042-2.285-.55-6.329-1.699-5.61-4.77.67-2.858 4.028-4.025 6.563-4.473 2.81-.163 7.678.836 8.57 4.122.67 2.47-2.816 4.645-4.613 5.163zm6.652-5.046c-.44-4.63-6.923-6.503-10.697-6.246-.056.005-.096.028-.147.042-.042 0-.077-.014-.12-.005-3.704.617-8.199 2.918-8.395 7.236-.191 4.187 6.1 6.008 9.35 6.283 4.035.341 10.485-2.306 10.009-7.31"
            fill="#515254"
        ></path>
        <path
            d="M43.65 74.897c.206-2.47-.045-5.672-2.41-6.424-2.048-.644-4.152 1.382-4.427 3.51-.275 2.134.025 4.478 1.243 6.252 1.218 1.773 3.864 1.092 4.615.13.75-.961.88-2.25.98-3.468M81.066 81.995c-.83-1.098-2.194-1.667-3.548-1.92-2.034-.377-4.297-.088-5.872 1.257-.61.518-1.122 1.255-1.07 2.058.026.406.196.794.415 1.14.82 1.292 2.994 2.338 4.763 2.656 1.769.312 2.315-.155 3.435-.458.682-.187 1.378-.444 1.872-.948.957-.985.836-2.693.005-3.785"
            fill="#1F1611"
        ></path>
        <path
            d="M84.53 100.511c-.234 1.111-.761 2.26-1.713 2.932-2.162 1.517-5.303-.56-5.538-4.113-.264-4.028.132-8.076.235-12.109-.457.084-.99.098-1.76-.037-.081-.019-.166-.042-.25-.056-.1 3.87-.17 7.74-.226 11.61-.028 1.913.094 4.542-1.883 5.597-1.94 1.041-3.917-.561-4.837-2.255-.617-1.134-2.353-.121-1.735 1.013 1.689 3.114 5.59 4.986 8.52 2.278.501-.467 1.145-1.597 1.416-2.152 1.422 2.259 3.882 3.487 6.408 2.325 1.77-.813 2.908-2.633 3.3-4.5.266-1.26-1.671-1.798-1.937-.533z"
            fill="#1F1611"
        ></path>
        <path
            d="M106.642 47.18c-2.292 4.01 5.924 10.13 8.987 5.923 3.057-4.2-6.377-10.48-8.987-5.923zM41.173 48.106c2.5 2.857-4.009 10.835-8.84 6.695-4.832-4.146 5.534-10.471 8.84-6.695z"
            fill="#7CA2A2"
        ></path>
        <path
            d="M44.89 87.104c-1.655-3.487-5.4-5.971-10.114-5.873-3.102.07-5.88 1.886-7.991 3.996-1.748 1.746-2.407 3.39-2.02 5.742.299 1.825 2.14 5.793 8.222 6.713 3.495.527 7.467.588 10.12-1.588 2.394-1.965 3.436-5.503 1.783-8.99zM126.109 83.118c-.714-.723-1.657-1.241-2.624-1.69-2.908-1.353-6.474-2.156-9.583-1.003-2.204.817-3.884 1.76-5.378 4.08-1.499 2.325-.63 6.353.523 8.052 1.153 1.695 4.682 4.664 10.214 4.006 3.356-.397 8.234-3.16 9.247-7.073.607-2.343-1.475-5.443-2.399-6.372z"
            fill="#EAA8A6"
        ></path>
        <path
            d="M96.438 82.836c-3.165-.117-6.867.397-9.584 2.12-.98.62-.075 2.189.91 1.563 2.46-1.563 5.812-1.984 8.674-1.872 1.167.042 1.162-1.764 0-1.81M89.818 92.598c4.113-.78 8.352-1.368 12.511-.625 1.139.2 1.624-1.54.481-1.746-4.496-.799-9.024-.215-13.473.63-1.139.215-.658 1.96.481 1.741M89.006 98.032c3.716.099 7.423.383 11.064 1.168 1.134.242 1.62-1.499.481-1.746-3.8-.817-7.67-1.13-11.545-1.233-1.167-.028-1.162 1.779 0 1.811M64.896 86.224a50.211 50.211 0 00-13.654-1.499c-1.162.033-1.167 1.84 0 1.807 4.465-.122 8.838.35 13.173 1.433 1.13.285 1.611-1.461.48-1.741M62.61 91.112c-2.996.098-5.992.2-8.987.299-1.16.042-1.166 1.848 0 1.811 2.995-.103 5.99-.2 8.986-.303 1.161-.038 1.166-1.849 0-1.807zM51.255 101.16a61.371 61.371 0 0110.812-1.755c1.154-.084 1.163-1.89 0-1.807-3.821.271-7.58.873-11.293 1.816-1.127.29-.65 2.031.48 1.746"
            fill="#515254"
        ></path>
        <path fill="#fff" fill-opacity="0.01" d="M149 149h1v1h-1z"></path>
    </svg>