 <svg
        xmlns="http://www.w3.org/2000/svg"
        width="150"
        height="150"
        viewBox="0 0 150 150"
        fill="none"
        style="width: 4rem; height: 4rem; background: none"
    >
        <path
            d="M112.825 35.57c-19.026-11.55-43.851-9.426-64.216-.443-12.109 5.342-23.55 13.274-30.29 24.66-8.618 14.572-8.23 33.726-.005 48.517 8.23 14.796 21.53 23.66 38.026 27.165 16.678 3.541 36.39 4.528 51.998-4.296 16.756-9.467 28.513-27.548 29.65-46.757 1.134-19.21-8.713-38.857-25.163-48.845z"
            fill="#BDB1B6"
        ></path>
        <path
            d="M55.796 36.28c-.028.786-.055 1.577-.087 2.363-.023.726 1.101.726 1.128 0l.083-2.363c.027-.722-1.097-.722-1.124 0zM65.72 33.88a11.878 11.878 0 00.078 4.29c.142.714 1.225.412 1.087-.296a10.263 10.263 0 01-.082-3.697c.115-.708-.973-1.014-1.083-.297zM35.586 46.58a11.553 11.553 0 010 4.532c-.137.708.946 1.01 1.088.297a13.17 13.17 0 000-5.127c-.137-.712-1.225-.41-1.088.297zM30.825 48.647c.064 1 .123 2.001.187 2.997.046.722 1.175.727 1.13 0l-.193-2.997c-.046-.718-1.17-.722-1.124 0zM40.594 45.278c.11 1.819.215 3.637.325 5.456.045.717 1.17.722 1.128 0l-.329-5.456c-.046-.722-1.17-.727-1.124 0zM15.915 76.341a14.164 14.164 0 01-.096-5.154c.114-.708-.969-1.014-1.083-.301a15.736 15.736 0 00.096 5.757c.142.708 1.225.407 1.083-.302M69.97 135.06a13.019 13.019 0 01-.1-4.939c.118-.708-.965-1.014-1.088-.302a14.688 14.688 0 00.1 5.543c.146.708 1.234.407 1.088-.302M15.258 88.772a14.088 14.088 0 01-.096-5.159c.114-.708-.969-1.01-1.088-.296a15.81 15.81 0 00.1 5.752c.142.713 1.225.411 1.084-.297M18.387 71.764v3.418c0 .726 1.129.726 1.129 0v-3.418c0-.727-1.129-.727-1.129 0zM129.485 65.59c.502 1.736.671 3.445.52 5.245-.059.722 1.065.718 1.129 0a15.04 15.04 0 00-.562-5.542c-.201-.695-1.288-.402-1.087.297M130.266 91.158c.173 1.307.201 2.596.114 3.912-.05.722 1.078.717 1.124 0a20.601 20.601 0 00-.155-4.213c-.096-.713-1.179-.407-1.083.301M81.279 42.518a23.93 23.93 0 01.15 4.985c-.054.722 1.075.718 1.125 0a25.22 25.22 0 00-.192-5.282c-.1-.713-1.183-.411-1.083.297M125.085 102.801c.338 1.956.512 3.916.53 5.904.009.722 1.133.722 1.128 0a39.089 39.089 0 00-.571-6.205c-.123-.713-1.206-.412-1.087.301M102.7 118.467a32.13 32.13 0 01.53 5.451c.009.722 1.138.726 1.129 0a34.271 34.271 0 00-.572-5.753c-.132-.713-1.215-.411-1.087.302M107.315 118.026c.37 1.618.603 3.244.694 4.907.041.722 1.165.727 1.124 0a30.838 30.838 0 00-.735-5.209c-.16-.703-1.248-.406-1.083.302zM44.24 119.484v4.981c0 .722 1.129.726 1.129 0v-4.981c0-.726-1.129-.726-1.129 0zM73.662 131.52c.197 1.243.393 2.486.585 3.733.114.713 1.197.411 1.087-.301-.196-1.243-.388-2.486-.585-3.734-.11-.712-1.197-.411-1.087.302zM125.775 66.38c.082 1.307.164 2.61.242 3.916.046.718 1.174.722 1.129 0l-.247-3.916c-.041-.722-1.17-.726-1.124 0zM125.994 91.002c.421 1.613.498 3.149.21 4.794-.123.708.965 1.01 1.088.297.32-1.837.256-3.587-.215-5.392-.183-.7-1.265-.402-1.083.301M59.1 130.755a14.91 14.91 0 00.305 3.605c.142.708 1.23.411 1.083-.297a13.65 13.65 0 01-.26-3.308c.027-.726-1.097-.726-1.129 0zM63.815 131.296c.018 1.082.041 2.17.06 3.253.018.726 1.142.726 1.128 0-.023-1.083-.041-2.171-.064-3.253-.014-.727-1.142-.727-1.124 0zM78.926 131.171c.407 1.608.54 3.189.416 4.848-.055.722 1.069.717 1.124 0a15.772 15.772 0 00-.457-5.15c-.178-.703-1.261-.402-1.083.302M55.102 130.754c-.046.896.009 1.746.155 2.628.114.713 1.197.411 1.083-.297a10.255 10.255 0 01-.11-2.331c.037-.726-1.087-.722-1.128 0zM84.163 131.288v3.792c0 .727 1.124.727 1.124 0v-3.792c0-.727-1.124-.727-1.124 0zM88.713 130.311c.046 1.604.087 3.203.133 4.802.018.722 1.147.727 1.124 0-.041-1.599-.087-3.198-.133-4.802-.018-.722-1.142-.722-1.124 0zM93.867 120.727c.028 1.399.055 2.801.078 4.204.014.722 1.138.722 1.124 0-.023-1.403-.05-2.805-.073-4.204-.014-.726-1.142-.726-1.129 0zM112.281 117.059c.467 1.768.581 3.482.371 5.291-.083.718 1.046.713 1.128 0 .219-1.91.073-3.737-.411-5.588-.187-.699-1.27-.402-1.088.297M120.964 115.92c.201 1.042.292 2.066.292 3.121 0 .727 1.124.727 1.124 0 0-1.161-.114-2.28-.334-3.422-.132-.709-1.219-.407-1.082.301M33.434 107.473l.548 5.19c.073.718 1.202.722 1.124 0l-.548-5.19c-.073-.713-1.202-.718-1.124 0zM134.118 90.989a15.084 15.084 0 01-.16 3.952c-.123.708.96 1.014 1.087.302.247-1.421.325-2.815.197-4.254-.064-.713-1.188-.722-1.124 0M30.254 112.379a19.372 19.372 0 01-.567-5.277c.023-.722-1.1-.722-1.123 0-.055 1.9.146 3.733.603 5.574.173.704 1.26.407 1.087-.297zM121.493 103.509c.11 1.622.215 3.249.32 4.875.05.718 1.174.727 1.129 0-.11-1.626-.215-3.253-.32-4.875-.051-.722-1.175-.727-1.129 0zM116.873 115.771l.261 5.264c.036.722 1.16.726 1.124 0l-.261-5.264c-.036-.722-1.16-.726-1.124 0zM134.429 77.091a18.54 18.54 0 01.457 6.123c-.064.722 1.06.718 1.124 0 .196-2.175.023-4.3-.498-6.42-.174-.703-1.257-.406-1.083.297zM130.426 78.214a9.897 9.897 0 01.498 3.948c-.05.722 1.074.722 1.124 0 .11-1.48-.068-2.842-.539-4.25-.228-.68-1.316-.388-1.083.302zM48.778 119.457c.164 1.864.328 3.733.488 5.597.064.717 1.193.722 1.129 0-.164-1.864-.329-3.733-.489-5.597-.064-.718-1.192-.722-1.128 0zM53.886 121.563l.124 3.062c.032.722 1.156.726 1.128 0-.04-1.019-.087-2.043-.128-3.062-.027-.722-1.151-.726-1.124 0M24.88 97.812c.05 1.517.1 3.034.146 4.551.023.722 1.152.727 1.13 0l-.152-4.55c-.023-.723-1.147-.727-1.124 0M25.712 58.279c.037 1.315.073 2.631.114 3.947.023.722 1.148.727 1.125 0-.037-1.316-.078-2.632-.115-3.947-.022-.722-1.147-.727-1.124 0zM64.574 43.745a14.252 14.252 0 00.306 3.175c.146.709 1.234.407 1.087-.301a12.66 12.66 0 01-.265-2.874c.01-.722-1.114-.722-1.128 0zM101.251 35.746a9.894 9.894 0 00.201 2.038c.142.713 1.225.411 1.083-.297a8.08 8.08 0 01-.16-1.74c.009-.727-1.115-.727-1.124 0zM130.609 107.045a14.252 14.252 0 00-.306-3.171c-.147-.713-1.234-.411-1.088.297.201.959.283 1.896.265 2.874-.009.726 1.115.726 1.129 0zM124.066 54.72c-.22 1.523-.16 2.966.215 4.456.173.704 1.261.407 1.082-.297-.324-1.311-.402-2.527-.214-3.861.1-.708-.983-1.014-1.083-.297zM98.354 37.59a7.797 7.797 0 00-.183-2.942c-.169-.704-1.256-.402-1.083.301.22.896.256 1.732.138 2.641-.092.718 1.032.709 1.128 0M115.658 45.134v3.057c0 .722 1.124.727 1.124 0v-3.057c0-.722-1.124-.722-1.124 0zM111.117 43.744c.068 1.458.137 2.915.21 4.373.032.722 1.156.727 1.124 0-.069-1.458-.142-2.915-.21-4.373-.032-.722-1.161-.726-1.124 0zM35.18 119.207l.37 4.368c.059.713 1.188.722 1.128 0-.128-1.457-.251-2.91-.374-4.368-.06-.717-1.184-.722-1.125 0zM18.346 84.292l-.37 4.364c-.06.727 1.065.722 1.129 0l.37-4.364c.059-.722-1.065-.717-1.129 0zM105.469 43.286a30.903 30.903 0 00.411 6.233c.119.712 1.202.41 1.083-.302a29.286 29.286 0 01-.366-5.93c.023-.727-1.101-.723-1.128 0M86.99 42.546l.275 5.09c.036.717 1.165.722 1.124 0-.092-1.7-.178-3.395-.27-5.09-.04-.722-1.165-.727-1.128 0zM93.36 43.31c.31 1.59.325 3.099.037 4.689-.133.708.955 1.01 1.082.297a13.972 13.972 0 00-.031-5.282c-.137-.713-1.225-.412-1.088.297zM21.403 63.086a11.308 11.308 0 01-.027-4.222c.123-.708-.96-1.01-1.088-.297a12.957 12.957 0 00.032 4.82c.133.71 1.22.412 1.083-.3M52.291 44.978a12.84 12.84 0 01.718 4.793c-.028.722 1.096.722 1.124 0a13.699 13.699 0 00-.759-5.095c-.233-.68-1.32-.384-1.083.302zM93.205 129.825c.452 1.632.644 3.254.594 4.944-.023.727 1.101.722 1.124 0a17.238 17.238 0 00-.635-5.245c-.192-.695-1.28-.398-1.083.301zM118.244 54.925c.539 1.572.781 3.135.718 4.794-.028.726 1.096.721 1.124 0a13.682 13.682 0 00-.759-5.09c-.233-.681-1.32-.389-1.083.296zM133.62 65.38c.544 1.568.781 3.13.717 4.793-.027.722 1.097.722 1.125 0a13.705 13.705 0 00-.759-5.094c-.233-.681-1.32-.389-1.083.301zM75.202 42.085c.42 1.8.676 3.618.772 5.469.037.717 1.16.722 1.124 0-.1-1.951-.37-3.866-.808-5.771-.165-.704-1.248-.407-1.088.302zM86.881 34.006c-.1 1.28.046 2.403.466 3.619.233.68 1.32.388 1.088-.297a7.992 7.992 0 01-.43-3.322c.055-.722-1.07-.722-1.124 0zM69.998 43.345a8.644 8.644 0 00.47 3.624c.233.68 1.32.388 1.083-.302a7.97 7.97 0 01-.425-3.322c.055-.722-1.07-.717-1.129 0zM79.337 122.273a8.69 8.69 0 00.466 3.619c.238.686 1.326.389 1.088-.297a7.97 7.97 0 01-.425-3.322c.055-.722-1.07-.717-1.129 0zM69.316 120.467c.229 1.664.27 3.313.151 4.985-.055.722 1.074.718 1.124 0a24.908 24.908 0 00-.192-5.282c-.096-.712-1.183-.411-1.083.297M74.01 120.925c.091 1.695.182 3.391.27 5.09.04.722 1.164.727 1.128 0l-.274-5.09c-.037-.722-1.16-.726-1.124 0zM63.87 120.765a24.77 24.77 0 01.772 4.77c.041.722 1.17.726 1.124 0a26.361 26.361 0 00-.809-5.067c-.182-.7-1.27-.403-1.087.297zM58.666 121.295c-.1 1.284.05 2.408.466 3.623.238.681 1.325.388 1.087-.302a8.044 8.044 0 01-.43-3.321c.06-.722-1.068-.718-1.123 0zM81.174 32.905l.22 4.784c.036.722 1.16.722 1.128 0-.078-1.595-.151-3.19-.224-4.784-.032-.722-1.16-.727-1.124 0zM76.486 33.392c-.041 1.32.119 2.564.489 3.834.2.694 1.288.397 1.083-.302a11.268 11.268 0 01-.448-3.532c.027-.726-1.101-.726-1.124 0M16.756 97.728c-.04 1.32.12 2.568.49 3.834.2.694 1.288.397 1.082-.297a11.181 11.181 0 01-.443-3.537c.023-.727-1.106-.722-1.129 0zM51.77 37.126a7.986 7.986 0 00.293 2.303c.188.7 1.275.402 1.083-.297a7.26 7.26 0 01-.251-2.006c.009-.726-1.115-.726-1.124 0zM57.88 44.616a12.11 12.11 0 00.488 3.838c.201.69 1.289.398 1.083-.301a11.142 11.142 0 01-.443-3.537c.023-.722-1.106-.722-1.129 0zM70.596 33.788v3.898c0 .726 1.124.726 1.124 0v-3.898c0-.722-1.124-.726-1.124 0zM92.017 34.318c.014 1.265.283 2.38.814 3.527.306.658 1.274.087.973-.567a6.836 6.836 0 01-.663-2.96c-.004-.722-1.133-.727-1.124 0M40.046 119.952a8.223 8.223 0 00-.055 3.609c.141.713 1.229.412 1.087-.297a6.767 6.767 0 01.05-3.011c.165-.703-.918-1.005-1.082-.301M24.3 109.346c-.15 1.206-.041 2.289.32 3.45.215.689 1.302.392 1.087-.302a7.089 7.089 0 01-.278-3.148c.087-.718-1.037-.713-1.129 0M118.688 108.522a8.236 8.236 0 00.055-3.61c-.142-.708-1.225-.407-1.083.302.21 1.046.187 1.969-.055 3.011-.165.703.918 1.005 1.083.297zM51.181 130.649c.014.599.069 1.17.16 1.764.11.713 1.193.411 1.083-.297a7.943 7.943 0 01-.119-1.467c-.013-.726-1.137-.726-1.124 0zM99.126 133.522a17.266 17.266 0 00-.242-2.788c-.123-.713-1.206-.411-1.087.297.141.836.2 1.645.205 2.491.005.726 1.133.726 1.124 0M99.14 124.415c.197-1.248.151-2.385-.187-3.605-.197-.699-1.28-.402-1.088.301.284 1.024.357 1.951.192 3.007-.114.708.969 1.014 1.083.297M129.174 58.782a11.21 11.21 0 00-.027-3.578c-.119-.717-1.202-.411-1.083.297a9.451 9.451 0 01.027 2.98c-.105.707.978 1.014 1.083.3zM30.994 118.948c-.196 1.252-.141 2.39.201 3.61.192.694 1.28.397 1.083-.302-.287-1.023-.36-1.955-.2-3.006.109-.709-.974-1.015-1.084-.302M99.808 43.462c.068 1.37.141 2.741.21 4.112.036.722 1.165.727 1.129 0-.074-1.37-.142-2.741-.215-4.112-.037-.722-1.165-.727-1.124 0zM83.801 120.722c.31 1.59.32 3.098.032 4.688-.128.708.955 1.014 1.088.301.324-1.786.31-3.509-.037-5.286-.137-.713-1.22-.411-1.083.297M88.708 120.941c.073 1.371.142 2.742.215 4.117.037.717 1.16.722 1.124 0-.068-1.375-.141-2.746-.21-4.117-.041-.722-1.165-.726-1.129 0zM86.031 54.398c.023 1.402.05 2.8.078 4.203.01.722 1.138.727 1.124 0-.027-1.402-.05-2.8-.078-4.203-.013-.722-1.137-.727-1.124 0zM71.5 55.947c-.1 1.28.046 2.404.467 3.62.233.68 1.32.388 1.083-.302a7.959 7.959 0 01-.425-3.318c.055-.726-1.07-.722-1.124 0M61.055 55.166c.229 1.658.27 3.308.151 4.98-.05.722 1.074.722 1.124 0a25.213 25.213 0 00-.187-5.282c-.1-.713-1.184-.411-1.088.302zM66.168 54.593l.274 5.09c.037.722 1.166.727 1.125 0-.092-1.695-.179-3.39-.27-5.09-.041-.722-1.165-.726-1.129 0zM56.148 55.187a24.34 24.34 0 01.767 4.766c.046.722 1.175.726 1.129 0a26.145 26.145 0 00-.813-5.067c-.183-.7-1.266-.403-1.083.301M51.542 55.502c-.1 1.283.05 2.408.466 3.623.233.68 1.325.388 1.088-.302a8.047 8.047 0 01-.43-3.321c.06-.722-1.069-.718-1.124 0zM91.304 58.086c.196-1.247.146-2.39-.192-3.61-.192-.694-1.28-.397-1.083.302.283 1.028.356 1.956.187 3.007-.114.708.974 1.014 1.088.301M75.96 54.397c.311 1.586.325 3.098.033 4.683-.128.713.96 1.015 1.087.302a13.993 13.993 0 00-.032-5.287c-.137-.708-1.224-.406-1.087.302M80.872 54.606c.069 1.375.142 2.746.21 4.116.037.722 1.166.727 1.129 0-.073-1.37-.146-2.741-.215-4.116-.036-.718-1.165-.722-1.124 0zM59.895 35.351c.073 1.038.141 2.075.214 3.108.046.717 1.175.726 1.124 0-.073-1.033-.141-2.07-.214-3.108-.046-.717-1.175-.721-1.124 0zM29.687 57.379c.068 1.37.142 2.746.21 4.116.041.718 1.165.722 1.129 0-.073-1.37-.142-2.746-.215-4.116-.037-.722-1.16-.727-1.124 0zM21.686 70.132a30.39 30.39 0 01-.018 5.2c-.064.721 1.065.717 1.129 0 .15-1.737.16-3.46.018-5.2-.06-.718-1.183-.722-1.129 0zM46.772 46.077c.192 1.367.379 2.737.57 4.104.097.717 1.184.41 1.084-.297-.188-1.371-.38-2.737-.567-4.104-.1-.717-1.183-.41-1.087.297M20.713 97.135a17.058 17.058 0 00.128 4.474c.11.712 1.197.411 1.087-.302a15.944 15.944 0 01-.091-4.172c.073-.717-1.051-.713-1.124 0"
            fill="#9C8F90"
        ></path>
        <path
            d="M57.098 31.887c8.344-2.733 17.14-4.263 25.803-4.222 1.023-4.985 7.617-9.139 5.58-13.905-1.5-3.504-6.923-3.518-9.71-.918-2.788 2.6-3.62 6.62-4.31 10.372-.79-2.577-1.644-5.254-3.522-7.183-1.874-1.932-5.109-2.837-7.307-1.279-3.248 2.303-1.868 7.352-.16 10.952-6.753-5.862-11.012-8.658-12.127-6.236-.516 1.114-.146 2.421.297 3.564a29.429 29.429 0 005.456 8.855"
            fill="#BDB1B6"
        ></path>
        <path
            d="M123.353 62.36c-5.218-8.819-16.061-14.576-26.132-12.342-9.294 2.06-16.7 10.162-26.2 10.724-8.417.494-16.011-5.1-24.382-6.063-12.981-1.504-25.423 9.572-27.26 22.385-1.842 12.817 6.67 28.288 17.19 35.964 5.094 3.72 12.908 8.924 34.306 11.149 4.802.503 14.178-.269 18.925-1.206 16.212-3.194 30.286-15.43 35.586-30.938 3.313-9.683 3.189-20.85-2.033-29.673z"
            fill="#F5EBF0"
        ></path>
        <path
            d="M60.526 81.022c-.49-2.851-3.044-5.013-5.822-5.817-2.778-.804-5.748-.48-8.595.046-9.426 1.74-22.133 5.332-28.814 16.852-1.046 1.8-1.055 4.19.165 5.876 1.727 2.389 5.067 2.878 8.01 2.769 9.22-.357 17.793-4.588 26.04-8.728 2.28-1.142 4.602-2.316 6.406-4.117 1.805-1.8 3.039-4.368 2.61-6.881zM114.959 74.693c-5.538-2.23-11.514-3.088-17.431-3.888-2.166-.293-4.387-.576-6.52-.105-2.14.466-4.21 1.846-4.89 3.92-1.183 3.624 2.125 7.06 5.19 9.326 9.519 7.032 21.01 12.954 32.712 11.177 2.436-.37 5.392-1.536 5.607-3.99.745-8.672-9.134-14.21-14.668-16.44z"
            fill="#5D5169"
        ></path>
        <path
            d="M78.286 84.881c-1.75-.43-3.587-.146-5.365.15-1.229.019-2.44.16-3.55.668-1.846.84-3.271 2.979-2.604 4.898.8 2.299 3.774 2.806 6.21 2.934 1.969.1 4.011.191 5.839-.549 1.828-.74 3.376-2.563 3.134-4.519-.228-1.805-1.9-3.152-3.664-3.582"
            fill="#1F1611"
        ></path>
        <path
            d="M75.083 93.586c-.699 0-1.398-.018-2.088-.055-.48 7.014.174 13.964.987 20.937.15 1.32 2.244 1.338 2.088 0-.808-6.955-1.462-13.891-.987-20.882zM106.09 78.087c-2.723-.356-4.642 1.732-4.779 3.226-.16 1.8-.11 4.953 2.417 6.031 2.522 1.074 5.812-.58 6.479-3.244.672-2.66-1.394-5.661-4.117-6.013M47.252 81.302c-2.532-2.454-7.521-1.124-8.5 2.257l-.123.53c-.616 3.469 3.281 6.859 6.63 5.776 3.35-1.083 4.52-6.114 1.993-8.563z"
            fill="#1F1611"
        ></path>
        <path
            d="M45.328 100.64c-1.302-2.75-4.258-4.71-7.978-4.629-2.449.05-4.638 1.486-6.305 3.153-1.38 1.376-1.901 2.673-1.595 4.528.238 1.444 1.69 4.574 6.488 5.296 2.76.416 5.895.466 7.987-1.252 1.888-1.549 2.71-4.341 1.403-7.096zM116.028 94.688c-.566-.567-1.307-.978-2.07-1.334-2.298-1.07-5.108-1.7-7.562-.79-1.736.644-3.066 1.388-4.245 3.22-1.183 1.833-.498 5.013.412 6.352.913 1.339 3.696 3.678 8.06 3.162 2.65-.315 6.497-2.495 7.297-5.584.48-1.85-1.165-4.29-1.892-5.026"
            fill="#F799BA"
        ></path>
        <path
            d="M110.71 65.142c-.8-.52-5.132-2.289-6.173-.187-1.042 2.106 2.037 3.345 3.723 4.29.768.43 1.632.745 2.509.695.877-.05 1.764-.516 2.138-1.311.412-.864-.269-2.23-2.197-3.487M42.97 63.973c-.593-.498-1.47-.42-2.234-.252-4.062.882-7.078 3.386-5.446 5.662 1.635 2.275 6.342-.786 7.452-2.139.768-.941 1.16-2.49.229-3.271"
            fill="#BDB1B6"
        ></path>
        <path
            fill="#fff"
            fill-opacity="0.01"
            d="M149 149h1v1h-1zM0 0h1v1H0z"
        ></path>
    </svg>
