 <svg
        xmlns="http://www.w3.org/2000/svg"
        width="150"
        height="150"
        viewBox="0 0 150 150"
        fill="none"
        style="width: 4rem; height: 4rem; background: none"
    >
        <path
            d="M19.721 49.8c4.215-8.598 10.523-16.816 21.051-23.254-2.9-6.419-8.794-11.063-16.056-13.064-6.106-1.688-11.279 1.49-12.524 2.749-3.285 3.328-5.306 7.542-5.187 12.22.104 4.553 1.566 15.683 12.716 21.35zM134.696 17.648c-5.008-2.117-10.804-2.19-15.461.617-4.507 2.72-7.809 7.017-10.743 11.4 7.335 4.669 14.084 11.594 20.51 22.035.251.415.496.83.736 1.25 4.133-2.48 11.484-7.732 13.476-17.922 1.461-7.45-2.265-14.737-8.518-17.38"
            fill="#1F1611"
        ></path>
        <path
            d="M23.893 42.563a53.05 53.05 0 0110.205-11.261c-1.156-1.49-2.312-2.98-3.473-4.466-1.465-1.89-2.984-3.824-5.057-5.02-2.072-1.191-4.855-1.48-6.776-.053-.602.448-1.092 1.036-1.494 1.668-2.126 3.304-2.038 7.72-.397 11.294 1.48 3.222 4.067 5.816 6.992 7.837zM125.13 45.898c5.737-3.09 9.062-6.539 10.318-11.337 1.831-7.022-2.313-8.898-3.22-9.418-1.593-.917-3.607-.724-5.366-.184-2.888.892-5.472 2.614-7.707 4.654a31.096 31.096 0 00-4.293 4.837c3.546 3.091 6.954 6.853 10.268 11.448z"
            fill="#D23123"
        ></path>
        <path
            d="M138.176 77.676c-1.976-9.009-4.352-18.118-9.176-25.974-16.805-27.316-35.847-30.6-61.706-32.162-3.56-.217-15.497 1.5-18.758 2.947C23.874 33.448 17.42 52.512 12.901 69.015c-2.37 8.66-2.415 17.81-1.452 26.736.411 3.833 3.36 21.59 22.119 31.708 16.871 9.1 41.906 12.008 65.539 7.345 14.356-2.831 29.943-7.832 37.21-20.53 6.204-10.856 4.546-24.383 1.859-36.598"
            fill="#F68C40"
        ></path>
        <path
            d="M73.14 73.585c8.525.333 15.745 1.418 23.26 3.95 2.008-13.845 7.093-35.045 9.656-49.325-11.248-6.299-23.873-7.774-38.763-8.67-3.557-.218-15.5 1.499-18.757 2.946a71.519 71.519 0 00-5.79 2.903c4.844 17.298 7.43 32.735 12.685 50.328 5.704-1.693 11.755-2.363 17.71-2.132"
            fill="#E8641D"
        ></path>
        <path
            d="M99.106 134.803c4.308-.849 8.719-1.896 12.989-3.284 5.38-2.113 11.065-15.24 11-22.063-.19-19.18-15.292-27.248-20.095-29.355-10.058-4.418-18.88-6.091-29.859-6.516-10.973-.424-22.284 2.195-31.144 8.686-8.86 6.486-14.943 17.115-14.638 28.096.18 6.39 2.766 12.717 6.976 17.491 16.849 8.777 41.485 11.536 64.772 6.945"
            fill="#F5EDDF"
        ></path>
        <path
            d="M90.274 85.736c-.55-2.055-2.109-3.786-4.003-4.775-3.425-1.79-7.014-2.898-11.51-2.85-3.85.038-7.386 1.515-10.575 3.67-2.419 1.63-3.342 3.906-3.431 6.057-.173 4.128 8.766 7.5 15.093 7.514 4.522.009 8.98-1.765 12.553-4.543.572-.448 1.144-.94 1.516-1.567.63-1.032.677-2.34.357-3.506zM36.056 65.914c-.916-.42-3.793-.618-4.695 1.6-.704 1.727-.966 3.598-.424 5.397.271.907 1.119 2.918 3.622 3 2.507.087 3.645-1.736 3.779-3.675.226-3.13-1.055-5.763-2.282-6.322M120.096 70.48c-.271-1.562-1.401-3.072-2.964-3.323-1.558-.25-3.111.844-3.746 2.281-.64 1.442-1.487 8.69 3.388 8.714 1.455.01 2.291-1.61 2.725-2.999.472-1.515.879-3.11.597-4.673M69.078 19.654c.898 8.111 3.11 17.168 3.94 25.232.426 4.161.888 8.434 2.804 12.157 1.22-3.964 1.63-8.126 2.035-12.254.79-8.04 3.002-15.929 3.957-23.954-4.06-.54-8.302-.896-12.736-1.18M59.417 20.16c-4.34.594-9.021 1.505-10.885 2.33-.096.048-.193.091-.289.135 2.664 9.809 8.332 23.192 11.194 32.012.831-.198 1.702-22.927-.02-34.477M90.934 22.473c.319 11.526-1.678 25.478 1.928 36.222 2.571-10.267 6.199-22.236 8.446-32.831-3.325-1.442-6.783-2.542-10.374-3.39z"
            fill="#1F1611"
        ></path>
        <path
            d="M75.25 94.384c-.924 9.067-1.332 18.572-.192 27.633.135 1.033 1.776 1.047 1.642 0-1.136-9.061-.728-18.566.186-27.633.109-1.056-1.538-1.041-1.636 0M10.937 81.867c3.964-.907 10.668-1.833 13.524-3.665-1.844-1.187-8.62-4.437-12.435-5.483a63.702 63.702 0 00-1.089 9.148M10.864 85.448c0 2.668.13 5.344.363 8.001 4.6-.95 9.704-3.289 13.548-5.927-3.326-1.109-9.476-1.78-13.911-2.074zM26.081 97.64c-3.264-.521-9.768-.338-14.298.356.407 2.214 1.232 5.474 2.852 9.149 3.54-1.307 10.888-8.45 11.446-9.506zM139.039 81.871a160.453 160.453 0 00-.864-4.195 194.438 194.438 0 00-.965-4.216c-3.459 2.127-8.88 3.753-10.998 5.185 1.558 1.34 5.228 2.18 12.827 3.226zM140.557 94.617a70.366 70.366 0 00-.533-6.611c-4.054.906-8.562 2.261-12.871 4.35 4.636 1.9 10.117 2.088 13.404 2.261zM126.161 101.053c3.974 3.53 8.415 5.556 12.673 7.451.783-2.459 1.277-5.011 1.527-7.61-2.348-.135-7.539-.318-14.2.159zM57.793 100.381c-4.822-.323-9.624-.67-14.29-2.025-.727-.212-1.035.92-.313 1.133 4.767 1.379 9.675 1.736 14.603 2.064.752.053.747-1.124 0-1.172zM55.916 105.223c-4.403.536-8.836.748-13.254 1.134-.746.062-.751 1.239 0 1.171 4.418-.385 8.851-.598 13.254-1.133.74-.087.75-1.258 0-1.172zM56.056 111.259c-3.433.96-6.86 1.943-10.348 2.691-.741.155-.424 1.288.307 1.128 3.493-.742 6.92-1.73 10.358-2.691.726-.202.419-1.335-.317-1.128M93.518 100.944c3.644-1.669 7.336-3.24 10.991-4.91.683-.318.086-1.325-.597-1.012-3.644 1.669-7.342 3.24-10.986 4.91-.694.318-.096 1.326.592 1.012zM94.9 105.862c3.964-.517 7.89-1.134 11.785-2.031.738-.169.422-1.297-.316-1.128-3.792.872-7.606 1.481-11.469 1.987-.738.096-.749 1.268 0 1.172zM93.579 111.476c3.764.777 7.619 1.032 11.442 1.384.753.072.742-1.105 0-1.172-3.722-.342-7.47-.583-11.138-1.345-.736-.15-1.046.978-.304 1.133"
            fill="#1F1611"
        ></path>
        <path
            d="M75.084 122.238c.545 2.976 3.356 5.84 6.261 6.539 3.36.815 5.491-1.972 6.9-4.509.518-.925-.9-1.755-1.414-.829-1.115 2.006-2.204 3.815-4.805 3.786-2.466-.024-4.947-3.202-5.355-5.425-.189-1.042-1.775-.599-1.587.438"
            fill="#1F1611"
        ></path>
        <path
            d="M75.06 122.02c.108 2.541-.61 4.697-3.49 5.049-3.242.396-4.713-2.233-5.616-4.842-.346-.988-1.93-.564-1.585.439 1.203 3.458 3.16 6.236 7.2 6.048 3.79-.179 5.276-3.323 5.131-6.694-.04-1.056-1.687-1.061-1.64 0z"
            fill="#1F1611"
        ></path>
        <path
            d="M68.461 68.037l-.015-8.825c0-.757-1.17-.757-1.17 0l.015 8.825c0 .758 1.175.758 1.17 0zM61.776 48.26c.101 2.946.36 5.868.767 8.786.102.748 1.23.43 1.128-.313a82.98 82.98 0 01-.721-8.474c-.026-.752-1.2-.756-1.174 0zM70.073 51.963a89.791 89.791 0 01-.051-7.962c.025-.757-1.147-.757-1.178 0a91.78 91.78 0 00.056 7.962c.036.752 1.209.752 1.173 0zM64.683 39.611a38.074 38.074 0 01-.32-5.898c.02-.757-1.15-.752-1.17 0-.046 1.978.06 3.94.32 5.898.097.743 1.267.753 1.17 0zM59.539 69.508c-.597-2.42-1.193-4.842-1.785-7.262-.182-.733-1.315-.42-1.133.313.597 2.42 1.189 4.842 1.79 7.258.177.738 1.305.425 1.128-.308M50.697 45.325l1.415 6.742c.155.738 1.284.425 1.129-.313-.472-2.247-.939-4.495-1.41-6.742-.156-.738-1.29-.424-1.134.313zM77.266 71.034c.088-1.968.176-3.936.258-5.903.037-.757-1.136-.753-1.167 0l-.264 5.903c-.03.757 1.142.757 1.173 0zM82.186 60.468l-.187-6.998c-.021-.757-1.19-.757-1.17 0l.188 6.998c.015.756 1.19.756 1.169 0zM88.309 72.427a31.932 31.932 0 001.315-7.012c.058-.756-1.116-.747-1.174 0a30.66 30.66 0 01-1.273 6.699c-.225.724.906 1.032 1.132.313M95.63 65.577c.533-2.223.855-4.47.972-6.752.036-.757-1.136-.752-1.173 0a35.766 35.766 0 01-.925 6.439c-.18.737.951 1.047 1.125.313M87.78 53.35c.382-2.372.58-4.755.591-7.161.005-.752-1.167-.752-1.172 0-.01 2.3-.188 4.577-.55 6.848-.12.738 1.016 1.056 1.13.313zM82.982 43.717c.265-2.966.364-5.936.286-8.922-.02-.752-1.196-.757-1.175 0a75.062 75.062 0 01-.287 8.922c-.067.757 1.108.747 1.176 0zM88.215 32.4c.194-1.78.194-3.554 0-5.333-.079-.743-1.25-.753-1.172 0 .194 1.779.194 3.554 0 5.333-.079.753 1.088.743 1.172 0zM100.156 47.023c.366-1.862.605-3.734.716-5.624.043-.757-1.136-.752-1.178 0-.101 1.79-.324 3.554-.67 5.31-.143.738.988 1.056 1.132.314M46.086 29.5c.26 2.3.754 4.542 1.508 6.731.244.714 1.377.406 1.132-.309A30.243 30.243 0 0147.26 29.5c-.085-.742-1.257-.752-1.173 0M66.782 28.846c.01-1.828.02-3.66.036-5.493.005-.757-1.173-.752-1.178 0-.01 1.833-.015 3.665-.03 5.493-.006.757 1.167.757 1.172 0z"
            fill="#F68C40"
        ></path>
        <path fill="#fff" fill-opacity="0.01" d="M149 149h1v1h-1z"></path>
    </svg>