 <svg
        xmlns="http://www.w3.org/2000/svg"
        width="150"
        height="150"
        viewBox="0 0 150 150"
        fill="none"
        style="width: 4rem; height: 4rem; background: none"
    >
        <path
            d="M117.441 43.053c3.429 3.415 6.527 7.199 9.359 11.178 1.499-1.448 2.886-3.047 3.962-4.69 10.353-15.8 8.558-34.111 3.59-38.8-4.549-4.298-14.905-3.312-23.461 1.377-8.858 4.857-11.814 8.12-17.393 14.885 8.356 3.431 16.974 9.101 23.943 16.05"
            fill="#724B2F"
        ></path>
        <path
            d="M117.441 43.044c.704.7 1.351 1.464 2.029 2.19 1.795-1.062 4.243-2.661 4.799-5.025-.515-.395-1.416.136-2.376-.195 1.703-.634 3.762-2.618 5.188-5.35-.08-.146-1.622-.395-2.099-.515.673-.666 3.793-5.025 3.519-5.935-.163-.537-1.576.287-2.139.26.586-.477 2.252-3.177 2.062-3.453-.104-.157-.98.488-1.977.537 1.03-1.35 1.895-3.979.923-6.131-7.499-.905-13.871 3.274-18.539 6.245-1.873 1.192-4.953 3.723-6.526 5.659.359.211.691.428 1 .66 5.034 3.074 9.893 6.82 14.136 11.053"
            fill="#3E2B1E"
        ></path>
        <path
            d="M18.506 58.285C26.06 48.382 34.9 38.018 45.2 31.935c1.568-.926 2.982-1.74 4.327-2.471-3.389-5.361-7.75-10.825-16.507-16.294-5.713-3.573-15.862-7.41-22.1-2.976-7.559 5.377-5.993 24.165-1.946 35.353 1.549 4.282 5.14 8.928 9.532 12.738"
            fill="#724B2F"
        ></path>
        <path
            d="M18.215 36.363c1.117 2.873 2.947 5.068 4.57 5.886-.99.223-1.829-.4-2.384-.065.353 2.9 3.824 5.041 5.772 6.597 4.587-5.306 9.574-10.293 14.99-14.19-4.177-5.898-12.199-10.528-16.889-11.617-1.84-.428-3.879-.564-5.525.363.082 1.301.219 2.591 1.095 4.044-.986-.157-1.787-.89-1.906-.754-1.148 3.573 1.823 8.717 2.42 9.454-.488.07-2.048.146-2.143.282"
            fill="#3E2B1E"
        ></path>
        <path
            d="M2 106.875c.116-1.431 3.466-9.736 6.233-13.444-1.092.39-2.796.445-3.914-.314 1.295-2.233 2.697-6.098 6.32-10-1.327-.196-2.641.151-3.811-.505 2.811-6.982 6.036-13.519 10.926-19.243-.565.282-2.331.211-2.967-.14 8.326-11.227 18.374-24.193 30.413-31.3 10.529-6.211 14.589-7.903 31.61-8.51 12.001-.428 28.723 7.757 40.631 19.628 12.233 12.191 20.671 28.762 25.327 43.967-1.641-.125-3.124-.423-4.66-1.014 2.758 4.732 5.771 9.388 7.497 14.587-1.931.672-2.866.536-5.053.834 3.183 3.871 5.683 6.521 6.448 12.95-1.438-.168-3.709-.347-5.147-.515 1.103 1.908 2.765 7.822 2.941 10.549-2.278.531-8.425 2.092-10.705 2.618.855 1.035 1.414 3.328 1.414 4.206-.858 1.036-29.302 11.438-61.41 11.004-32.107-.434-48.883-8.451-66.39-17.622.443-.542 1.934-1.86 3.188-2.488-2.822-1.269-5.8-2.114-7.996-4.001.81-3.127 2.466-8.163 3.696-10.792-.863.238-2.68-.049-4.591-.455"
            fill="#BF7F4A"
        ></path>
        <path
            d="M66.576 91.168a17.132 17.132 0 018.279-2.054c2.14.01 4.094.444 5.883 1.192.659-22.972 7.309-50.628 12.76-63.307-5.92-2.434-11.712-3.756-16.689-3.577-14.487.52-19.594 1.826-27.283 6.038l.155.65c5.133 10.376 11.288 25.374 16.104 53.984.365 2.174.608 4.586.791 7.074"
            fill="#AA6A44"
        ></path>
        <path
            d="M70.98 90.406c.241-2.369.089-4.7-.423-7.02-.23-1.045-1.838-.601-1.607.445.48 2.18.59 4.358.364 6.575-.108 1.068 1.56 1.057 1.666 0zM74.434 82.257c.15-2.916.122-5.821-.087-8.732-.076-1.063-1.743-1.073-1.667 0 .209 2.91.238 5.822.088 8.732-.055 1.074 1.611 1.074 1.666 0M81.156 52.731a36.826 36.826 0 00-1.076 8.218c-.02 1.073 1.647 1.073 1.666 0a34.814 34.814 0 011.017-7.773c.257-1.04-1.35-1.485-1.607-.445zM74 24.805a36.94 36.94 0 00.245 8.283c.147 1.057 1.753.607 1.607-.44a35.148 35.148 0 01-.186-7.843c.09-1.067-1.577-1.062-1.667 0M74.764 60.234a37.714 37.714 0 00-.4 6.803c.037 1.068 1.703 1.073 1.666 0-.072-2.13.03-4.25.341-6.358.154-1.052-1.451-1.502-1.607-.445zM71.328 64.33a64.484 64.484 0 00-.551-6.093c-.144-1.057-1.75-.607-1.607.445a59.88 59.88 0 01.492 5.648c.044 1.068 1.71 1.073 1.666 0M63.79 60.95a48.842 48.842 0 011.325 8.472c.071 1.062 1.738 1.073 1.666 0a51.311 51.311 0 00-1.385-8.912c-.257-1.04-1.865-.601-1.607.44zM66.876 51.037a63.186 63.186 0 00-1.597-10.245c-.252-1.04-1.858-.602-1.607.445a60.282 60.282 0 011.537 9.8c.078 1.063 1.746 1.068 1.667 0zM80.03 27.234a63.68 63.68 0 00-1.148 10.305c-.031 1.073 1.636 1.073 1.667 0a60.845 60.845 0 011.088-9.86c.203-1.046-1.402-1.496-1.607-.445M72.634 53.418a30.898 30.898 0 00-.85-8.51c-.25-1.041-1.858-.602-1.606.444a29.22 29.22 0 01.79 8.066c-.043 1.073 1.623 1.073 1.666 0zM87.098 28.142a22.204 22.204 0 00-1.812 7.383c-.075 1.074 1.592 1.068 1.666 0 .157-2.266.68-4.455 1.585-6.542.422-.976-1.013-1.822-1.44-.84M73.583 40.972a19.606 19.606 0 00-.602-5.344c-.265-1.04-1.872-.596-1.607.444a17.9 17.9 0 01.543 4.9c-.027 1.068 1.639 1.068 1.666 0zM70.55 28.988a15.189 15.189 0 00-.877-3.99c-.37-.997-1.982-.563-1.607.445.427 1.15.71 2.32.818 3.545.095 1.063 1.762 1.073 1.667 0zM69.895 77.35a14.837 14.837 0 00-.92-5.307c-.368-.998-1.98-.564-1.607.444.584 1.578.873 3.177.86 4.862-.008 1.068 1.658 1.074 1.667 0M63.52 53.418c-.239-1.897-.774-3.648-1.67-5.339-.503-.949-1.942-.108-1.44.84a13.008 13.008 0 011.444 4.5c.133 1.05 1.8 1.062 1.667 0zM84.147 40.057a15.305 15.305 0 00-1.349 5.431c-.065 1.068 1.602 1.068 1.666 0 .097-1.599.466-3.133 1.121-4.591.437-.97-.998-1.816-1.438-.84M76.505 85.009a14.82 14.82 0 00-.413 5.366c.113 1.052 1.78 1.063 1.666 0a13.548 13.548 0 01.354-4.927c.27-1.035-1.336-1.48-1.607-.44zM67.41 34.367a27.27 27.27 0 00-1.59-5.665c-.393-.981-2.006-.553-1.606.445a27.114 27.114 0 011.59 5.664c.176 1.057 1.782.607 1.607-.444zM61.193 35.146a26.256 26.256 0 00-2.303-6.792c-.477-.96-1.915-.12-1.439.84a24.697 24.697 0 012.135 6.397c.2 1.051 1.807.607 1.607-.445zM59.296 42.74a30.106 30.106 0 00-2.366-7.53c-.45-.97-1.886-.124-1.439.84a28.467 28.467 0 012.197 7.135c.183 1.051 1.79.607 1.608-.445zM78.234 69.658a30.272 30.272 0 00-.807 7.86c.031 1.067 1.697 1.073 1.666 0-.072-2.51.171-4.971.748-7.416.245-1.046-1.36-1.49-1.607-.444M77.275 43.68a30.255 30.255 0 00-.806 7.855c.03 1.073 1.697 1.073 1.666 0-.072-2.51.17-4.965.747-7.415.246-1.041-1.36-1.486-1.607-.44"
            fill="#6C472D"
        ></path>
        <path
            d="M134.089 127.023c2.28-.526 8.427-2.087 10.705-2.618-.176-2.727-1.838-8.641-2.941-10.549 1.438.168 3.709.347 5.147.515-.765-6.429-3.36-9.123-6.448-12.95-4.706-3.095-13.46-3.008-18.973-.677.577-2.06 1.995-4.429 1.973-5.68-5.885 2.21-16.563 9.74-19.86 12.64 1.053-1.962 1.777-3.99 1.704-5.871-12.021 3.226-19.335 14.912-30.833 15.747-11.497.835-31.332-17.351-33.281-16.733-.577 2.596.803 2.184 1.492 4.477-2.412-1.312-11.386-8.093-17.101-8.95.053 2.11 1.456 4.164 2.64 6.083C15.348 91.627 2.116 105.444 2 106.875c1.91.406 3.728.693 4.59.455-1.229 2.629-2.884 7.665-3.695 10.792 2.196 1.881 5.174 2.732 7.996 4.001-1.254.628-2.745 1.946-3.189 2.488 17.508 9.171 34.284 17.188 66.391 17.622 32.108.434 60.552-9.968 61.41-11.004 0-.878-.559-3.171-1.414-4.206"
            fill="#D59C5B"
        ></path>
        <path
            d="M96.742 137.152a26.59 26.59 0 005.372-.466c1.053-.2.607-1.805-.442-1.61-1.633.309-3.27.439-4.93.412-1.073-.022-1.073 1.648 0 1.664M111.788 107.607c-1.779 0-3.537.179-5.278.547-1.048.223-.604 1.832.443 1.61a23.028 23.028 0 014.835-.488c1.072 0 1.074-1.669 0-1.669zM106.306 131.739c1.64.151 3.279.2 4.926.146 1.069-.038 1.074-1.702 0-1.67-1.647.06-3.286.011-4.926-.146-1.067-.098-1.06 1.567 0 1.67zM134.033 114.059c1.526.011 2.842.238 4.039 1.263.812.688 1.996-.483 1.179-1.182-1.545-1.317-3.221-1.734-5.218-1.745-1.073-.006-1.074 1.658 0 1.664M98.685 126.938h4.688c1.073 0 1.075-1.67 0-1.67h-4.688c-1.072 0-1.074 1.67 0 1.67zM97.902 117.066l4.536-.439c1.058-.103 1.068-1.773 0-1.664-1.512.141-3.024.287-4.536.433-1.058.103-1.068 1.773 0 1.67zM116.138 134.539c2.525.211 5.001-.141 7.331-1.144.982-.417.135-1.854-.841-1.436-2.051.878-4.282 1.1-6.49.91-1.068-.087-1.062 1.578 0 1.67zM121.087 127.821c2.08.298 4.177.168 6.144-.607.986-.39.557-2.006-.443-1.61a10.298 10.298 0 01-5.258.613c-1.049-.152-1.503 1.452-.443 1.604M109.238 122.788c2.198.331 4.397.233 6.527-.428 1.021-.314.585-1.924-.443-1.61a12.66 12.66 0 01-5.641.434c-1.049-.157-1.502 1.447-.443 1.604M116.158 114.546c2.137.071 4.25-.157 6.316-.71 1.035-.282.596-1.886-.443-1.61-1.929.521-3.879.721-5.873.656-1.073-.038-1.072 1.632 0 1.664zM125.363 102.125c-1.887-.097-3.763.103-5.557.71-1.011.342-.577 1.952.443 1.605 1.665-.564 3.363-.738 5.114-.651 1.071.06 1.069-1.61 0-1.664M133.64 119.338c-1.776-.515-3.601-.748-5.446-.569-1.057.097-1.068 1.767 0 1.664 1.708-.163 3.359.038 5.003.515 1.031.298 1.472-1.312.443-1.61zM131.948 107.891a73.43 73.43 0 00-5.222-.715c-1.066-.109-1.058 1.555 0 1.664 1.602.162 3.193.385 4.779.661 1.048.184 1.499-1.426.443-1.61zM136.378 104.647l2.904.569c1.047.206 1.496-1.398.443-1.604l-2.904-.569c-1.047-.206-1.496 1.398-.443 1.604zM36.945 113.121c1.63.098 3.22.353 4.795.786 1.035.288 1.477-1.322.443-1.61a25.227 25.227 0 00-5.238-.84c-1.071-.065-1.067 1.605 0 1.664zM46.635 134.794a35.217 35.217 0 01-4.66-.515c-1.048-.184-1.498 1.421-.443 1.61 1.69.298 3.39.494 5.103.575 1.072.049 1.07-1.615 0-1.67zM28.572 113.848a35.673 35.673 0 01-4.604-.607c-1.047-.212-1.495 1.398-.443 1.604 1.668.336 3.35.559 5.047.672 1.07.071 1.066-1.599 0-1.669M50.11 127.617h-4.688c-1.072 0-1.073 1.664 0 1.664h4.689c1.072 0 1.074-1.664 0-1.664zM48.99 119.713c-1.512-.147-3.025-.288-4.536-.434-1.067-.103-1.06 1.561 0 1.664l4.536.439c1.066.103 1.06-1.566 0-1.669zM47.035 110.691c1.239.119 2.397.499 3.43 1.192.891.602 1.726-.84.841-1.436-1.286-.867-2.74-1.274-4.27-1.426-1.067-.103-1.06 1.561 0 1.67zM36.928 129.459a10.292 10.292 0 01-5.26-.613c-.996-.395-1.43 1.22-.442 1.61 1.968.775 4.064.906 6.145.607 1.057-.151.607-1.756-.443-1.604M32.725 121.882c-1.995.065-3.945-.136-5.874-.656-1.037-.276-1.479 1.328-.443 1.61 2.067.553 4.18.781 6.317.71 1.07-.032 1.075-1.702 0-1.664zM31.734 104.464c1.658.184 3.262.628 4.74 1.409.947.499 1.79-.938.84-1.442-1.75-.921-3.616-1.42-5.58-1.631-1.064-.114-1.056 1.55 0 1.664M20.101 125.729c-1.761-.38-3.5-.84-5.217-1.388-1.024-.325-1.463 1.279-.443 1.605a55.947 55.947 0 005.217 1.387c1.046.228 1.493-1.376.443-1.604zM13.949 120.17c1.6-.276 3.217-.293 4.809.043 1.045.223 1.493-1.382.443-1.604-1.903-.401-3.784-.374-5.695-.043-1.055.178-.607 1.788.443 1.604M25.674 106.15a64.63 64.63 0 01-4.782-.634c-1.049-.179-1.5 1.431-.443 1.61 1.733.293 3.475.52 5.224.694 1.067.103 1.06-1.567 0-1.67zM57.831 136.356c-1.362-.108-2.724-.222-4.086-.33-1.07-.082-1.063 1.582 0 1.669l4.086.325c1.07.087 1.064-1.583 0-1.664M8.92 113.85c1.525-.217 3.076-.233 4.595.027 1.05.179 1.5-1.426.443-1.605-1.84-.32-3.635-.292-5.48-.027-1.058.147-.608 1.751.442 1.605M10.373 104.865c1.2-.266 2.402-.526 3.603-.792 1.046-.227.604-1.837-.443-1.604-1.2.26-2.402.526-3.603.791-1.047.228-.604 1.832.443 1.605z"
            fill="#FAB374"
        ></path>
        <path
            d="M33.528 84.52c-9.287-.416-11.09 13.346 0 13.775 11.091.433 9.593-13.346 0-13.774zM111.722 84.578c-9.289-.417-11.091 13.346 0 13.78 11.09.428 9.591-13.346 0-13.78z"
            fill="#B65D4B"
        ></path>
        <path
            d="M39.395 89.856c8.846 3.87 11.061-8.429 5.761-11.79-5.3-3.355-14.605 7.915-5.76 11.79M106.064 89.778c8.166-3.664.517-14.289-5.411-11.795-5.929 2.493-2.756 15.46 5.411 11.795z"
            fill="#1F1611"
        ></path>
        <path
            d="M74.855 89.11c-15.855-.082-23.878 20.164-22.35 36.019.923 9.573 15.72 12.332 20.822 12.419 9.765.168 21.74-2.619 22.54-13.563.892-12.196-5.157-34.794-21.012-34.876z"
            fill="#FCD5B1"
        ></path>
        <path
            d="M83.74 98.508c-1.567-1.425-3.048-2.276-4.992-2.634-3.347-.607-6.835-.905-10.062.32-3.227 1.225-6.155 4.271-6.767 8.255-.478 3.101-.192 7.269.966 10.099 1.515 3.707 2.844 6.017 6.327 9.301 2.817 2.662 6.593 1.838 9.503-.081 3.252-2.146 5.494-6.006 6.973-10.082.939-2.58 1.14-5.041 1.04-7.855-.099-2.813-1.114-5.621-2.989-7.323z"
            fill="#1F1611"
        ></path>
        <path
            d="M87.046 122.849c-3.832 4.043-8.131 6.13-12.443 6.325l.126-3.761c-.669.119-1.341.168-2.003.092l-.121 3.626c-4.148-.385-8.242-2.531-11.875-6.467-.875-.948-2.286.472-1.414 1.415 4.143 4.488 8.974 6.825 13.85 7.052.17.06.359.065.543.033 5.146.076 10.314-2.223 14.75-6.901.885-.932-.526-2.352-1.413-1.414"
            fill="#1F1611"
        ></path>
        <path
            d="M42.505 59.087c-5.243-.233-6.26 7.535 0 7.779 6.26.238 5.414-7.535 0-7.779zM101.895 59.087c-5.243-.233-6.26 7.535 0 7.779 6.26.238 5.414-7.535 0-7.779z"
            fill="#9B643D"
        ></path>
        <path fill="#fff" fill-opacity="0.01" d="M149 149h1v1h-1z"></path>
    </svg>