 <svg
        xmlns="http://www.w3.org/2000/svg"
        width="150"
        height="150"
        viewBox="0 0 150 150"
        fill="none"
        style="width: 4rem; height: 4rem; background: none"
    >
        <path
            d="M34.763 36.538c-4.779-8.216-14.825-15.324-23.556-18.576-5.158 8.753-4.597 26.773 1.398 36.01C18.75 47.312 26.4 41.32 34.763 36.539"
            fill="#2B3333"
        ></path>
        <path
            d="M27.987 40.791c-3.198-4.192-8.679-10.624-15.307-13.804-1.356 5.794 1.361 17.085 3.914 22.95a93.624 93.624 0 0111.393-9.146z"
            fill="#E4ECD7"
        ></path>
        <path
            d="M116.534 36.697c6.033 3.607 11.259 7.9 15.752 12.37 4.639-6.926 7.889-25.066.021-34.069-9.65 5.44-17.829 11.54-22.44 18.097a85.852 85.852 0 016.667 3.602"
            fill="#2B3333"
        ></path>
        <path
            d="M127.823 44.918c5.565-6.322 4.261-18.542 3.52-18.93-.708-.375-10.737 8.009-13.661 11.433a80.543 80.543 0 0110.141 7.497"
            fill="#E4ECD7"
        ></path>
        <path
            d="M74.732 24.88C44.956 24.733 8.99 48.235 0 73.98c.095 1.809 6.322 19.286 20.912 32.869 8.009 7.454 29.096 24.931 53.186 25.229 24.236.302 47.34-15.842 57.559-26.888 9.967-10.777 17.008-24.926 18.343-32.28-5.117-9.558-15.986-25.765-33.467-36.211-11.302-6.758-25.375-11.732-41.801-11.818"
            fill="#B7BDAB"
        ></path>
        <path
            d="M95.083 72.39c3.479-11.88 8.966-27.861 10.473-41.233-9.034-3.77-19.353-6.221-30.824-6.279-10.776-.053-22.36 3.003-33.185 8.13 2.322 13.022 7.7 30.466 11.72 41.066 2.397 6.316 9.106 28.269 21.076 29.324 11.971 1.051 16.713-17.252 20.74-31.008"
            fill="#9CA291"
        ></path>
        <path
            d="M44.721 35.905a48.493 48.493 0 012.562 7.842c.157.667 1.174.364 1.018-.297a48.188 48.188 0 00-2.562-7.842c-.264-.624-1.285-.331-1.017.297zM53.8 41.194a41.185 41.185 0 00-1.945-7.232c-.237-.643-1.227-.26-.99.383a39.456 39.456 0 011.88 6.97c.117.666 1.173.556 1.056-.12zM56.916 32.55a149.087 149.087 0 011.678 7.376c.135.672 1.158.384 1.024-.283a150.8 150.8 0 00-1.678-7.377c-.169-.661-1.193-.378-1.024.283zM62.864 30.529c.46 2.743.918 5.487 1.376 8.225.112.677 1.135.389 1.023-.278l-1.375-8.23c-.113-.672-1.136-.389-1.023.283zM69.466 29.055c.575 2.988.799 6.024.71 9.065-.02.681 1.038.576 1.058-.096a41.543 41.543 0 00-.71-9.065c-.129-.667-1.187-.575-1.058.096zM76.476 29.502c-.072 2.69-.036 5.381.106 8.067.036.681 1.098.686 1.061 0a101.885 101.885 0 01-.106-8.067c.018-.686-1.044-.681-1.061 0zM83.157 29.64a67.23 67.23 0 01-.027 7.785c-.042.686 1.02.681 1.062 0 .159-2.595.167-5.19.026-7.784-.037-.681-1.098-.686-1.061 0zM96.145 40.33a123.174 123.174 0 011.943-8.517c.177-.662-.848-.945-1.023-.284a122.789 122.789 0 00-1.943 8.524c-.128.666.895.95 1.023.278zM55.722 59.674a45.316 45.316 0 00-2.736-7.08c-.3-.613-1.215-.076-.917.538a43.599 43.599 0 012.63 6.825c.191.657 1.215.38 1.023-.283zM57.11 50.453c.81 2.629 1.618 5.262 2.427 7.89.201.653 1.226.374 1.023-.283l-2.425-7.885c-.201-.652-1.226-.374-1.024.279zM62.9 49.543a215.652 215.652 0 002.24 9.06c.179.662 1.202.38 1.024-.282a216.115 216.115 0 01-2.24-9.06c-.15-.667-1.173-.384-1.023.282zM69.455 49.259c.305 2.638.708 5.257 1.213 7.861.13.672 1.154.389 1.024-.283a99.725 99.725 0 01-1.176-7.578c-.078-.672-1.14-.676-1.061 0zM75.601 47.92l1.02 9.487c.072.671 1.135.68 1.061 0l-1.02-9.487c-.072-.672-1.134-.681-1.06 0zM81.684 49.088l-.315 6.816c-.031.68 1.022.806 1.054.12l.316-6.811c.03-.681-1.023-.806-1.055-.125zM87.84 47.784a126.35 126.35 0 00-1.23 9.77c-.06.686 1.003.68 1.06 0 .276-3.175.673-6.34 1.194-9.492.11-.667-.912-.954-1.024-.278M93.413 57.82a54.54 54.54 0 011.85-7.453c.21-.647-.768-1.06-.98-.407a56.238 56.238 0 00-1.921 7.717c-.119.676.934.82 1.051.144zM60.77 70.314c.81 2.772 1.534 5.568 2.172 8.384.151.666 1.174.383 1.023-.283a140.125 140.125 0 00-2.172-8.384c-.192-.652-1.216-.374-1.023.283zM73.641 68.46c-.01 2.6-.022 5.194-.033 7.789-.002.68 1.056.767 1.058.086l.033-7.79c.003-.68-1.055-.771-1.058-.085zM80.561 77.803c.322-3.31.732-6.605 1.231-9.89.103-.676-.952-.791-1.054-.12-.5 3.286-.91 6.585-1.231 9.89-.066.681.989.801 1.054.12zM69.032 76.802a38.654 38.654 0 00-1.133-6.83c-.172-.657-1.211-.437-1.038.225a37.2 37.2 0 011.111 6.547c.052.672 1.113.739 1.06.058M90.027 38.525a36.32 36.32 0 01.854-7.17c.148-.667-.879-.94-1.027-.269a37.782 37.782 0 00-.888 7.454c-.014.685 1.047.671 1.06-.015M85.822 78.612a93.53 93.53 0 012.15-8.552c.198-.653-.853-.816-1.048-.173a93.612 93.612 0 00-2.15 8.557c-.135.671.913.84 1.048.168zM81.646 85.972c-5.882-4.585-13.009-3.875-17.41 3.87-3.134 5.516-14.045 30.798-8.8 36.568 8.61 9.463 34.245 6.666 39.41.211 4.407-5.502-7.66-36.332-13.2-40.649z"
            fill="#E4ECD7"
        ></path>
        <path
            d="M64.513 122.269c-1.727 4.052 6.67 12.825 11.718 12.782 2.318-.024 4.7-1.358 7.204-3.684 2.95-2.739 4.894-6.83 4.334-8.931-.842-3.155-7.153-3.865-12.847-3.769-5.205.091-9.004.307-10.41 3.602"
            fill="#1F1611"
        ></path>
        <path
            d="M109.016 63.367c-2.054 3.593 5.307 9.075 8.047 5.305 2.74-3.765-5.714-9.386-8.047-5.305zM37.392 64.186c2.568 2.226-2.226 10.101-7.02 7.017-4.793-3.079 3.624-9.961 7.02-7.017z"
            fill="#9CA291"
        ></path>
        <path
            d="M42.993 103.321c-1.229-2.59-4.01-4.431-7.509-4.355-2.303.053-4.364 1.401-5.93 2.969-1.297 1.295-1.786 2.513-1.499 4.264.223 1.353 1.59 4.297 6.105 4.978 2.595.389 5.543.432 7.513-1.184 1.776-1.453 2.548-4.082 1.32-6.672M119.751 101.379c-.53-.537-1.23-.921-1.947-1.257-2.161-1.002-4.807-1.597-7.117-.738-1.632.604-2.88 1.304-3.991 3.031-1.11 1.722-.466 4.715.392 5.971.857 1.262 3.476 3.463 7.583 2.974 2.492-.297 6.111-2.35 6.861-5.252.45-1.741-1.096-4.038-1.781-4.729"
            fill="#C18E89"
        ></path>
        <path
            d="M117.64 87.945c-.255-1.607-.859-4.58-4.059-4.523-3.199.053-3.764 5.496-3.26 7.103.505 1.602 1.346 4.504 4.399 4.23 3.053-.268 3.175-5.204 2.92-6.81zM34.875 84.033c-3.29.782-3.622 6.59-2.71 8.49 1.425 2.968 3.78 3.319 5.573 2.21 3.295-2.033 1.745-11.803-2.863-10.7z"
            fill="#1F1611"
        ></path>
        <path fill="#fff" fill-opacity="0.01" d="M149 149h1v1h-1z"></path>
    </svg>