  <svg
        xmlns="http://www.w3.org/2000/svg"
        width="150"
        height="150"
        viewBox="0 0 150 150"
        fill="none"
        style="width: 4rem; height: 4rem; background: none"
    >
        <path fill="#fff" fill-opacity="0.01" d="M149 149h1v1h-1z"></path>
        <path
            d="M36.193 57.437c4.156-3.81-3.977-7.667-5.545-3.637-1.567 4.034 2.335 6.579 5.545 3.637z"
            fill="#F7FAED"
        ></path>
        <path
            d="M48.65 29.387C44.667 22.775 26.16 7.985 23.342 8.45c-2.474 2.162-12.308 26.961-9.166 46.016 7.031-8.747 20.38-19.733 34.476-25.079z"
            fill="#B2AAA9"
        ></path>
        <path
            d="M39.036 33.922c-2.699-4.298-12.376-15.156-13.88-14.727-1.705.486-4.839 20.785-4.378 28.194 5.064-4.784 11.396-9.62 18.258-13.467"
            fill="#DBD3D1"
        ></path>
        <path
            d="M145.096 74.847c-3.792-10.55-10.979-19.484-19.22-26.792-18.437-16.345-43.455-25.292-67.384-21.381-17.702 2.89-36.269 17.49-44.746 28.319C5.269 65.82.388 74.89 1.1 86.644c.707 11.628 7.406 22.26 16.27 29.388 8.865 7.131 19.719 11.114 30.66 13.65a138.718 138.718 0 0058.073.935c14.789-2.93 30.376-9.346 37.642-23.053 5.225-9.865 5.148-22.168 1.351-32.717"
            fill="#B2AAA9"
        ></path>
        <path
            d="M125.875 48.053c3.73 3.307 7.24 6.952 10.321 10.926 3.216-13.045-4.062-40.706-6.849-45-2.567-1.617-22.844 11.346-28.333 18.334 9.015 3.822 17.467 9.184 24.861 15.74z"
            fill="#B2AAA9"
        ></path>
        <path
            d="M55.483 83.038c5.825-7.27 15.832-10.449 24.66-8.23 4.718 1.187 9.077 3.876 12.36 7.568-1.502-13.702-4.705-29.277-8.892-41.948-.742-2.244-1.548-4.515-2.956-6.373-1.407-1.853-3.532-3.256-5.79-3.154-3.647.164-6.117 3.915-7.766 7.353-5.655 11.782-11.023 31.078-11.86 45.114.082-.11.157-.223.244-.33z"
            fill="#908789"
        ></path>
        <path
            d="M72.632 46.873a35.39 35.39 0 00-.57 6.62c.007.803 1.258.858 1.25.05a33.78 33.78 0 01.514-6.288c.142-.783-1.051-1.171-1.194-.382M78.263 51.914a52.05 52.05 0 00.02 7.444c.058.796 1.312.857 1.253.052a51.721 51.721 0 01-.023-7.445c.057-.804-1.193-.855-1.25-.05M67.047 53.951a51.738 51.738 0 00-.289 7.758c.032.802 1.283.857 1.252.052-.1-2.598-.001-5.179.291-7.76.09-.801-1.161-.846-1.254-.05zM74.072 69.768a56.78 56.78 0 00.261-8.09c-.03-.8-1.282-.859-1.25-.05a57.127 57.127 0 01-.261 8.09c-.085.804 1.168.85 1.25.05zM60.18 76.855c.034-2.214.309-4.4.774-6.565.168-.79-1.067-.993-1.236-.206a35.539 35.539 0 00-.783 6.902c-.01.806 1.235.669 1.246-.131M69.17 73.84c.026-1.566.052-3.132.075-4.699.014-.806-1.238-.859-1.25-.05-.026 1.565-.05 3.132-.075 4.698-.015.807 1.238.859 1.25.05zM86.085 64.98a29.813 29.813 0 00-.545-5.915c-.15-.792-1.371-.51-1.218.285a28.52 28.52 0 01.513 5.58c-.007.805 1.244.86 1.25.05zM79.872 43.938c-.092-1.938-.181-3.874-.27-5.81-.038-.8-1.29-.858-1.251-.051l.268 5.809c.037.799 1.29.857 1.253.051zM67.62 47.094c.259-2.07.516-4.145.772-6.218.1-.802-1.151-.846-1.25-.05-.256 2.072-.515 4.145-.771 6.218-.1.802 1.151.846 1.25.05zM74.225 40.256a30.376 30.376 0 01.263-4.99c.106-.802-1.146-.845-1.252-.053a30.931 30.931 0 00-.263 4.99c.026.803 1.276.86 1.252.053zM64.184 68.529c.071-1.737.14-3.475.212-5.212.034-.808-1.219-.86-1.25-.05-.072 1.736-.143 3.473-.212 5.211-.034.809 1.217.857 1.25.051zM84.974 50.547a13.051 13.051 0 01-.37-3.482c.02-.806-1.23-.857-1.25-.05-.037 1.29.094 2.563.4 3.815.19.784 1.41.504 1.22-.283M79.849 69.18c.22 1.162.283 2.318.188 3.499-.063.804 1.183.921 1.247.115a14.425 14.425 0 00-.202-3.833c-.15-.792-1.384-.573-1.233.22zM88.43 76.288a25.177 25.177 0 01-.737-4.816c-.047-.798-1.296-.857-1.25-.05.098 1.74.332 3.46.767 5.15.2.78 1.42.5 1.22-.284z"
            fill="#6B5F65"
        ></path>
        <path
            d="M131.498 79.654c-13.487-13.108-32.073-14.926-58.22-15.463-26.15-.535-45.741.453-58.038 13.379-6.548 6.887-6.709 17.729-3.128 24.277 3.368 6.166 12.648 9.514 22.546 5.382 6.019-2.515 9.254-7.289 11.771-12.23 6.082-11.95 16.333-20 28.362-19.297 12.034.7 21.973 8.358 27.375 20.794 3.439 7.915 4.946 9.879 10.261 13.365 5.159 3.383 14.61 2.583 19.292-1.722 4.889-4.493 10.423-18.137-.221-28.485z"
            fill="#272127"
        ></path>
        <path
            d="M42.984 80.076c-1.11-2.742-3.759-4.738-6.664-5.29-3.444-.655-7.241.746-9.294 3.59-2.052 2.842-2.266 7.096-.08 9.839 3.41 4.276 11.015 4.913 14.88-.045 1.758-2.25 2.23-5.449 1.158-8.094"
            fill="#fff"
        ></path>
        <path
            d="M38.015 81.8c-.461-1.134-1.555-1.96-2.76-2.188-1.426-.272-3 .309-3.848 1.484-.85 1.178-.888 2.902-.033 4.076.707.97 4.005 2.46 6.16-.018.779-.892.926-2.256.481-3.353"
            fill="#1F1611"
        ></path>
        <path
            d="M122.923 81.083c-2.103-3.014-10.384-6.083-14.879.042-1.69 2.305-2.232 5.45-1.157 8.097 1.11 2.739 3.758 4.735 6.663 5.29 3.444.652 7.243-.748 9.293-3.591 2.055-2.84 2.087-6.964.08-9.838z"
            fill="#fff"
        ></path>
        <path
            d="M118.497 84.143c-.709-.97-4.082-2.545-6.161.018-.747.917-.925 2.257-.479 3.351.458 1.136 1.557 1.962 2.756 2.19 1.429.273 3.001-.308 3.851-1.486.852-1.176.888-2.902.033-4.073"
            fill="#1F1611"
        ></path>
        <path
            d="M107.234 48.37c-2.325 3.706 5.209 9.808 8.265 5.95 3.054-3.857-5.626-10.157-8.265-5.95zM42.782 46.592c2.613 2.459-2.788 10.564-7.715 7.105-4.927-3.46 4.256-10.359 7.715-7.105z"
            fill="#908789"
        ></path>
        <path
            d="M96.896 89.475c-2.87-7.295-9.381-12.81-16.754-14.665-8.828-2.218-18.837.959-24.661 8.23-5.827 7.269-6.953 18.363-2.344 26.493 4.448 7.845 14.101 10 21.965 9.875 7.867-.125 14.648-1.929 18.935-7.545 4.722-6.192 5.73-15.095 2.86-22.388z"
            fill="#DBD3D1"
        ></path>
        <path
            d="M87.408 107.567c.394-2.193.592-4.387.569-6.617-.007-.804-1.258-.858-1.25-.051a33.543 33.543 0 01-.513 6.286c-.14.785 1.05 1.174 1.194.382M70.285 103.085c.171-2.485.164-4.96-.023-7.445-.058-.795-1.309-.856-1.25-.05.184 2.483.192 4.958.02 7.443-.054.806 1.196.857 1.253.052M81.494 101.037a51.31 51.31 0 00.291-7.76c-.03-.801-1.283-.857-1.25-.05a51.613 51.613 0 01-.29 7.759c-.09.801 1.16.846 1.25.051M56.305 96.34c.21 2.7.608 5.366 1.2 8.006.176.782 1.415.613 1.24-.175a56.857 56.857 0 01-1.201-8.006c-.065-.806-1.304-.624-1.24.175zM92.409 88.898c.242 2.204.24 4.407.048 6.613-.069.804 1.183.852 1.25.05.203-2.322.177-4.629-.078-6.946-.087-.8-1.305-.51-1.22.283M78.29 76.105c-.026 1.566-.05 3.133-.077 4.7-.01.806 1.238.86 1.253.052l.074-4.701c.014-.807-1.239-.86-1.25-.05zM62.459 90.007a30.149 30.149 0 00.545 5.916c.153.794 1.373.51 1.22-.284a28.197 28.197 0 01-.513-5.58c.005-.806-1.244-.859-1.252-.052zM68.672 111.057l.269 5.809c.039.8 1.289.857 1.252.052l-.27-5.81c-.038-.799-1.29-.857-1.25-.051zM80.924 107.9a5439.86 5439.86 0 01-.77 6.218c-.1.802 1.153.848 1.252.052l.77-6.218c.1-.802-1.153-.848-1.252-.052zM91.708 106.903a30.623 30.623 0 01-.597 4.961c-.158.793 1.088.92 1.245.136.33-1.639.536-3.291.6-4.96.024-.804-1.222-.943-1.248-.137M85.493 86.514c-.07 1.74-.142 3.478-.211 5.216-.033.806 1.218.856 1.25.05.072-1.736.14-3.475.213-5.214.033-.806-1.217-.856-1.252-.052M56.406 84.03c-.069 1.739-.14 3.475-.21 5.216-.033.806 1.217.857 1.25.048.072-1.736.141-3.475.213-5.212.032-.805-1.22-.857-1.253-.051M63.569 104.447a13.21 13.21 0 01.37 3.482c-.023.805 1.23.857 1.25.05a14.407 14.407 0 00-.402-3.816c-.19-.784-1.41-.503-1.218.284M53.296 104.274a13.063 13.063 0 01-.294-3.488c.038-.805-1.211-.884-1.251-.076-.063 1.287.04 2.563.32 3.822.173.787 1.402.533 1.225-.258M96.07 98.484a13.22 13.22 0 01-.242 3.492c-.164.789 1.058 1.059 1.22.268.26-1.264.356-2.541.27-3.83-.051-.8-1.3-.738-1.249.07M87.346 80.556c.343 1.133.528 2.274.56 3.456.023.807 1.275.79 1.252-.017a14.44 14.44 0 00-.61-3.789c-.232-.77-1.436-.424-1.202.35M66.964 78.055c.405 1.58.642 3.184.735 4.815.047.798 1.3.857 1.25.05-.098-1.74-.332-3.459-.767-5.15-.2-.78-1.42-.5-1.218.285zM60.393 114.138a24.984 24.984 0 01-.761-4.808c-.05-.8-1.302-.852-1.253-.046.11 1.742.352 3.459.796 5.145.205.78 1.424.493 1.218-.291"
            fill="#E7E6E3"
        ></path>
        <path
            d="M73.308 94.85c.222 5.866-.004 11.7-.738 17.539-.187 1.469 2.113 1.555 2.298.094.736-5.859.963-11.711.736-17.597-.788.035-1.554.02-2.296-.036"
            fill="#1F1611"
        ></path>
        <path
            d="M83.101 85.107c-1.406-1.464-3.309-2.52-8.492-2.927-5.184-.407-10.749 1.329-10.84 6.033-.095 4.706 7.039 7.84 14.974 6.328 2.326-.444 4.863-1.46 5.74-3.745.737-1.93.028-4.226-1.382-5.69z"
            fill="#1F1611"
        ></path>
    </svg>
