 <svg
        xmlns="http://www.w3.org/2000/svg"
        width="150"
        height="150"
        viewBox="0 0 150 150"
        fill="none"
        style="width: 4rem; height: 4rem; background: none"
    >
        <path
            d="M46.525 16.223C33.663 19.863 11.18 30.426 9.217 58.336c-.82 19.765 4.206 39.877 12.244 52.562 17.447 27.535 58.265 36.471 88.957 19.471 5.044-2.798 9.817-6.193 13.969-10.253 16.804-16.423 19.672-43.392 17.266-68.283-1.142-10.747-6.034-19.584-13.696-26.006-21.201-17.762-62.678-14.012-81.432-9.604"
            fill="#DEA059"
        ></path>
        <path
            d="M110.417 130.369c5.044-2.798 9.817-6.193 13.969-10.253 16.102-15.737 19.383-41.145 17.517-65.137-5.709-4.093-14.709-2.971-20.445 1.605-6.66 5.311-9.909 13.73-12.538 21.838-2.633 8.103-5.098 16.613-10.812 22.931-6.155 6.802-15.858 10.209-24.913 8.745-5.305-.86-10.46-3.396-13.805-7.602-2.9-3.646-4.264-8.239-6.04-12.543a65.354 65.354 0 00-12.197-19.188c-3.556-3.88-7.774-7.428-12.86-8.788-3.586-.958-7.372-.767-11.066-.403-2.741.267-5.498.642-8.092 1.562.098 18.17 4.938 36.106 12.325 47.762 17.447 27.535 58.265 36.471 88.957 19.471z"
            fill="#EEC390"
        ></path>
        <path
            d="M133.441 56.42c-2.068-1.078-4.598-.98-6.808-.218-2.203.767-4.146 2.133-6.007 3.542-2.808 2.139-5.785 4.332-7.445 7.445-5.882 11.035-6.094 20.39-5.942 21.914.158 1.518.903 3.069 2.253 3.787 1.856.98 5.959 1.366 9.757-6.808 1.099-2.372 1.562-5 2.721-7.34 2.552-5.181 7.575-8.577 11.765-12.544 1.186-1.132 2.367-2.405 2.721-4.005.5-2.28-.942-4.702-3.015-5.774zM137.555 67.815c-3.564 1.812-8.293 10.77-11.922 16.13-1.029 1.512-2.041 3.042-3.233 4.43-1.981 2.323-6.231 9.468-1.953 9.832 4.397.376 8.38-2.742 11.824-5.507 1.698-1.365 3.331-2.857 4.523-4.68 1.186-1.833 1.888-3.934 2.465-6.034 1.191-4.316 1.855-15.977-1.704-14.17zM51.373 87.716c-.48-3.554-2.109-6.857-4.007-9.904-4.763-7.64-11.831-14.334-20.599-16.38-1.88-.44-3.878-.653-5.721-.082-1.843.577-3.49 2.09-3.753 4.005-.24 1.742.67 3.44 1.769 4.816a16.729 16.729 0 003.887 3.532c2.43 1.589 5.238 2.52 7.725 4.016 7.644 4.61 14.443 18.883 18.261 19.4 3.818.517 2.918-5.845 2.438-9.403M26.689 81.335c-3.212-2.64-7.173-5.142-10.268-6.443-.477-.201-1.077-.375-1.472-.043-.191.163-.283.413-.355.653-1.236 4.092.885 8.38 3.061 12.059 1.531 2.59 3.168 5.19 5.5 7.09 3.588 2.928 13.881 7.444 16.724 4.544 2.843-2.9-7.836-13.463-13.19-17.86"
            fill="#FDE9C9"
        ></path>
        <path
            d="M46.524 16.217a64.976 64.976 0 00-12.73 5.11c4.092 5.937 9.49 18.785 17.803 36.509 5.623 11.993 15.052 45.819 27.818 44.867 12.767-.958 18.094-28.526 23.688-45.792 3.135-9.676 8.152-28.346 12.402-38.37-22.284-9.142-53.43-5.98-68.98-2.324"
            fill="#C26E3C"
        ></path>
        <path
            d="M80.944 53.086c.381-2.78.523-5.556.381-8.364-.054-1.012-1.632-1.018-1.578 0a42.147 42.147 0 01-.326 7.945c-.136.99 1.382 1.42 1.523.419zM73.707 49.78a65.594 65.594 0 00-.898-9.337c-.169-.99-1.747-.92-1.578.087.522 3.09.822 6.198.898 9.332.027 1.018 1.6.936 1.578-.081zM86.936 42.53c.234-3.265.223-6.52-.033-9.779-.081-1.007-1.66-1.017-1.578 0 .256 3.26.267 6.514.033 9.779-.07 1.017 1.507 1.007 1.578 0zM78.964 81.826c-.038-3.275-.01-4.331-.539-7.558-.163-1.001-1.736-.876-1.572.13.533 3.233.5 4.289.538 7.56.011 1.017 1.584.88 1.573-.132zM77.423 25.934a71.654 71.654 0 00.082 10.198c.081 1.006 1.66 1.017 1.578 0A70.866 70.866 0 0179 25.934c.06-1.018-1.518-1.012-1.578 0zM71.406 17.43c.413 2.759.522 5.534.397 8.315-.049 1.017 1.53 1.017 1.578 0a44.757 44.757 0 00-.457-8.74c-.152-1.001-1.67-.571-1.518.425M84.35 70.608c.099 2.786-.108 5.555-.554 8.309-.164 1.007 1.403 1.18 1.567.18.468-2.895.647-5.801.544-8.734-.038-1.013-1.594-.762-1.556.245M59.641 30.283c-.816-2.667-1.332-5.398-1.613-8.168-.102-1.018-1.663-.778-1.56.228a44.415 44.415 0 001.73 8.576c.297.975 1.737.327 1.443-.636M84.144 17l.147 5.92c.022 1.018 1.6 1.018 1.578 0L85.722 17c-.027-1.018-1.605-1.018-1.578 0zM64.021 33.115c.082 2.509.408 4.98.985 7.422.234.99 1.752.566 1.524-.419a35.354 35.354 0 01-.93-7.003c-.039-1.012-1.617-1.018-1.579 0M71.976 58.766l.637 7.297c.092 1.007 1.67 1.012 1.578 0l-.637-7.297c-.087-1.007-1.665-1.018-1.578 0zM87.24 53.483l-.652 7.87c-.088 1.011 1.49 1.006 1.578 0l.653-7.87c.081-1.012-1.497-1.006-1.579 0zM79.546 62.168c.152 2.1.114 4.195-.07 6.296-.093 1.012 1.485 1.001 1.572 0 .19-2.1.228-4.196.076-6.296-.07-1.007-1.649-1.018-1.578 0zM91.784 21.712c-.158 2.187-.32 4.37-.479 6.557-.076 1.012 1.497 1.132 1.573.114.158-2.182.321-4.37.484-6.557.071-1.012-1.501-1.132-1.578-.114zM64.081 47.162c.5 1.404 1.344 5.148 1.458 6.634.076 1.017 1.65.92 1.573-.098-.12-1.616-.996-5.518-1.54-7.047-.337-.958-1.834-.452-1.491.511zM72.75 77.059a16.487 16.487 0 01-.882-4.321c-.07-1.018-1.643-.93-1.572.087.109 1.616.424 3.2.957 4.734.332.963 1.829.463 1.497-.5zM91.453 39.378a16.4 16.4 0 01-.316 4.402c-.207.99 1.339 1.333 1.54.337.332-1.589.452-3.2.354-4.821-.065-1.012-1.644-.936-1.578.082zM62.282 16.707c.59 1.97.971 3.978 1.173 6.024.098 1.007 1.676 1.012 1.578 0-.218-2.182-.599-4.337-1.23-6.443-.294-.969-1.815-.555-1.521.42"
            fill="#965934"
        ></path>
        <path
            d="M33.793 21.328c-3.226-5.055-8.142-8.26-14.132-8.57-5.989-.306-12.056 2.432-15.785 7.133-.952 1.198-1.763 2.525-2.254 3.978-.834 2.465-.703 5.159-.337 7.738.952 6.71 3.854 13.616 9.53 17.229C14.677 34.769 24.4 26.334 33.793 21.328"
            fill="#DEA059"
        ></path>
        <path
            d="M28.472 24.561c-5.009-7.623-13.319-6.954-18.312-1.893-5.188 5.251-2.648 15.286 2.866 20.102 3.627-8.136 9.34-14.013 15.446-18.209z"
            fill="#A1633E"
        ></path>
        <path
            d="M142.072 15.372c-4.332-3.482-8.435-5.12-13.888-4.043-4.859.963-9.283 3.624-12.733 7.194 4.609 1.883 8.87 4.256 12.505 7.303 5.822 4.876 10.029 11.155 12.227 18.6 3.614-3.88 6.737-8.566 7.673-13.746.991-5.469-1.453-11.825-5.784-15.308"
            fill="#DEA059"
        ></path>
        <path
            d="M127.955 25.827c3.891 3.26 7.064 7.15 9.393 11.591 7.27-7.33 4.375-14.758 1.66-17.522-3.472-3.538-12.233-5.263-17.142 1.779 2.155 1.246 4.223 2.59 6.089 4.152z"
            fill="#A1633E"
        ></path>
        <path
            d="M74.234 86.266c-17.093 2.182-24.046 14.769-23.73 24.385.316 9.61 14.996 18.175 29.678 16.543 15.308-1.704 25.016-6.96 25.255-19.895.234-12.936-14.116-23.22-31.203-21.033z"
            fill="#FCD6AE"
        ></path>
        <path
            d="M130.948 76.282c-.337-2.106-1.126-6.007-5.322-5.937-4.201.076-4.941 7.216-4.277 9.322.659 2.106 1.763 5.91 5.769 5.556 4.005-.36 4.168-6.83 3.83-8.94zM30.882 71.158c-4.315 1.028-4.75 8.641-3.556 11.133 1.871 3.897 4.962 4.354 7.313 2.906 4.322-2.672 2.288-15.487-3.757-14.04"
            fill="#1F1611"
        ></path>
        <path
            d="M109.584 110.912c1.66 3.233 5.415 5.535 10.138 5.437 3.113-.06 5.899-1.747 8.011-3.706 1.757-1.622 2.416-3.14 2.024-5.328-.299-1.692-2.144-5.365-8.244-6.22-3.505-.484-7.488-.538-10.149 1.475-2.395 1.823-3.439 5.104-1.78 8.342zM26.633 113.688c.655.784 1.572 1.398 2.521 1.948 2.861 1.649 6.468 2.835 9.836 2.057 2.381-.555 4.24-1.29 6.07-3.396 1.832-2.1 1.41-6.143.412-7.934-.996-1.79-4.306-5.088-10.13-5.066-3.534.016-8.925 2.171-10.442 5.888-.909 2.226.884 5.485 1.733 6.503z"
            fill="#F79491"
        ></path>
        <path
            d="M86.615 91.496c-2.068-1.23-4.544-1.512-6.938-1.72-2.852-.244-5.817-.413-8.5.594-2.677 1.001-5.012 3.5-4.92 6.361.088 2.743 2.373 5.029 4.947 5.986 2.574.958 4.577 1.072 8.146.762 3.57-.305 9.464-2.411 10.318-5.98.566-2.34-.985-4.778-3.053-6.002"
            fill="#1F1611"
        ></path>
        <path
            d="M90.68 111.884c-2.655 3.401-6.535 5.197-10.616 5.578.147-4.626.158-9.387-.19-14.034-.18.021-.354.043-.523.054-.62.055-1.186.093-1.725.12.36 4.598.321 9.354.174 13.931-4.038-.136-8.08-1.617-11.172-4.327-1.43-1.251-3.232.322-1.796 1.584 7.913 6.933 20.87 7.134 27.65-1.545 1.16-1.486-.626-2.863-1.801-1.361z"
            fill="#1F1611"
        ></path>
        <path
            d="M118.635 41.531c-2.694 4.718 6.96 11.907 10.557 6.966 3.591-4.941-7.499-12.32-10.557-6.966zM33.377 43.586c3.369 2.916-2.92 13.25-9.208 9.207-6.288-4.043 4.753-13.071 9.208-9.207z"
            fill="#BE7F48"
        ></path>
        <path fill="#fff" fill-opacity="0.01" d="M149 149h1v1h-1z"></path>
    </svg>