<svg
        xmlns="http://www.w3.org/2000/svg"
        width="150"
        height="150"
        viewBox="0 0 150 150"
        fill="none"
        style="width: 4rem; height: 4rem; background: none"
    >
        <path fill="#fff" fill-opacity="0.01" d="M149 149h1v1h-1z"></path>
        <path
            d="M36.384 112.193c-1.234-2.925-6.641-2.978-5.556 1.233 1.086 4.21 7.008 2.205 5.556-1.233z"
            fill="#F7FAED"
        ></path>
        <path
            d="M37.3 9.5c-.946-.997-3.385 2.787-3.807 4.086-.065-2.605-.954-9.426-2.654-9.582-1.7-.156-2.812 5.17-1.92 7.873-.943-1.671-3.24-3.871-4.384-1.901-2.17 3.731 5.636 14.654 8.108 14.222C35.115 23.77 38.971 11.264 37.3 9.5zM117.886 7.817c-2.385-.588-3.377 3.813-4.379 6.585.344-1.992-.175-5.543-1.494-7.072-.99.574-2.37 5.043-2.489 6.175-.13-1.174-4.403-8.092-5.739-5.09-1.333 2.998 5.81 15.648 8.727 15.648 2.915.002 7.76-15.66 5.374-16.246z"
            fill="#DF3B21"
        ></path>
        <path
            d="M123.531 66.029c2.362-14.942-.91-30.717-9.068-43.462-.479-.743-.936-1.822-1.817-1.875-5.958-.365-13.125 18.78-15.791 29.784-13.226-2.018-30.459-2.214-44.952 1.19-1.454-11.311-9.663-25.41-19.634-30.91-8.302 10.663-8.997 34.205-6.993 48.55-5.167 19.223-1.021 42.477 7.254 55.539 13.485 21.282 45.035 28.187 68.752 15.046 3.903-2.161 7.59-4.787 10.798-7.921 16.042-15.68 15.651-43.782 11.451-65.941z"
            fill="#F6BA40"
        ></path>
        <path
            d="M79.18 103.895c9.866-.598 13.894-23.212 15.534-34.74.997-7 1.655-13.027 2.084-18.687-13.094-1.991-30.088-2.192-44.472 1.108l-.409.172c2.623 9.645 6.322 21.11 8.945 30.752 2.277 8.373 8.452 21.993 18.317 21.395z"
            fill="#F89D3E"
        ></path>
        <path
            d="M78.903 81.463c.296-2.15.402-4.292.293-6.46-.04-.783-1.26-.786-1.22 0 .104 2.054.031 4.099-.25 6.135-.106.77 1.068 1.103 1.177.325zM73.223 76.78a50.714 50.714 0 00-.315-7.245c-.089-.772-1.31-.78-1.22 0a50.73 50.73 0 01.316 7.244c-.022.785 1.197.783 1.219 0zM84.053 74.347a49.74 49.74 0 00-.026-7.559c-.06-.78-1.28-.785-1.22 0 .202 2.52.21 5.035.027 7.559-.058.785 1.161.78 1.22 0zM76.591 59.237a55.406 55.406 0 00.065 7.884c.062.777 1.282.785 1.22 0a55.436 55.436 0 01-.065-7.884c.049-.785-1.17-.78-1.22 0zM71.008 52.14c.323 2.132.407 4.28.308 6.432-.036.785 1.184.783 1.22 0a34.462 34.462 0 00-.352-6.754c-.117-.778-1.292-.447-1.176.322zM81.477 52.022c.037 1.526.077 3.052.114 4.577.019.783 1.238.786 1.22 0-.038-1.525-.078-3.051-.115-4.577-.018-.783-1.237-.786-1.219 0zM65.095 64.373c.065 1.936.318 3.848.763 5.733.18.765 1.356.442 1.176-.322a27.565 27.565 0 01-.72-5.411c-.026-.786-1.246-.788-1.22 0zM71.975 84.606l.492 5.64c.068.778 1.288.784 1.22 0-.165-1.88-.33-3.76-.493-5.64-.068-.778-1.288-.783-1.22 0zM83.764 81.045c-.166 2.026-.335 4.054-.502 6.08-.066.785 1.153.777 1.22 0 .166-2.026.335-4.054.502-6.08.066-.786-1.153-.778-1.22 0zM77.615 87.965a29.902 29.902 0 01-.058 4.863c-.071.785 1.15.778 1.219 0 .148-1.619.177-3.24.058-4.864-.056-.78-1.276-.785-1.219 0zM86.264 60.05v5.084c0 .785 1.222.785 1.222 0V60.05c0-.786-1.222-.786-1.222 0zM66.748 78.372c.318 1.108.482 2.222.498 3.375.01.785 1.23.785 1.22 0a14.038 14.038 0 00-.542-3.697c-.216-.757-1.393-.434-1.176.322zM62.922 53.352c.458 1.524.752 3.074.908 4.658.076.775 1.296.782 1.22 0-.167-1.69-.462-3.354-.952-4.983-.225-.748-1.402-.428-1.176.325z"
            fill="#DF3B21"
        ></path>
        <path
            d="M35.112 32.054c-5.42 6.96-6.898 25.32-4.687 31.434 6.634-5.334 16.779-10.666 16.779-10.666-.885-7.026-5.891-17.348-12.092-20.768zM111.872 30.371c-4.969 3.205-8.663 15.233-10.171 22.844 0 0 10.145 3.774 17.558 10.015 1.952-9.753-1.764-26.052-7.387-32.859z"
            fill="#F57F21"
        ></path>
        <path
            d="M74.548 95.04c-13.21 1.69-18.583 11.417-18.34 18.846.245 7.429 11.592 14.048 22.94 12.787 11.833-1.315 19.336-5.377 19.518-15.376.183-9.997-10.909-17.946-24.118-16.257z"
            fill="#FCD6AE"
        ></path>
        <path
            d="M112.481 98.094c-.259-1.63-.873-4.644-4.115-4.589-3.245.056-3.816 5.575-3.306 7.204.511 1.627 1.365 4.568 4.462 4.293 3.094-.276 3.218-5.28 2.959-6.908zM46.432 94.13c-3.335.796-3.672 6.68-2.748 8.605 1.446 3.013 3.834 3.367 5.651 2.246 3.341-2.063 1.77-11.967-2.903-10.851z"
            fill="#1F1611"
        ></path>
        <path
            d="M103.953 118.074c1.426 2.777 4.652 4.756 8.712 4.674 2.671-.053 5.062-1.503 6.878-3.185 1.505-1.391 2.071-2.697 1.738-4.575-.257-1.452-1.843-4.609-7.08-5.339-3.012-.421-6.431-.466-8.716 1.266-2.06 1.563-2.954 4.383-1.532 7.159zM32.826 119.578c.563.675 1.35 1.201 2.166 1.672 2.457 1.417 5.554 2.435 8.447 1.766 2.045-.476 3.64-1.105 5.213-2.914 1.572-1.806 1.21-5.276.354-6.815-.856-1.537-3.699-4.369-8.7-4.348-3.035.01-7.665 1.864-8.967 5.054-.78 1.912.759 4.712 1.487 5.585z"
            fill="#F68978"
        ></path>
        <path
            d="M84.121 99.087c-1.6-.95-3.514-1.166-5.366-1.328-2.205-.19-4.494-.32-6.567.455-2.072.778-3.875 2.706-3.804 4.919.068 2.121 1.833 3.888 3.823 4.628 1.99.741 3.537.828 6.297.59 2.761-.238 7.315-1.865 7.976-4.626.434-1.806-.761-3.691-2.359-4.638z"
            fill="#1F1611"
        ></path>
        <path
            d="M87.263 114.846c-2.055 2.629-5.054 4.017-8.206 4.313.111-3.578.119-7.259-.15-10.85-.136.015-.273.034-.403.045-.481.042-.916.068-1.332.089.276 3.555.247 7.231.134 10.769-3.12-.108-6.248-1.251-8.637-3.345-1.104-.965-2.495.251-1.385 1.224 6.116 5.358 16.129 5.514 21.37-1.195.897-1.148-.484-2.211-1.39-1.05z"
            fill="#1F1611"
        ></path>
        <path
            d="M101.614 70.98c-2.08 3.648 5.382 9.201 8.159 5.382 2.78-3.818-5.792-9.518-8.159-5.381zM49.519 71.817c2.604 2.256-2.257 10.24-7.117 7.116-4.86-3.126 3.673-10.102 7.117-7.116z"
            fill="#ED5039"
        ></path>
    </svg>