 <svg
        xmlns="http://www.w3.org/2000/svg"
        width="150"
        height="150"
        viewBox="0 0 150 150"
        fill="none"
        style="width: 4rem; height: 4rem; background: none"
    >
        <path fill="#fff" fill-opacity="0.01" d="M149 149h1v1h-1z"></path>
        <path
            d="M144.191 12.742c-4.088-.27-8.223 6.024-14.285 9.476-8.204 4.67-17.672 10.137-23.999 17.384 6.976 3.123 12.772 8.017 16.503 15.667 4.594 9.419 6.321 18.28 6.785 25.391 7.216-2.193 12.825-8.34 15.444-14.385 2.709-6.253 4.264-19.336 4.357-28.992.122-12.76-2.478-24.387-4.805-24.541"
            fill="#E2D6BF"
        ></path>
        <path
            d="M140.766 34.35c-.295-2.593-1.024-7.217-3.627-3.333-2.027 3.024-4.613 5.326-7.22 7.78-2.706 2.543-5.759 4.768-8.826 6.759-1.025.665-1.954 1.372-2.769 2.166a32.416 32.416 0 014.575 7.083 69.448 69.448 0 015.599 17.082c4.243-1.55 7.623-4.18 9.801-8.936 5.151-11.25 3.08-23.222 2.467-28.602z"
            fill="#505256"
        ></path>
        <path
            d="M22.367 54.504c5.464-9.173 13.036-14.343 21.457-17.24-8.05-12.62-22.613-14.952-29.844-21.556-9.464-8.642-9.359-.894-11.553 10.037-2.463 12.266-4.367 30.239 1.13 43.1 1.955 4.575 6.038 8.686 10.103 11.08.564-6.897 2.829-15.552 8.707-25.42"
            fill="#E2D6BF"
        ></path>
        <path
            d="M22.153 55.051c3.002-5.037 6.646-8.852 10.715-11.75-6.543-6.618-13.336-14.568-19.253-17.23-3.913-1.76-3.401 8.53-4.109 15.455-1.122 10.991-1.995 22.672 5.437 30.36 1.314-5.054 3.559-10.709 7.21-16.835z"
            fill="#505256"
        ></path>
        <path
            d="M122.469 55.013c-8.946-18.736-29.961-21.045-50.467-21.1-18.057-.046-38.131 1.892-49.32 20.811-11.234 18.997-9.2 33.52-7.363 39.617l2.52-4.003c-.644 7.212 3.07 22.023 3.73 22.281 1.371-2.105 1.371-3.882 1.382-5.853 2.104 5.608 3.776 10.459 7.894 16.1.386-1.101.256-2.022-.41-3.951 4.653 4.596 9.523 9.322 15.636 11.545 6.163 3.72 13.828 6.289 23.67 6.939 16.504 1.091 24.649-1.718 31.828-7.978-.353.57-.94 1.687-.94 2.806 6.914-3.358 13.231-12.551 15.436-16.743l-.332 6.815c4.404-5.835 6.16-13.209 7.809-20.349a15.813 15.813 0 011.331 6.023c2.276-5.958 2.598-12.657.906-18.811.312 1.135 2.057 4.56 2.707 5.538.971-5.644 2.592-21.654-6.017-39.687"
            fill="#E2D6BF"
        ></path>
        <path
            d="M43.198 49.68h5.428V42.13h-5.428v7.549zM52.105 46.328a.47.47 0 01-.458-.31A32.812 32.812 0 0049 40.428c-.208-.35.12-.673.44-.673.144 0 .286.063.378.219a34.127 34.127 0 012.74 5.804c.121.33-.165.55-.454.55M57.236 46.328c-.165 0-.322-.11-.365-.364a165.97 165.97 0 00-1.346-7.038c-.081-.383.184-.632.437-.632.167 0 .33.11.384.362.498 2.333.947 4.679 1.346 7.038.065.385-.206.634-.456.634zM63.006 45.598c-.185 0-.357-.112-.398-.366l-1.247-7.769a.54.54 0 01.53-.63c.185 0 .357.109.398.363l1.247 7.771a.541.541 0 01-.53.63M68.758 46.328c-.282 0-.584-.172-.62-.514a39.972 39.972 0 01.115-9.197c.043-.342.349-.514.632-.514.281 0 .54.17.497.514a39.955 39.955 0 00-.115 9.197c.036.345-.227.514-.509.514M74.925 45.598c-.16 0-.328-.164-.339-.493a155.467 155.467 0 01-.064-7.777c.005-.33.17-.495.33-.495s.319.164.313.495c-.043 2.594-.022 5.186.065 7.777.01.331-.144.495-.305.493zM81.38 46.328c-.162 0-.318-.155-.305-.466.097-2.364.103-4.733.016-7.1-.011-.313.145-.468.308-.468s.332.158.344.468a90.965 90.965 0 01-.017 7.1c-.012.31-.182.466-.346.466zM86.605 47.055c-.228 0-.443-.164-.416-.492a23.789 23.789 0 012.075-8.017c.083-.182.218-.256.354-.256.303 0 .62.37.435.772a22.343 22.343 0 00-1.95 7.501c-.026.328-.27.492-.498.492M92.741 48.52c-.378 0-.791-.262-.698-.66a103.835 103.835 0 012.367-8.462c.086-.262.334-.374.59-.374.386 0 .786.26.657.655a103.54 103.54 0 00-2.367 8.461c-.063.265-.298.38-.549.38M55.7 66.047c-.206 0-.408-.093-.483-.307a32.507 32.507 0 00-2.57-5.604c-.2-.345.16-.663.5-.663a.44.44 0 01.395.224 33.748 33.748 0 012.675 5.813c.114.325-.205.537-.517.537M60.05 65.316c-.22 0-.439-.101-.522-.334l-2.53-7.11c-.127-.357.21-.59.545-.59.22 0 .439.102.522.337l2.53 7.108c.127.357-.21.59-.545.59zM64.51 65.316c-.185 0-.367-.106-.43-.353a214.238 214.238 0 01-1.983-8.52.504.504 0 01.494-.622c.184 0 .36.106.413.357a212.881 212.881 0 001.983 8.519c.095.374-.195.62-.476.62M69.55 63.855c-.2 0-.388-.105-.439-.35a90.627 90.627 0 01-1.18-7.22c-.039-.31.199-.464.456-.464.259 0 .538.154.576.464.286 2.334.669 4.654 1.143 6.96.076.368-.253.61-.555.61M75.627 64.59c-.186 0-.386-.152-.411-.457l-.713-8.579c-.026-.308.146-.46.33-.46.187 0 .386.155.412.46l.713 8.579c.026.305-.146.457-.331.457zM79.871 63.125c-.253 0-.518-.159-.54-.477l-.447-6.35c-.022-.318.219-.477.471-.477.253 0 .518.159.54.477.15 2.117.299 4.233.447 6.35.022.318-.218.477-.47.477zM84.466 64.59c-.256 0-.497-.163-.469-.49.274-3.137.672-6.261 1.191-9.367.043-.258.226-.369.424-.369.298 0 .63.253.566.64a116.35 116.35 0 00-1.154 9.096c-.028.324-.3.49-.558.49zM88.888 63.125c-.3 0-.6-.226-.485-.573a47.804 47.804 0 012.72-6.492.408.408 0 01.375-.239c.323 0 .666.34.478.708a46.047 46.047 0 00-2.62 6.27.473.473 0 01-.468.326M62.297 84.309c-.187 0-.367-.108-.421-.355a133.395 133.395 0 00-1.962-7.8c-.105-.367.189-.61.477-.61.19 0 .378.107.447.347.732 2.58 1.386 5.18 1.962 7.8.082.372-.22.618-.503.618M67.297 82.117c-.244 0-.472-.154-.442-.46a19.735 19.735 0 00-.376-6.242c-.081-.363.227-.602.515-.602.191 0 .373.105.427.346.478 2.138.622 4.315.41 6.498-.029.306-.29.46-.534.46zM72.601 82.117a.492.492 0 01-.507-.467l-.513-7.1c-.023-.311.201-.467.437-.467s.484.156.507.467c.17 2.368.342 4.735.513 7.1.023.314-.201.467-.437.467M78.097 83.574c-.322 0-.646-.158-.652-.478-.059-3.09-.008-6.182.151-9.27.016-.319.347-.477.668-.477.321 0 .634.158.618.478-.16 3.087-.21 6.18-.152 9.27.006.319-.312.477-.633.477zM82.25 83.574c-.24 0-.5-.247-.436-.626.497-2.954 1.025-5.913 2.159-8.619.075-.178.194-.25.316-.25.27 0 .553.36.388.753-1.1 2.624-1.595 5.518-2.077 8.381-.042.25-.192.361-.35.361"
            fill="#9B9993"
        ></path>
        <path
            d="M45.775 111.897c1.64-6.298-5.55-7.148-9.058-7.758-3.51-.61-7.916 1.348-8.803 4.854-.889 3.504 2.054 7.531 6.193 8.495 4.14.961 10.03.708 11.668-5.591M115.922 105.782c-1.42-4.78-9.497-4.871-15.088-2.115-5.593 2.756-2.687 9.908 3.917 11.738 6.604 1.83 12.592-4.845 11.171-9.623z"
            fill="#F8ACBE"
        ></path>
        <path
            d="M118.377 77.78c-2.47-6.447-8.163-8.657-19.418-4.514-4.82 1.773-14.233 8.088-14.233 16.372 0 4.902 7.778 20.512 25.268 14.487 10.565-3.638 12.791-14.84 8.383-26.345"
            fill="#1F1611"
        ></path>
        <path
            d="M96.294 87.42c-3.424 7.683 8.423 13.561 12.569 5.295 1.832-3.653-.165-6.912-3.525-8.413-3.382-1.51-7.325-.736-9.044 3.119"
            fill="#F9A80F"
        ></path>
        <path
            d="M100.369 88.453c-1.3 2.9 1.82 5.626 4.324 2.504 2.055-2.561-3.025-5.404-4.324-2.504zM61.352 84.102c-.164-7.626-16.99-15.442-25.45-12.175-5.821 2.251-8.774 5.128-10.511 10.823-1.85 6.07.897 19.732 8.353 22.711 11.808 4.719 27.77-13.733 27.608-21.36"
            fill="#1F1611"
        ></path>
        <path
            d="M37.316 84.306c-6.8 4.928-1.218 17.527 8.961 11.589 8.693-5.07-1.177-17.23-8.96-11.589z"
            fill="#F9A80F"
        ></path>
        <path
            d="M39.967 87.602c-2.984 1.548-.163 7.623 3.358 4.67 3.136-2.63-.373-6.22-3.358-4.67z"
            fill="#1F1611"
        ></path>
        <path
            d="M71.385 126.672c-.974 0-1.968-.026-2.972-.07-4.537-.201-11.296-1.091-13.67-5.649-5.435-10.435 5.747-31.66 15.703-32.238.282-.016.56-.024.833-.024 11.631 0 15.398 14.586 16.24 23.065 1.23 12.392-6.528 14.916-16.134 14.916"
            fill="#7B7A76"
        ></path>
        <path
            d="M72.25 94.559c-6.359-.28-11.014 1.68-10.036 5.482.86 3.341 7.172 7.738 9.269 7.637 4.482-.21 8.706-4.948 9.328-7.17 1.24-4.433-1.949-5.658-8.56-5.949zM79.54 112.124c-.048 2.243-.671 4.561-3.168 4.945-2.635.401-3.703-1.8-3.837-4.024.067-1.693.164-3.521.178-5.364-.369.078-.741.141-1.116.156a1.877 1.877 0 01-.423-.031c-.017 1.76-.11 3.505-.174 5.137-.01.039-.03.065-.034.11-.192 1.791-.87 3.241-2.69 3.77-2.252.658-5.09-.758-4.584-3.418.188-.989-1.349-1.124-1.534-.149-.56 2.955 2.155 5.484 5.02 5.289 2.11-.146 3.602-1.083 4.475-2.608.79 1.682 2.299 2.811 4.518 2.691 3.443-.185 4.835-3.213 4.903-6.355.022-1.001-1.512-1.153-1.534-.149"
            fill="#1F1611"
        ></path>
        <path
            d="M99.713 58.71c-2.182 3.609 5.632 9.116 8.542 5.333 2.909-3.782-6.064-9.431-8.541-5.334zM41.982 59.907c1.983 2.529-4.247 8.713-8.174 4.962-3.928-3.75 5.552-8.307 8.174-4.962z"
            fill="#BEAD98"
        ></path>
    </svg>