<svg
        xmlns="http://www.w3.org/2000/svg"
        width="150"
        height="150"
        viewBox="0 0 150 150"
        fill="none"
        style="width: 4rem; height: 4rem; background: none"
    >
        <path fill="#fff" fill-opacity="0.01" d="M149 149h1v1h-1z"></path>
        <path
            d="M122.844 66.888c1.759 2.81 3.103 5.824 4.307 8.897 6.52-18.452 10.011-37.938 10.045-57.47-16.084 5.002-24.691 12.458-36.214 24.586 7.524 4.442 14.211 11.747 21.862 23.987"
            fill="#D0B99F"
        ></path>
        <path
            d="M122.632 66.929c.491.825.861 1.708 1.294 2.56 3.984-12.975 6.158-26.543 6.183-40.15-9.255 3.02-16.746 9.722-23.617 16.97 5.361 4.546 10.473 11.082 16.14 20.62"
            fill="#FAFCF0"
        ></path>
        <path
            d="M14.591 71.848c4.036-11.012 10.758-21.436 25.772-29.376-8.534-12.908-22.186-24.686-27.35-28.094-4.804 9.724-3.69 33.405-1.336 47.33.58 3.481 1.356 7.022 2.914 10.14z"
            fill="#D0B99F"
        ></path>
        <path
            d="M17.541 64.762c3.66-7.304 9.023-14.183 18.099-19.95-5.065-7.482-10.805-13.977-17.924-20.2-3.647 7.442-2.801 25.576-1.014 36.233.221 1.312.494 2.624.839 3.917"
            fill="#FAFCF0"
        ></path>
        <path
            d="M131.727 92c-1.913-8.657-4.193-17.406-8.857-24.954C106.654 40.8 94.926 37.264 69.525 36.43c-3.44-.117-18.679 1.253-25.604 4.384-23.71 10.732-28.716 27.01-33.08 42.87C8.555 92 8.51 100.793 9.446 109.372c.393 3.68 3.243 20.74 21.346 30.467 16.274 8.736 40.43 11.528 63.237 7.053 13.85-2.721 28.893-7.522 35.903-19.722 5.989-10.432 4.383-23.434 1.795-35.17"
            fill="#D0B99F"
        ></path>
        <path
            d="M23.333 61.338a27.15 27.15 0 00-.265 5.1c.037.907 1.368.914 1.325 0-.068-1.643-.018-3.07.216-4.726.13-.894-1.153-1.275-1.276-.374zM29.601 59.763a24.044 24.044 0 00-.031 6.842c.12.903 1.424.52 1.298-.376-.288-2.182-.276-3.909.038-6.09.132-.89-1.173-1.28-1.305-.376M36.429 59.919c-.024 2 .094 3.936.34 5.917.113.878 1.336.5 1.224-.365-.241-1.91-.318-3.648-.294-5.552.012-.891-1.258-.891-1.27 0M101.776 59.184l.657 4.86c.133.954 1.816.96 1.691 0-.219-1.62-.446-3.24-.665-4.86-.126-.953-1.816-.967-1.683 0zM107.301 59.412c.468 1.928.608 3.49.559 5.41-.025.971 1.742.971 1.774 0 .05-1.998-.156-3.869-.624-5.81-.23-.958-1.939-.55-1.709.4zM113.582 59.913a66.14 66.14 0 01.28 5.756c.006.886 1.297.893 1.291 0a68.593 68.593 0 00-.281-5.756c-.084-.88-1.368-.886-1.29 0zM14.434 79.662a39.114 39.114 0 00.201 6.433c.11.95 1.426.963 1.316 0-.243-2.17-.31-4.249-.207-6.433.049-.963-1.26-.963-1.31 0zM20.683 79.623c.096 1.902.191 3.805.28 5.708.049.915 1.334.921 1.292 0l-.287-5.708c-.042-.915-1.333-.922-1.285 0M27.767 78.867c0 1.983.142 3.883.422 5.831.137.937 1.273.544 1.142-.392a36.321 36.321 0 01-.385-5.44c0-.956-1.18-.956-1.18 0zM34.853 78.792c.086 2.193.171 4.387.262 6.58.03.86 1.348.866 1.311 0-.085-2.193-.177-4.387-.262-6.58-.03-.86-1.347-.86-1.31 0zM41.165 78.012a45.034 45.034 0 00.315 6.582c.103.848 1.342.86 1.238 0a44.294 44.294 0 01-.315-6.582c.017-.867-1.215-.867-1.238 0zM99.734 80.245c-.262 1.896-.565 4.207-.035 6.07.25.874 1.488.5 1.238-.38-.435-1.523-.179-3.78.035-5.303.125-.908-1.113-1.295-1.238-.387zM104.919 79.6c.08 1.918.195 3.836.343 5.753.069.885 1.297.892 1.228 0a194.566 194.566 0 01-.343-5.753c-.034-.885-1.268-.891-1.228 0zM112.126 78.875c-.279 2.585-.085 4.882.605 7.397.256.946 1.868.546 1.605-.4-.644-2.36-.799-4.594-.535-6.997.1-.967-1.567-.96-1.675 0zM118.383 78.833c.033 2.426-.421 5.147.519 7.489.347.86 2.062.495 1.716-.372-.883-2.199-.429-4.834-.462-7.117-.008-.907-1.79-.907-1.773 0M123.818 78.875c.309 2.403.422 4.814.73 7.218.121.956 1.747.963 1.619 0-.309-2.404-.414-4.815-.723-7.218-.12-.956-1.746-.97-1.626 0zM11.252 98.497c-.09 2.156.164 3.89.877 5.929.295.851 1.722.487 1.427-.37a14.508 14.508 0 01-.823-5.559c.034-.896-1.44-.896-1.482 0M17.683 98.487c-.195 2.162-.39 4.113.723 6.07.451.797 1.85.102 1.4-.688-.964-1.69-.67-3.59-.505-5.382.083-.886-1.542-.88-1.617 0M23.138 97.733c-.233 2.541-.032 4.954.572 7.448.225.908 1.9.524 1.674-.39-.587-2.42-.732-4.611-.507-7.058.08-.928-1.65-.921-1.739 0zM29.343 98.44c.146 1.953.297 3.902.444 5.856.062.816 1.188.822 1.126 0-.151-1.954-.297-3.903-.443-5.857-.063-.816-1.19-.822-1.127 0zM35.641 97.691c.125 2.19.177 4.385.342 6.568.068.862 1.291.874 1.229 0-.17-2.183-.216-4.379-.347-6.568-.052-.868-1.275-.874-1.224 0zM41.943 97.7c.223 1.924.323 3.804.305 5.748-.006.897 1.255.897 1.26 0a44.795 44.795 0 00-.298-5.749c-.106-.878-1.367-.89-1.267 0zM47.451 96.904c.2 2.193.457 4.38.767 6.566.118.865 1.71.871 1.585 0-.31-2.186-.56-4.373-.767-6.566-.08-.87-1.666-.877-1.585 0zM94.014 99.258c-.197 1.772-.14 3.413.128 5.16.127.861 1.453.497 1.32-.358-.262-1.735-.262-3.105-.077-4.802.096-.867-1.282-.855-1.37 0zM99.412 98.481c.211 2.18.366 4.36.454 6.559.036.879 1.151.879 1.114 0a114.323 114.323 0 00-.459-6.559c-.082-.866-1.197-.879-1.11 0zM105.707 99.307c.101 1.64.177 3.266.209 4.906.019.93 1.382.93 1.363 0-.032-1.64-.102-3.266-.209-4.906-.064-.923-1.427-.93-1.363 0zM111.219 99.284c.113 1.649.233 3.304.347 4.959.062.886 1.285.893 1.223 0l-.342-4.96c-.062-.892-1.291-.898-1.228 0zM119.173 96.918a39.394 39.394 0 00.114 6.536c.089.883 1.461.896 1.372 0a39.406 39.406 0 01-.115-6.536c.058-.896-1.314-.89-1.371 0zM124.602 97.704a39.99 39.99 0 00.993 5.917c.22.875 1.561.506 1.342-.369a36.078 36.078 0 01-.942-5.548c-.084-.888-1.47-.894-1.393 0M129.352 98.013a18.01 18.01 0 01.624 5.35c-.031 1.011 1.666 1.011 1.698 0 .063-2.028-.15-3.802-.679-5.772-.269-.974-1.911-.56-1.643.422zM16.752 119.783c.248 1.964.544 3.915.909 5.86.172.924 1.604.537 1.432-.388a91.414 91.414 0 01-.854-5.472c-.117-.925-1.604-.932-1.487 0zM23.244 119.738a27.42 27.42 0 00-.09 5.78c.077.869 1.452.875 1.369 0a27.414 27.414 0 01.089-5.78c.108-.875-1.266-.862-1.368 0zM28.738 118.942a49.643 49.643 0 00-.16 5.794c.025.859 1.419.865 1.393 0a48.254 48.254 0 01.155-5.794c.077-.859-1.317-.859-1.388 0zM34.898 118.253a50.453 50.453 0 00.135 6.395c.084.976 1.468.983 1.39 0a49.31 49.31 0 01-.14-6.395c.044-.99-1.347-.99-1.385 0zM41.15 118.21a41.018 41.018 0 00.377 5.864c.131.917 1.314.528 1.188-.382-.263-1.867-.343-3.601-.331-5.482 0-.93-1.228-.93-1.234 0M99.426 118.452a117.952 117.952 0 001.749 7.193c.259.925 1.607.532 1.348-.406a112.48 112.48 0 01-1.75-7.187c-.194-.945-1.541-.546-1.347.4M107.28 118.951c.009 2.319.207 4.488.602 6.739.147.844 1.104.487.957-.357a36.954 36.954 0 01-.566-6.382c-.004-.869-.993-.869-.993 0zM113.591 118.394a38.98 38.98 0 01.728 7.098c.015.903 1.628.91 1.621 0a41.841 41.841 0 00-.795-7.471c-.173-.889-1.726-.516-1.554.373zM120.663 119.784c.041 1.985.256 3.91.635 5.869.173.91 1.888.522 1.715-.381a31.058 31.058 0 01-.577-5.488c-.017-.93-1.789-.93-1.773 0zM127.437 124.888c.302-2.257.392-4.438.235-6.726-.06-.866-1.364-.872-1.304 0a29.932 29.932 0 01-.187 6.366c-.114.859 1.141 1.226 1.256.36M28.579 133.306a14.644 14.644 0 001.572 3.536c.464.785 1.926.094 1.462-.685-.683-1.017-1.155-2.085-1.399-3.209-.251-.847-1.879-.489-1.635.358M34.882 132.314c-.145 1.558.263 3 .908 4.435.348.776 1.717.437 1.368-.351-.599-1.331-1-2.618-.862-4.084.08-.85-1.342-.85-1.414 0M104.85 139.606a38.208 38.208 0 00-.079-5.62c-.086-.972-1.504-.979-1.425 0 .165 1.895.192 3.725.086 5.62-.059.979 1.365.979 1.418 0M108.903 133.941c.136 1.654.034 3.275-.047 4.929-.048.913 1.417.913 1.458 0 .088-1.654.183-3.275.047-4.929-.074-.906-1.532-.919-1.458 0zM115.814 138.062c.161-1.445.167-2.659.02-4.104-.093-.934-1.537-.941-1.444 0a18.287 18.287 0 01-.02 4.104c-.1.941 1.337.935 1.444 0z"
            fill="#C4A389"
        ></path>
        <path
            d="M100.982 43.284c-8.526-5.134-18.165-6.41-31.739-6.854-3.42-.118-18.57 1.255-25.46 4.395-1.257.576-2.267 1.23-3.42 1.838 3.81 19.616 3.048 71.686 30.762 72.477 27.056.772 27.93-52.927 29.857-71.856"
            fill="#B89883"
        ></path>
        <path
            d="M100.194 132.626c-.118-11.432-9.303-16.249-12.225-17.507-6.125-2.63-11.494-3.63-18.173-3.881-6.678-.252-13.56 1.309-18.95 5.178-5.388 3.868-9.092 10.207-8.901 16.752.092 3.353 2.552 13.373 13.804 14.579 9.382 1.444 19.482 1.664 29.575.535 12.133-1.941 14.903-12.051 14.87-15.656"
            fill="#F5EDDF"
        ></path>
        <path
            d="M29.163 111.968c1.276-6.985-4.608-7.87-7.482-8.518-2.875-.649-6.448 1.553-7.14 5.444-.685 3.892.88 6.783 4.272 7.817 3.392 1.033 9.08 2.249 10.35-4.743M128.402 108.802c-1.097-4.614-8.551-4.847-12.67-2.141-4.119 2.712-1.899 9.618 3.016 11.344 4.908 1.727 10.751-4.583 9.654-9.203z"
            fill="#D8676D"
        ></path>
        <path
            d="M85.052 105.929c-.53-1.972-2.014-3.633-3.82-4.577-3.27-1.719-6.69-2.786-10.976-2.734-3.671.032-7.045 1.452-10.088 3.516-2.305 1.569-3.186 3.75-3.27 5.807-.162 3.965 8.36 7.194 14.394 7.207 4.306.007 8.56-1.692 11.966-4.355.55-.43 1.095-.905 1.457-1.504.596-.99.641-2.246.337-3.36M48.478 121.093c-4.63-.319-9.24-.657-13.72-1.982-.697-.206-.99.901-.3 1.107 4.578 1.345 9.292 1.696 14.02 2.015.73.053.723-1.094 0-1.14zM46.899 126.171c-4.345.361-8.715.509-13.066.769-.737.046-.743.847 0 .8 4.35-.264 8.721-.407 13.066-.768.73-.065.736-.865 0-.801zM46.75 131.706c-3.293.976-6.573 1.986-9.918 2.74-.71.16-.41 1.315.292 1.156 3.346-.761 6.632-1.765 9.925-2.747.697-.208.404-1.357-.299-1.149zM93.19 122.173c3.53-1.74 7.108-3.374 10.647-5.121.664-.326.085-1.379-.573-1.054-3.538 1.74-7.115 3.374-10.647 5.121-.664.325-.092 1.379.572 1.054M94.412 126.168c3.67-.383 7.301-.842 10.907-1.503.678-.126.389-.968-.289-.842-3.512.645-7.043 1.104-10.618 1.472-.684.076-.69.943 0 .873zM94.298 131.961c3.581.727 7.24.961 10.873 1.29.716.064.709-1.031 0-1.094-3.536-.316-7.092-.544-10.576-1.252-.703-.139-1 .911-.297 1.056M15.146 16.063c.087-1.79-.06-4.713-.377-5.906-.68-2.557-2.053-9.073-2.746-9.158-.95 2.124.094 8.45.37 10.75-2.692-7.151-5.35-9.347-6.919-9.878-.538 2.478-.054 6.227 4.436 11.576-2.639-3.14-8.057-6.057-8.656-6.07-.821 1.98.471 4.084 2.107 5.5 1.063.918 6.838 3.33 8.817 4.654.33-.996 2.268-1.993 2.968-1.468M147.362 8.89c-.69.116-1.261.572-1.791 1.014-2.137 1.782-6.058 6.763-6.296 7.017 1.486-1.97 2.905-4.383 3.595-6.731.505-1.704.399-3.35-.371-3.68-1.845 1.267-5.626 7.354-6.502 8.928.783-1.437 1.499-7.433.624-8.825-.936-.117-1.5.976-1.745 1.867-.584 2.094-.77 7.869-.83 11.12.883-.332 2.561.384 2.548 1.08 4.532-2.263 9.906-5.944 12.042-9.645.212-.37.431-.793.352-1.216-.113-.67-.936-1.04-1.626-.93z"
            fill="#272127"
        ></path>
        <path
            d="M55.127 37.82c-2.977.493-5.94 1.097-8.466 1.859.809 11.57 3.779 22.923 6.901 34.132.703 2.521 1.42 5.076 2.725 7.341 1.73-3.867.65-8.32-.013-12.496-1.618-10.171-.696-20.546-1.147-30.836zm29.004-.15c.232 3.072.61 6.94.756 9.527.312 5.595.623 11.21.285 16.804-.378 6.356-1.584 12.712-.955 19.049 1.008-1.228 1.598-2.725 2.135-4.216 4.323-11.99 6.185-26.16 7.544-38.971-3.01-1.012-6.29-1.688-9.765-2.194zm-10.7-1.005c-1.379-.072-2.632-.184-4.097-.23-.928-.033-2.738.052-4.979.236.948 7.959 1.764 15.937 2.374 23.928.676 8.832 1.173 17.795 3.957 26.214.53-2.719 1.068-5.43 1.598-8.143.59-2.981 1.18-5.969 1.346-9.002.186-3.356-.146-6.718-.258-10.08-.246-7.131.45-15.628.06-22.923z"
            fill="#9E806C"
        ></path>
        <path
            d="M87.499 130.118c-2.366 3.804-5.621 5.735-9.977 3.948-2.636-1.084-4.441-2.976-5.634-5.486-.857-4.283-.764-8.994-.843-13.324a23.137 23.137 0 01-1.74-.112c0 .033-.033.046-.033.086.072 4.205.593 13.048.534 13.193-1.206 3.16-3.519 5.538-6.86 6.478-3.75 1.058-7.67.19-9.014-3.982-.35-1.077-2.063-.611-1.713.473 3.103 9.606 14.641 5.887 18.549-1.156 1.858 3.324 5.001 5.663 8.87 6.301 4.612.755 7.116-1.866 9.396-5.526.606-.972-.93-1.859-1.535-.893"
            fill="#100F0D"
        ></path>
        <path
            d="M78.151 126.958c-.024.793 2.107 1.284 2.347-.031.231-1.242-2.331-.762-2.347.031zM76.87 119.249c-.512.394-.267 1.035.085 1.298.347.263.998.045 1.136-.412.336-1.138-.821-1.201-1.221-.886zM84.412 118.831c-.31-1.217-2.044-.06-1.392.684.65.739 1.631.255 1.392-.684zM81.952 122.557c-.516-.714-1.84-.143-1.32.85.516.993 1.89-.053 1.32-.85zM85.757 126.342c-.651-.533-1.832.247-1.049 1.117.784.871 1.809-.487 1.049-1.117zM63.98 119.871c.018-.795-1.401-1.286-1.565.033-.151 1.235 1.548.761 1.565-.033zM58.335 119.424c.673-1.001-1.363-1.668-2.091-.519-.72 1.148 1.618 1.219 2.09.519zM63.687 128.295c.514-.6.266-1.554-.085-1.954-.35-.391-1-.064-1.135.627-.339 1.7.819 1.791 1.22 1.327zM58.525 124.587c.465 1.826 3.064.088 2.09-1.027-.98-1.107-2.448-.382-2.09 1.027zM55.588 127.568c.649.532 1.829-.246 1.05-1.117-.785-.871-1.811.486-1.05 1.117z"
            fill="#B89883"
        ></path>
        <path
            d="M33.526 88.648c-.848-.42-3.492-.616-4.322 1.591-.642 1.72-.879 3.588-.386 5.383.25.907 1.023 2.91 3.324 2.992 2.301.088 3.35-1.733 3.474-3.663.206-3.12-.967-5.748-2.09-6.303zM111.127 93.067c-.27-1.448-1.364-2.853-2.879-3.086-1.509-.227-3.018.787-3.637 2.122-.619 1.336-1.443 8.055 3.281 8.081 1.417.006 2.234-1.5 2.655-2.784.462-1.404.85-2.885.58-4.333"
            fill="#272127"
        ></path>
    </svg>