<svg
        xmlns="http://www.w3.org/2000/svg"
        width="150"
        height="150"
        viewBox="0 0 150 150"
        fill="none"
        style="width: 4rem; height: 4rem; background: none"
    >
        <path
            d="M148.915 24.799c.212-7.694-3.74-12.547-9.737-14.324-5.614-1.667-12.062 1.24-14.143 5.817-1.285 2.824-1.953 6.285-2.124 9.349-20.197-1.69-26.692-3.631-44.67-3.415-14.514.176-31.776.31-45.867 3.795-1.327.327-2.687.701-4.042.52-2.309-5.97-6.06-11.366-11.115-12.19-4.091-.672-11.488 1.193-13.59 4.765-2.1 3.578-2.845 6.39-2.573 10.53.397 6.045 4.526 9.056 7.708 11.383-1.144 9.822-1.812 50.192 5.38 66.562 7.652 17.411 14.806 21.825 31.357 28.584 20.183 8.243 58.405 6.162 74.911-8.08 9.25-7.981 14.86-19.522 17.773-31.384 2.913-11.869 3.351-24.181 3.774-36.389.298-8.583.516-15.57.157-24.14 5.299-3.742 6.699-7.642 6.801-11.383"
            fill="#B0705D"
        ></path>
        <path
            d="M18.61 40.473c.202 2.558.63 5.07 1.269 7.56.232.895 1.678.68 1.449-.226a44.678 44.678 0 01-1.239-7.56c-.069-.94-1.555-.702-1.48.226zM28.559 38.658l.935 7.247c.123.93 1.571.742 1.457-.187-.303-2.416-.605-4.831-.905-7.253-.117-.93-1.609-.737-1.487.193zM38.536 36.228c.184 3.195.7 6.316 1.499 9.408.234.91 1.595.381 1.368-.517a46.56 46.56 0 01-1.37-9.04c-.051-.937-1.552-.784-1.497.149zM48.993 36.963l.45 6.293c.069.938 1.528.835 1.466-.102l-.423-6.294c-.063-.937-1.56-.834-1.492.103zM58.48 35.901c.235 2.201.47 4.407.7 6.614.098.927 1.561.876 1.468-.063-.221-2.206-.446-4.412-.673-6.613-.095-.933-1.596-.876-1.496.063zM69.275 35.247l.08 7.585c.011.938 1.473.922 1.467-.017-.019-2.533-.031-5.059-.049-7.591-.006-.94-1.509-.916-1.498.023zM79.45 34.991a26.137 26.137 0 00-.07 7.815c.128.927 1.542.557 1.42-.365a23.757 23.757 0 01.09-7.046c.15-.91-1.291-1.332-1.44-.404M89.977 35.016c-.29 2.504-.26 4.997.033 7.5.108.934 1.537.604 1.434-.318-.27-2.379-.25-4.74.032-7.114.112-.934-1.392-.996-1.5-.068M99.03 36.18c.227 2.156.177 4.3-.1 6.449-.12.932 1.342 1.029 1.467.102.303-2.28.334-4.549.102-6.84-.093-.933-1.566-.643-1.468.29zM109.151 36.724c.466 2.597.591 5.194.397 7.819-.068.937 1.387 1.085 1.461.148.215-2.75.098-5.484-.379-8.212-.161-.926-1.645-.687-1.479.245M119.78 36.37a30.76 30.76 0 00-.129 8.906c.121.926 1.574.727 1.458-.2a29.299 29.299 0 01.167-8.513c.154-.932-1.347-1.12-1.496-.193M129.265 38.467c.13 2.455-.116 4.866-.663 7.259-.208.919 1.247 1.134 1.458.233.586-2.519.828-5.07.699-7.651-.046-.942-1.546-.777-1.494.159M15.845 65.46c-.274 2.41-.17 4.794.236 7.183.159.925 1.559.534 1.403-.385a24.169 24.169 0 01-.185-6.798c.105-.93-1.35-.92-1.454 0zM25.29 64.326l.073 6.3c.01.936 1.466.936 1.455 0l-.072-6.3c-.011-.937-1.466-.937-1.455 0M33.747 63.775l.708 6.971c.094.927 1.55.938 1.456 0l-.709-6.97c-.094-.922-1.55-.933-1.455 0zM44.142 63.026c.06 2.517.117 5.034.175 7.545.022.939 1.478.944 1.455 0l-.175-7.545c-.02-.938-1.476-.938-1.455 0zM53.539 62.412l.115 7.374c.015.934 1.47.94 1.454 0l-.114-7.374c-.014-.939-1.47-.939-1.455 0zM63.388 62.367l-.013 7.8c0 .939 1.454.939 1.456 0l.011-7.8c.002-.939-1.453-.939-1.454 0M71.122 62.767a45.96 45.96 0 00.82 7.531c.18.922 1.582.53 1.404-.386a43.455 43.455 0 01-.769-7.145c-.023-.939-1.48-.939-1.455 0zM79.53 63.005l.258 6.844c.035.933 1.49.938 1.455 0l-.26-6.844c-.034-.933-1.49-.939-1.454 0zM86.992 62.982c.501 2.126.73 4.258.698 6.439-.014.939 1.44.939 1.455 0a27.79 27.79 0 00-.75-6.825c-.216-.911-1.62-.525-1.403.386M95.654 62.113l-.003 8.636c0 .939 1.454.939 1.455 0l.003-8.636c0-.94-1.454-.94-1.455 0zM103.997 62.708l-.002 6.643c0 .938 1.453.938 1.454 0l.002-6.643c.001-.938-1.454-.938-1.454 0zM112.492 61.974a66.54 66.54 0 01.055 6.714c-.04.94 1.415.934 1.454 0a65.957 65.957 0 00-.054-6.714c-.054-.934-1.51-.94-1.455 0zM122.403 61.463l.404 6.635c.056.934 1.512.94 1.455 0l-.403-6.635c-.057-.935-1.512-.94-1.456 0zM130.674 61.305c.57 2.473.718 4.946.475 7.468-.091.936 1.366.93 1.454 0a24.42 24.42 0 00-.525-7.856c-.212-.913-1.615-.525-1.404.388zM16.351 92.378c-.361 2.408-.222 4.8.55 7.118.295.886 1.701.507 1.403-.385a13.56 13.56 0 01-.55-6.343c.137-.919-1.264-1.314-1.403-.39zM23.934 92.403a31.298 31.298 0 00.28 7.24c.143.924 1.544.535 1.404-.384-.348-2.28-.41-4.56-.229-6.856.074-.934-1.381-.929-1.455 0zM33.088 90.88l.43 6.969c.057.93 1.513.941 1.454 0l-.429-6.97c-.057-.93-1.512-.936-1.455 0zM41.82 89.945l.428 7.636c.052.931 1.507.936 1.455 0-.144-2.544-.286-5.093-.428-7.636-.052-.932-1.507-.937-1.456 0zM51 90.578a65.653 65.653 0 00-.405 7.298c0 .941 1.455.941 1.455 0-.002-2.44.134-4.87.405-7.298.103-.931-1.353-.92-1.455 0M58.44 90.48a43.53 43.53 0 01.142 7.042c-.057.937 1.398.931 1.454 0a43.348 43.348 0 00-.143-7.042c-.093-.92-1.548-.931-1.453 0zM88.432 89.278a21.23 21.23 0 00.58 7.518c.235.906 1.638.52 1.403-.386a20.084 20.084 0 01-.527-7.132c.096-.932-1.36-.921-1.456 0M98.65 89.237l.6 7.347c.077.927 1.533.932 1.455 0l-.599-7.347c-.076-.927-1.531-.938-1.455 0M109.444 95.887c.508-2.9.468-5.79-.179-8.67-.205-.912-1.608-.526-1.403.387.588 2.621.641 5.253.179 7.896-.161.918 1.241 1.31 1.403.387M116.523 87.136c.218 2.61.434 5.226.651 7.837.077.93 1.534.935 1.455 0-.216-2.61-.433-5.227-.651-7.837-.077-.924-1.533-.935-1.455 0zM126.218 94.59a27.35 27.35 0 00-.241-7.223c-.151-.923-1.553-.531-1.403.387.373 2.272.419 4.549.189 6.836-.095.93 1.362.924 1.455 0M132.687 86.474l-.794 8.29c-.089.935 1.367.924 1.455 0l.793-8.29c.089-.935-1.366-.925-1.454 0zM115.707 121.764a27 27 0 00-.24-7.191c-.151-.905-1.549-.343-1.399.552.371 2.227.418 4.495.188 6.811-.095.947 1.359.765 1.451-.172zM24.15 114.852c.244 2.84.982 5.603 2.235 8.302.418.905 1.667.354 1.25-.546-1.135-2.445-1.818-4.957-2.04-7.532-.08-.936-1.526-1.17-1.446-.224M34.186 116.473c.486 2.488.97 4.975 1.457 7.463.184.945 1.582.721 1.4-.219-.486-2.482-.973-4.969-1.457-7.457-.186-.94-1.582-.727-1.4.213zM42.668 117.397a22.88 22.88 0 00.76 7.302c.245.933 1.65.679 1.401-.249a21.599 21.599 0 01-.707-6.913c.056-.928-1.398-1.068-1.454-.14M50.198 117.42l1.009 8.111c.115.928 1.573 1.042 1.457.104-.337-2.702-.672-5.404-1.01-8.106-.114-.923-1.574-1.048-1.456-.109zM59.797 125.168a53.4 53.4 0 01-.979-7.293c-.06-.934-1.52-1.016-1.459-.078a56.36 56.36 0 001.032 7.682c.19.933 1.596.612 1.406-.311M93.15 117.109l-.43 7.886c-.052.945 1.407.862 1.457-.077.145-2.631.287-5.261.43-7.892.052-.939-1.405-.851-1.456.083zM100.376 116.686c.433 2.612.439 5.256.098 7.941-.119.94 1.338.815 1.456-.115a28.453 28.453 0 00-.151-8.319c-.15-.914-1.554-.411-1.403.493M107.613 116.356c.065 2.145.132 4.284.195 6.429.029.935 1.483.79 1.455-.145a14230.4 14230.4 0 01-.196-6.429c-.027-.93-1.482-.79-1.454.145zM120.315 113.521c-.004 2.553-.008 5.112-.014 7.665-.001.944 1.448.74 1.449-.198.005-2.558.011-5.112.015-7.67.002-.938-1.448-.735-1.45.203M125.54 112.46c.057 2.28-.14 4.565-.607 6.882-.192.945 1.204 1.122 1.394.172.494-2.447.718-4.868.659-7.278-.022-.934-1.469-.71-1.446.224"
            fill="#C98866"
        ></path>
        <path
            d="M19.099 20.433c-1.687-1.553-4.797-3.454-9.23-.84-4.434 2.614-3.953 9.088-3.185 10.96 1.769 4.325 5.564 5.838 5.564 5.838a42.536 42.536 0 0111.537-8.393c-.996-1.734-2.892-5.901-4.686-7.565M143.46 21.043c-.386-.906-1.042-1.678-1.766-2.358-2.362-2.194-5.978-3.298-8.851-1.834-4.434 2.264-4.242 10.375-4.242 10.375a30.273 30.273 0 007.965 4.633c2.023-1.19 4.093-2.415 5.566-4.244 1.474-1.829 2.248-4.413 1.328-6.572M126.296 77.251c-.138-2.175.002-5.684-3.524-5.99-3.525-.311-3.343 8.34-3.005 9.275.253.7.541 1.443 1.159 1.847.672.443 1.525.202 2.303 0 2.183-.574 3.115-4.383 3.067-5.132"
            fill="#1F1611"
        ></path>
        <path
            d="M30.791 94.615c-1.356-2.857-4.425-4.89-8.287-4.805-2.541.054-4.818 1.541-6.548 3.27-1.431 1.433-1.971 2.776-1.654 4.707.244 1.493 1.752 4.746 6.736 5.5 2.864.428 6.119.476 8.292-1.305 1.962-1.605 2.816-4.505 1.462-7.367zM134.044 92.501c-.585-.588-1.357-1.017-2.148-1.386-2.385-1.108-5.306-1.766-7.856-.819-1.802.67-3.18 1.44-4.407 3.345-1.226 1.9-.516 5.203.431 6.595.945 1.391 3.835 3.821 8.369 3.286 2.751-.332 6.746-2.596 7.575-5.797.498-1.921-1.208-4.458-1.964-5.224"
            fill="#C54A49"
        ></path>
        <path
            d="M26.24 74.336c-.995-1.605-3.283-2.238-4.962-1.381-1.679.862-2.134 7.87-1.5 9.164.634 1.288 1.987 2.342 3.413 2.162 1.03-.131 1.902-.88 2.433-1.769.53-.895.77-1.927.973-2.947.35-1.758.588-3.706-.357-5.23"
            fill="#1F1611"
        ></path>
        <path
            d="M86.092 93.184c-2.198-7.105-4.657-15.142-14.231-15.289-9.575-.141-14.071 19.915-13.247 28.284.824 8.363 4.369 21.656 16.733 20.929 11.86-.689 11.514-8.889 12.387-13.597 1.363-7.349.555-13.217-1.642-20.327z"
            fill="#CE9C6E"
        ></path>
        <path
            d="M74.803 82.467c-1.155-.097-2.31.168-3.42.432-1.427.335-2.939.718-3.864 1.58-1.249 1.16 1.039 7.052 5.573 7.052 3.201 0 5.362-3.36 5.605-5.147.243-1.78-1.448-3.706-3.894-3.917"
            fill="#1F1611"
        ></path>
        <path
            d="M79.252 110.851c-1.192 1.81-2.892 2.728-4.728 2.958l-.498-22.379c-.301.064-.61.107-.933.107-.18 0-.349-.027-.521-.043.165 7.454.333 14.909.499 22.363-1.54-.096-3.109-.614-4.505-1.458-.804-.486-1.535.769-.734 1.255 4.262 2.584 9.764 2.36 12.676-2.072.517-.785-.743-1.511-1.255-.731"
            fill="#1F1611"
        ></path>
        <path
            d="M114.496 52.049c-2.269 3.965 5.855 10.017 8.881 5.861 3.024-4.156-6.305-10.365-8.881-5.861zM31.369 52.925c2.833 2.457-2.46 11.147-7.751 7.745-5.29-3.403 4.004-10.996 7.75-7.745z"
            fill="#9C513F"
        ></path>
        <path fill="#fff" fill-opacity="0.01" d="M149 149h1v1h-1z"></path>
    </svg>