 <svg
        xmlns="http://www.w3.org/2000/svg"
        width="150"
        height="150"
        viewBox="0 0 150 150"
        fill="none"
        style="width: 4rem; height: 4rem; background: none"
    >
        <path fill="#fff" fill-opacity="0.01" d="M149 149h1v1h-1z"></path>
        <path
            d="M138.107 68.579c-6.296-23.49-25.989-42.922-49.594-48.73-23.604-5.806-50.145 2.341-66.298 20.515-4.754 5.352-8.673 11.54-10.871 18.352-4.71 14.574-2.228 34.902 6.594 47.41 8.814 12.516 19.186 20.044 40.109 24.949 15.334 3.593 39.922 2.267 60.308-10.652 11.534-7.305 19.655-20.29 21.354-33.842.76-6.016-.037-12.15-1.602-18.002"
            fill="#305178"
        ></path>
        <path
            d="M78.21 56.924a72.645 72.645 0 011.96-4.95c.297-.67-.694-1.267-.992-.589a80.805 80.805 0 00-2.079 5.218c-.246.701.865 1.014 1.11.32M75.347 51.988c-.202-2.087-.41-4.175-.619-6.262-.074-.738-1.222-.752-1.155-.014l.626 6.261c.067.73 1.222.753 1.148.015zM70.904 49.7c-1.065-1.931-2.19-3.817-3.472-5.606l-.998.574c1.274 1.789 2.406 3.675 3.472 5.605l.998-.574zM83.052 46.938a27.183 27.183 0 013.786-4.682l-.805-.82a28.306 28.306 0 00-3.972 4.913l.991.589zM80.52 41.815a66.597 66.597 0 012.087-4.651l-.991-.59a69.169 69.169 0 00-2.198 4.92c-.284.694.834 1 1.102.321zM72.591 40.84a32.154 32.154 0 00-1.512-4.883c-.268-.679-1.386-.395-1.11.298a31.889 31.889 0 011.505 4.883c.164.73 1.274.432 1.117-.299zM61.733 40.7a14.08 14.08 0 01-2.541-3.273L58.186 38a15.59 15.59 0 002.727 3.51l.82-.812zM65.55 35.949a29.579 29.579 0 01-3.636-5.747l-.998.573a30.596 30.596 0 003.815 5.979l.82-.805M77.038 34.913l.067-7.85c.007-.745-1.14-.752-1.147-.007l-.067 7.842c-.008.746 1.14.76 1.147.015zM88.029 37.2a12.01 12.01 0 013.77-3.78l-.574-1.007a13.479 13.479 0 00-4.187 4.197l.991.59M93.9 40.25a29.812 29.812 0 016.46-3.69c.678-.283.104-1.282-.574-.999a29.99 29.99 0 00-6.46 3.69l.574.999zM97.038 32.2a58.44 58.44 0 016.49-3.497c.678-.305.104-1.304-.567-.999a57.916 57.916 0 00-6.497 3.496l.574 1zM86.597 31.14c1.184-1.274 2.377-2.549 3.561-3.823l-.804-.82c-1.192 1.274-2.377 2.549-3.57 3.824l.813.82zM82.432 26.94a23.681 23.681 0 012.175-4.957l-.99-.589a24.768 24.768 0 00-2.288 5.233c-.224.708.887 1.021 1.103.313M71.668 27.85c-.507-1.797-1.014-3.586-1.513-5.375-.201-.716-1.319-.418-1.118.298.507 1.789 1.014 3.578 1.513 5.367.201.716 1.319.418 1.118-.29zM64.507 26.227a30.674 30.674 0 01-1.982-4.54c-.239-.693-1.356-.402-1.118.298a33.275 33.275 0 002.101 4.816l.999-.574M56.98 30.016a54.343 54.343 0 00-3.539-4.607l-.82.805a51.634 51.634 0 013.361 4.376l.998-.574M51.51 34.05a23.945 23.945 0 00-5.267-4.174l-.596.991a22.888 22.888 0 015.044 3.988l.82-.805z"
            fill="#1E3A59"
        ></path>
        <path
            d="M126.93 70.936c-1.699-8.35-5.551-17.436-11.795-23.22-4.701-4.369-13.233-7.134-19.85-4.615-10.028 3.81-14.096 12.106-19.036 21.946-5.79-11.838-14.21-20.656-23.247-22.64-9.03-1.982-15.2-.491-22.16 5.6-12.57 11.002-15.08 27.58-8.866 43.093 4.329 10.801 13.27 19.396 23.664 24.621 10.402 5.226 31.25 7.097 53.342 2.549 10.006-2.057 19.73-7.513 24.923-16.324 5.395-9.154 5.149-20.597 3.025-31.01"
            fill="#fff"
        ></path>
        <path
            d="M29.6 53.593c-.18 1.335-.358 2.676-.544 4.018-.097.73 1.057.73 1.154.008.18-1.342.365-2.684.544-4.018.104-.738-1.05-.738-1.155-.008zM35.917 52.493l-.044 4.897c-.008.746 1.147.753 1.147.008l.045-4.898c.007-.745-1.14-.753-1.148-.007zM43.164 53.003c.216 1.237.276 2.482.194 3.742-.052.745 1.095.745 1.147.007.09-1.364.008-2.706-.23-4.047-.127-.731-1.245-.433-1.111.298zM49.426 52.131c.544 1.394.693 2.848.402 4.316-.141.723.969 1.044 1.11.32.328-1.669.224-3.346-.394-4.934-.269-.678-1.386-.387-1.118.298M56.54 51.816c.417 1.565.693 3.138.805 4.756.06.73 1.207.752 1.155.007a27.108 27.108 0 00-.85-5.061c-.186-.716-1.304-.425-1.11.298M63.32 51.874c.29 1.044.506 2.103.626 3.176.082.73 1.229.745 1.154.015a21.922 21.922 0 00-.67-3.481c-.201-.716-1.312-.425-1.11.29M86.008 52.022c.112.857.216 1.722.32 2.587.09.722 1.245.745 1.155.007-.104-.865-.216-1.722-.32-2.587-.09-.723-1.245-.745-1.155-.007zM91.875 50.884l.693 3.75c.134.73 1.252.431 1.118-.292-.231-1.252-.47-2.504-.693-3.757-.142-.723-1.252-.424-1.118.299zM97.31 50.324c.373 1.379.448 2.766.254 4.182-.104.73 1.05.73 1.155.007a11.13 11.13 0 00-.298-4.487c-.187-.716-1.304-.425-1.11.298M103.608 51.085c.15 1.2.306 2.4.455 3.6.097.738 1.207.432 1.11-.298-.149-1.2-.298-2.393-.454-3.593-.09-.738-1.207-.432-1.111.29zM109.817 50.969c.238 1.453.208 2.952.283 4.42.037.738 1.192.753 1.155.008-.082-1.573-.067-3.169-.328-4.727-.119-.73-1.23-.424-1.11.299M116.195 51.473c.119 1.491.208 3.012.111 4.51-.052.745 1.103.745 1.148.007.104-1.498.015-3.019-.112-4.51-.059-.73-1.214-.752-1.147-.007zM23.697 66.072c-.015 1.588-.022 3.168-.037 4.756-.008.745 1.14.753 1.147.007l.045-4.748c.007-.746-1.148-.753-1.155-.015M29.895 65.545c.134 1.558.365 3.101.7 4.63.164.722 1.274.424 1.118-.299a32.487 32.487 0 01-.67-4.316c-.06-.738-1.215-.753-1.148-.015zM36.239 66.489c.156 1.163.313 2.318.47 3.473.096.738 1.214.433 1.117-.298l-.47-3.473c-.096-.73-1.214-.433-1.117.298zM43.122 66.11l.894 4.607c.149.723 1.26.425 1.117-.298-.298-1.536-.603-3.071-.901-4.607-.142-.723-1.26-.425-1.11.298zM49.522 65.584c.29 1.476.454 2.96.514 4.465.022.738 1.177.753 1.147.008a30.281 30.281 0 00-.544-4.771c-.141-.73-1.259-.432-1.117.298zM56.233 65.772c.052 1.49.097 2.982.15 4.473.022.738 1.176.752 1.154.007-.052-1.49-.104-2.982-.149-4.465-.022-.745-1.177-.753-1.155-.015zM64.231 65.559c.232 1.52.269 3.108.023 4.621-.112.73.99 1.051 1.11.32.276-1.736.246-3.503-.015-5.232-.112-.738-1.23-.432-1.118.29M70.748 66.036c.365 1.29.447 2.579.26 3.906-.103.738 1.052.738 1.148.007a9.95 9.95 0 00-.298-4.212c-.208-.708-1.319-.417-1.11.299M78.855 65.566c.283 1.2.567 2.4.85 3.608.171.715 1.281.424 1.11-.299-.283-1.207-.566-2.407-.85-3.608-.17-.723-1.281-.424-1.11.299zM85.22 65.463l.559 3.608c.112.73 1.23.433 1.11-.298l-.559-3.6c-.112-.738-1.23-.433-1.11.29zM91.881 65.529c.037 1.341.082 2.69.127 4.04.022.738 1.17.753 1.147.007-.037-1.349-.082-2.698-.127-4.04-.022-.738-1.17-.753-1.147-.007zM99.033 65.6c.358 1.76.47 3.527.35 5.323-.052.738 1.103.746 1.155.008.127-1.901-.015-3.765-.395-5.628-.149-.73-1.259-.433-1.11.298M107.396 65.954a12.669 12.669 0 00.38 4.763c.194.723 1.304.425 1.11-.298a11.802 11.802 0 01-.342-4.45c.082-.738-1.073-.746-1.148-.015zM113.035 65.255l.357 3.899c.067.73 1.215.753 1.148.007-.12-1.297-.239-2.594-.351-3.898-.074-.731-1.221-.746-1.154-.008zM119.362 65.615c.432 1.662.588 3.332.476 5.047-.052.737 1.103.745 1.148.007a16.533 16.533 0 00-.507-5.345c-.186-.723-1.304-.425-1.117.29zM23.138 85.087a37.78 37.78 0 00.991 4.457c.209.716 1.319.425 1.118-.29a38.267 38.267 0 01-.998-4.466c-.12-.73-1.23-.432-1.11.299zM30.358 84.864c.209 1.066.417 2.125.633 3.183.142.73 1.26.433 1.11-.29a399.987 399.987 0 00-.633-3.19c-.142-.731-1.26-.433-1.11.297zM37.345 83.63c.12 1.2.164 2.4.142 3.6-.023.746 1.132.753 1.147.008a27.59 27.59 0 00-.141-3.593c-.075-.73-1.23-.753-1.148-.015zM43.442 83.103l.201 5.189c.03.737 1.185.752 1.155.007l-.2-5.188c-.03-.738-1.178-.753-1.156-.008zM48.777 84.169c.38 1.125.604 2.273.663 3.459.038.737 1.185.752 1.148.007a14.102 14.102 0 00-.693-3.765c-.231-.7-1.349-.41-1.118.299M54.419 84.206c.305 1.237.41 2.475.328 3.75-.045.745 1.11.745 1.154.007a13.27 13.27 0 00-.365-4.055c-.178-.723-1.296-.425-1.117.298zM59.542 84.385c.075 1.058.142 2.117.216 3.175.045.738 1.2.753 1.148.015-.067-1.066-.142-2.117-.209-3.175-.052-.739-1.207-.753-1.155-.015zM65.17 83.444l.515 4.897c.074.738 1.23.753 1.155.015-.18-1.632-.35-3.272-.522-4.905-.074-.73-1.23-.752-1.147-.007zM71.382 83.797c.35 1.222.522 2.46.522 3.742 0 .745 1.147.753 1.155.007 0-1.371-.186-2.728-.566-4.047-.202-.716-1.32-.425-1.11.298zM77.89 84.83c.283 1 .387 1.999.335 3.035-.037.738 1.11.745 1.155.007a10.127 10.127 0 00-.38-3.34c-.201-.715-1.311-.417-1.11.299zM83.49 85.182a12.16 12.16 0 01.187 3.6c-.068.739 1.08.746 1.154.008.12-1.312.038-2.609-.23-3.906-.15-.723-1.26-.432-1.11.298zM90.725 84.233c.083 1.491.164 2.99.239 4.48.045.738 1.192.753 1.155.008-.082-1.491-.157-2.982-.239-4.473-.044-.738-1.192-.753-1.154-.015zM96.121 83.998c.283 1.483.35 2.96.231 4.458-.067.745 1.088.745 1.148.007a17.609 17.609 0 00-.261-4.763c-.142-.723-1.252-.425-1.118.298zM103.171 82.93c.365 1.542.723 3.078 1.088 4.62.172.724 1.282.433 1.11-.297-.357-1.536-.722-3.079-1.08-4.622-.171-.723-1.282-.425-1.118.298zM109.255 82.105c.387 1.819.782 3.645 1.17 5.471.156.724 1.274.425 1.117-.298-.394-1.826-.782-3.645-1.177-5.471-.156-.723-1.267-.425-1.11.298zM117.208 83.31c.097 1.49.112 2.974.03 4.473-.037.738 1.118.745 1.155.007a39.03 39.03 0 00-.03-4.473c-.045-.737-1.199-.752-1.155-.007zM123.511 82.804c.536 1.461.656 2.945.313 4.465-.164.723.946 1.044 1.11.313.388-1.707.298-3.421-.313-5.076-.253-.693-1.371-.403-1.11.298M37.177 103.777c.596 1.402 1.185 2.811 1.78 4.212.291.686 1.29.105 1-.566-.59-1.409-1.186-2.811-1.782-4.219-.283-.686-1.281-.105-.998.573zM43.947 102.556a14.72 14.72 0 00.931 4.026c.269.685 1.379.395 1.11-.299-.461-1.2-.774-2.437-.886-3.719-.067-.731-1.222-.753-1.155-.008zM51.757 102.987c.067.954.06 1.916-.023 2.87-.067.745 1.088.745 1.155.015.082-.962.09-1.916.015-2.877-.052-.731-1.207-.753-1.148-.008zM59.575 102.725c.081 1.223.156 2.453.238 3.683.045.738 1.192.753 1.147.015-.074-1.238-.156-2.46-.23-3.69-.045-.738-1.2-.753-1.155-.008zM66.451 103.048c.127.864.261 1.729.388 2.601.112.731 1.222.433 1.117-.298-.134-.865-.26-1.737-.395-2.601-.111-.731-1.222-.433-1.11.298zM75.19 102.951l.603 2.87c.157.731 1.267.433 1.118-.298l-.603-2.87c-.157-.73-1.267-.432-1.118.298zM82.282 101.563c.38 1.431.678 2.878.887 4.346.104.738 1.222.44 1.118-.291a36.086 36.086 0 00-.895-4.353c-.193-.716-1.303-.425-1.11.298zM89.67 101.619c.164 1.401.35 2.803.566 4.204.12.738 1.23.44 1.118-.291-.201-1.304-.38-2.601-.537-3.906-.082-.73-1.236-.745-1.147-.007zM98.206 100.992c.075 1.55.149 3.101.23 4.651.038.738 1.186.753 1.148.008l-.223-4.652c-.037-.738-1.192-.753-1.155-.007zM105.369 100.977a46.17 46.17 0 01.768 4.503c.081.723 1.236.745 1.147.007a51.87 51.87 0 00-.797-4.8c-.164-.731-1.274-.433-1.118.29zM113.244 100.358c.171 1.639.216 3.279.134 4.927-.037.745 1.118.753 1.155.007a32.042 32.042 0 00-.134-4.927c-.082-.73-1.237-.745-1.155-.007zM120.732 100.347c.082 1.073 0 2.124-.254 3.168-.178.723.932 1.036 1.103.313.283-1.141.388-2.296.298-3.466-.052-.738-1.207-.753-1.147-.015M58.126 115.182l.47 2.803c.118.731 1.236.433 1.11-.298-.157-.932-.314-1.871-.463-2.803-.126-.73-1.237-.432-1.117.298M65.429 114.9c.082 1.207.164 2.422.238 3.63.053.738 1.2.753 1.155.007-.082-1.207-.156-2.422-.238-3.63-.052-.738-1.2-.753-1.155-.007zM73.552 115.646c.514 1.304.82 2.639.894 4.04.037.738 1.192.753 1.155.008a14.032 14.032 0 00-.931-4.346c-.269-.686-1.386-.395-1.118.298M80.325 116.137l.491 2.468c.15.73 1.26.424 1.118-.299-.171-.82-.335-1.647-.5-2.467-.14-.723-1.258-.432-1.11.298zM87.64 114.894a5.98 5.98 0 00.276 2.177c.224.701 1.341.41 1.11-.298l-.23-1.871c.037-.738-1.11-.746-1.156-.008zM94.033 113.502c.112 1.2.216 2.4.328 3.608.06.73 1.214.753 1.147.015-.104-1.208-.216-2.408-.32-3.616-.067-.738-1.222-.753-1.155-.007zM102.395 112.561a7.373 7.373 0 00-.089 3.049c.126.731 1.237.433 1.11-.298a5.946 5.946 0 01.089-2.43c.172-.723-.938-1.044-1.11-.321"
            fill="#DAD9D7"
        ></path>
        <path
            d="M81.548 80.392c-3.45-1.819-7.593-1.849-11.438-1.17-2.66.47-5.528 1.453-6.817 3.831-1.46 2.691-.552 7.328 1.035 9.944 2.668 4.406 7.831 9.661 9.895 10.347 3.704-1.782 11.251-7.626 12.473-13.329.827-3.816-1.691-7.797-5.148-9.623z"
            fill="#F0365E"
        ></path>
        <path
            d="M31.193 72.972c-2.519-.134-2.541 3.415-2.623 5.166-.082 1.76.872 3.675 2.272 3.735 1.401.06 2.34-1.118 2.534-3.213.194-2.095.335-5.553-2.183-5.688zM116.15 73.14c-2.116-.24-3.264 4.427-2.683 7.588.574 3.153 3.823 3.153 5.246.395 1.415-2.766-.447-7.738-2.563-7.984z"
            fill="#2D2F35"
        ></path>
        <path
            d="M43.047 95.279c1.543-7.626-4.917-8.714-8.061-9.482-3.152-.768-7.138 1.573-7.973 5.822-.834 4.241.834 7.439 4.545 8.639 3.718 1.193 9.947 2.646 11.49-4.98M126.103 90.473c-1.229-5.62-10.252-6.068-15.304-2.878-5.052 3.19-2.519 11.607 3.397 13.806 5.917 2.199 13.137-5.315 11.907-10.928z"
            fill="#F7B8D6"
        ></path>
    </svg>