 <svg
        xmlns="http://www.w3.org/2000/svg"
        width="150"
        height="150"
        viewBox="0 0 150 150"
        fill="none"
        style="width: 4rem; height: 4rem; background: none"
    >
        <path
            d="M118.189 23.384c-4.539 5.668-8.122 12.6-11.022 19.395 1.147 1.994 2.376 4.525 3.629 7.518 7.903-2.058 16.453-6.587 21.242-12.861 5.235-6.864 7.512-17.003 6.929-25.616-8.186.176-15.661 5.174-20.778 11.564z"
            fill="#CFCECD"
        ></path>
        <path
            d="M129.386 23.993c-14.044 6.201-20.263 21.597-20.263 21.597 3.733-.949 7.07-3.12 9.902-5.735 2.827-2.61 5.203-5.672 7.562-8.717 1.62-2.092 3.332-4.556 2.799-7.145"
            fill="#8A7E7B"
        ></path>
        <path
            d="M41.63 45.825c-5.247-11.761-13.68-22.098-24.426-29.213-1.365-.901-3.123-1.775-4.556-.98-1.323.73-1.611 2.484-1.643 3.994-.155 7.688 3.138 17.367 8.161 23.19 4.543 5.266 12.011 8.599 19.043 9.934.951-2.315 2.11-4.615 3.422-6.925z"
            fill="#CFCECD"
        ></path>
        <path
            d="M27.024 31.579c-1.494-1.441-5.987-4.093-7.978-3.508 2.457 7.731 14.548 17.838 19.302 19.378-1.894-5.476-6.634-11.35-11.324-15.87z"
            fill="#8A7E7B"
        ></path>
        <path
            d="M74.87 27.317c2.47 0 4.703.097 6.757.274 1.432-6.789 3.243-17.911.405-18.631-2.995-.752-3.74 5.403-5.56 10.398-.154-6.241-1.451-12.815-4.163-16.36-.655 1.773-1.441 10.924-3.091 15.393-2.093-1.96-4.73-9.141-7.255-7.492-2.238 1.455 1.709 10.972 4.913 17.304 2.525-.515 5.152-.886 7.994-.886"
            fill="#1F1611"
        ></path>
        <path
            d="M104.638 38.874c-4.83-5.99-10.663-11.55-29.768-11.55-16.662 0-28.118 10.109-31.546 15.55-4.686 7.44-7.372 14.28-8.695 22.666-3.896 24.698-2.104 50.508 8.916 66.642 4.628 6.773 11.225 15.059 27.705 15.759 16.48.705 31.999-4.867 40.053-18.202 5.363-8.882 8.404-22.223 8.358-32.395-.136-30.921-10.193-52.476-15.023-58.47"
            fill="#EAECE4"
        ></path>
        <path
            d="M100.638 112.188c-7.048-4.703-17.032-5.688-25.5-5.437-25.53.753-31.923 15.216-32.07 24.597.171.266.298.573.475.834 4.628 6.777 11.224 15.06 27.704 15.761 15.386.653 29.855-4.248 38.269-15.742 1.393-7.97-2.072-15.472-8.878-20.013z"
            fill="#8A7E7B"
        ></path>
        <path
            d="M114.289 74.45c-.615-.272-1.361-.375-2.113-.43-2.267-.167-4.917.129-6.951 1.481-1.439.958-2.49 1.876-3.205 3.57-.715 1.692.5 3.874 1.575 4.624 1.074.75 4.02 1.738 7.849.153 2.326-.962 5.371-3.642 5.503-6.165.078-1.51-1.861-2.883-2.658-3.233z"
            fill="#FABBC1"
        ></path>
        <path
            d="M105.594 65.96c-2.035.125-2.513 4.244-2.313 5.665.164 1.117 1.098 4.587 3.487 4.901 1.257.165 2.372-.892 2.923-2.034 1.402-2.882-.022-8.776-4.097-8.531"
            fill="#1F1611"
        ></path>
        <path
            d="M102.389 55.186a42.72 42.72 0 011.689.766c.268.132.533.27.797.412.195.111.942.69.345.177.925.797 2.254.914 3.165 0 .81-.812.928-2.37 0-3.163-1.088-.934-2.431-1.498-3.734-2.056-1.124-.483-2.39-.345-3.063.802-.56.955-.319 2.58.801 3.062zM46.54 52.318c-1.452.37-2.77 1.155-3.948 2.063-.964.74-1.479 1.906-.803 3.062.557.948 2.093 1.552 3.063.801.496-.38 1.008-.735 1.548-1.054a10 10 0 01.83-.426c-.32.147.418-.112.5-.132 1.18-.3 1.882-1.592 1.563-2.753-.327-1.191-1.573-1.866-2.754-1.561"
            fill="#ACA3A0"
        ></path>
        <path
            d="M50.298 80.013c-.903-2.371-3.438-4.328-6.916-4.757-2.29-.286-4.497.567-6.24 1.676-1.444.917-2.076 1.883-2.003 3.41.056 1.179 1.054 3.875 5.448 5.088 2.527.7 5.445 1.158 7.594.064 1.937-.986 3.022-3.11 2.117-5.481"
            fill="#FABBC1"
        ></path>
        <path
            d="M46.643 66.262c-3.521-.19-4.075 4.974-3.828 6.733.248 1.76 1.279 3.803 3.047 3.758 1.769-.045 3.285-1.674 3.728-3.548.443-1.87-.701-6.823-2.947-6.943zM70.273 27.66c1.233 18.265 3.783 36.849 4.898 55.082 2.13-18.348 3.345-36.796 3.812-55.264-1.34-.063-2.618-.157-4.113-.157-1.596 0-3.1.167-4.597.34zm16.932 42.514c2.297-13.237 4.594-26.478 6.889-39.72-2.322-1.008-5.13-1.807-8.564-2.35 1.811 13.92 2.406 28.035 1.675 42.07zM55.208 32.495c1.178 7.728 7.858 22.6 11.824 34.358-.206-12.73-1.167-25.44-2.776-38.06a40.715 40.715 0 00-9.048 3.702zM36.727 117.578c6.06-3.308 12.802-7.069 18.787-10.324-6.154 1.168-14.026 2.574-20.522 3.79a76.39 76.39 0 001.735 6.534zM32.828 85.78c-.056 2.622-.07 5.23.03 7.794 5.472-.136 12.238-.725 17.053-1.771-5.075-1.96-11.663-4.038-17.083-6.023zm1.108 19.047c9.134-1.47 18.169-3.552 26.919-6.558-9.23-.176-18.457-.356-27.686-.536.182 2.409.432 4.773.767 7.094zm85.142-19.402c-7.612 1.916-16.412 4.247-23.65 6.037 6.309-.024 16.252.963 24.046 1.581-.095-2.588-.177-5.176-.396-7.618zm-28.672 14.96c9.219 2.243 18.957 3.556 28.79 4.048.256-2.287.424-4.52.433-6.612-9.879-.19-19.813.618-29.223 2.564zm26.414 15.821a73.909 73.909 0 001.511-6.524c-6.373-.671-13.498-1.45-19.657-2.087 5.709 2.505 12.187 5.838 18.146 8.611zM66.546 139.152c5.153 5.6 15.455 5.385 19.71-1.389.647-1.03-.99-1.969-1.632-.944-3.631 5.777-12.436 5.686-16.74 1.007-.823-.893-2.157.438-1.338 1.326M91.918 117.882c-1.64 1.455-.606 3.999.906 4.947 1.84 1.15 4.835 2.943 6.797 1.549 1.962-1.389-2.531-11.078-7.703-6.496M59.439 117.161c-5.319-.79-6.44 7.307-4.75 8.588 1.691 1.276 6.382-2.922 7.116-3.904 1.685-2.253.472-4.264-2.366-4.684z"
            fill="#1F1611"
        ></path>
        <path fill="#fff" fill-opacity="0.01" d="M149 149h1v1h-1z"></path>
    </svg>