<svg
        xmlns="http://www.w3.org/2000/svg"
        width="150"
        height="150"
        viewBox="0 0 150 150"
        fill="none"
        style="width: 4rem; height: 4rem; background: none"
    >
        <path
            d="M146.871 42.447c-.259-.668-.927-1.076-1.564-1.395-4.91-2.465-10.772-2.963-16.02-1.354-5.249 1.608-9.836 5.308-12.515 10.1-1.877 3.35-4.596 6.533-4.865 11.861 7.997 1.46 14.586-.568 16.901-1.23 4.194-1.2 8.078-3.58 11.634-6.1 3.555-2.52 6.374-6.434 6.553-10.787.015-.373.005-.752-.124-1.095"
            fill="#E18937"
        ></path>
        <path
            d="M138.209 44.847c-3.675 1.138-7.43 2.181-10.803 4.031-7.157 3.918-13.093 10.66-13.093 10.66 5.441 1.058 11.016-.435 16.358-1.92 1.607-.445 3.225-.89 4.743-1.582 4.877-2.221 8.478-7.049 9.21-12.356-2.186-.134-4.328.52-6.415 1.167"
            fill="#F3D4A6"
        ></path>
        <path
            d="M37.833 62.29C32.071 46.366 22.061 42.112 19.86 40.61c-4.973-3.395-11.35-4.654-17.236-3.4-.854 1.957-.769 4.214-.115 6.246C7.571 59.159 16.244 60.92 22.7 62.953c7.414 2.337 15.133-.664 15.133-.664z"
            fill="#E18937"
        ></path>
        <path
            d="M10.085 43.553c-1.537-.918-3.144-1.83-4.919-2.063.09 3.823 1.636 7.473 3.62 10.741.734 1.205 1.478 2.48 2.643 3.273 10.93 7.424 22.068 5.728 22.068 5.728-6.958-6.903-14.996-12.646-23.412-17.68"
            fill="#F3D4A6"
        ></path>
        <path
            d="M117.829 62.242c-5.756-9.055-16.926-13.693-27.998-15.904-12.843-2.566-26.837-2.433-39.14 2.888-12.298 5.326-24.122 16.472-23.652 29.052.86 23.123 15.898 44.471 34.363 57.541 4.683 3.318 10.552 6.121 16.625 5.409 4.861-.568 9.168-3.441 12.966-6.502 13.025-10.513 22.905-24.523 28.058-39.778 3.679-10.889 4.782-23.261-1.222-32.706z"
            fill="#F3D4A6"
        ></path>
        <path
            d="M124.385 6.296c-.696-1.87-2.53-3.403-4.52-3.289-2.209.125-3.871 2.104-4.723 4.141-.852 2.032-1.195 4.282-2.281 6.204-1.237 2.208-3.435 3.855-5.903 4.416-.919.208-1.912.265-2.78-.104-1.818-.779-2.395-3.06-2.556-5.034-.156-1.975-.229-4.183-1.642-5.565-1.704-1.658-4.567-1.283-6.645-.125-1.278.712-2.468 1.746-2.905 3.138-.738 2.37.925 4.828 2.832 6.423 1.907 1.59 4.203 2.836 5.487 4.967.899 1.496 1.2 3.289 1.252 5.035a20.685 20.685 0 01-3.596 12.236c-1.376 2-3.101 3.746-4.437 5.777a167.94 167.94 0 00-1.32 2 68.082 68.082 0 017.893 2.136 9.548 9.548 0 011.31-.893c2.826-1.6 6.12-2.084 9.212-3.071 3.34-1.065 6.577-2.811 8.728-5.586 2.157-2.769 3.03-6.692 1.59-9.892-2.203.171-3.398 2.54-4.707 4.322a12.578 12.578 0 01-6.412 4.568c-.95.29-2.14.41-2.795-.338-.421-.473-.488-1.148-.494-1.772-.052-4.422 2.1-8.812 5.622-11.483 2.442-1.855 5.42-2.873 7.919-4.66a15.678 15.678 0 005.679-7.68c.634-1.896.888-4 .192-5.871M47.808 50.598c.96-.488 1.92-.95 2.884-1.365a50.336 50.336 0 015.023-1.863 21.562 21.562 0 00-3.207-6.46c-1.759-2.396-4.02-4.451-5.318-7.118-1.4-2.9-1.525-6.242-1.385-9.454.124-2.703.529-5.66 2.521-7.492 1.775-1.64 4.483-2.039 6.128-3.813 1.583-1.713 1.733-4.566.337-6.434-1.4-1.863-4.182-2.522-6.267-1.484-1.531.763-2.558 2.236-3.523 3.647-1.9 2.781-2.73 7.347-5.682 8.338-2.807.54-5.879-.856-7.31-3.325-.748-1.287-1.07-2.787-1.827-4.073-.747-1.287-2.205-2.382-3.642-1.993-1.054.28-1.77 1.277-2.153 2.299-1.002 2.661-.255 5.754 1.395 8.068 1.645 2.32 4.078 3.954 6.61 5.235 2.704 1.365 5.697 2.48 7.565 4.862 1.868 2.376 1.785 6.584-.986 7.788-2.775 1.209-5.697-1.323-7.44-3.793-.752-1.064-2.065-2.293-3.123-1.541-.52.374-.66 1.09-.66 1.733-.005 3.575 2.86 6.543 5.978 8.291 3.113 1.754 6.646 2.72 9.64 4.67 1.94 1.266 3.663 3.154 4.442 5.277"
            fill="#C3AA99"
        ></path>
        <path
            d="M81.886 126.871c.257 0 .226-.004-.013-.018.004.014.008.018.013.018z"
            fill="#B39988"
        ></path>
        <path
            d="M89.831 46.344c-12.842-2.566-26.837-2.433-39.14 2.888-5 2.166-9.915 5.291-13.96 9.08 25.492 22.573 28.795 47.452 36.455 75.119 2.824-.47 6.394-.42 9.099.272.87-7.2 4.208-28.429 9.01-41.8 5.78-16.111 14.469-28.924 20.977-35.901-6.058-5.069-14.272-8.026-22.441-9.658"
            fill="#E18937"
        ></path>
        <path
            d="M47.535 57.688a45.266 45.266 0 014.087 6.57c.292.569 1.149.067.861-.507a45.926 45.926 0 00-4.087-6.564c-.38-.506-1.24-.01-.861.501zM56.474 61.143a38.511 38.511 0 00-2.88-6.409c-.312-.556-1.176-.053-.859.503a36.826 36.826 0 012.778 6.17c.21.605 1.171.342.961-.264zM59.267 53.56a145.648 145.648 0 011.575 6.914c.122.626 1.08.362.953-.264a134.446 134.446 0 00-1.57-6.915c-.156-.621-1.115-.357-.958.264zM65.34 52.41l1.294 7.714c.103.632 1.062.362.96-.265-.431-2.57-.862-5.142-1.288-7.713-.108-.632-1.068-.363-.965.264zM73.244 60.237a38.407 38.407 0 01.098-8.522c.074-.637-.921-.627-.995 0a39.008 39.008 0 00-.102 8.522c.063.627 1.058.637 1 0zM78.48 52.189a95.096 95.096 0 00.098 7.566c.039.637 1.033.642.999 0a97.476 97.476 0 01-.103-7.566c.02-.642-.98-.642-.994 0zM84.492 53.068a63.718 63.718 0 01-.024 7.299c-.04.64.954.64.993 0a63.74 63.74 0 00.025-7.299c-.035-.636-1.033-.64-.994 0zM92.372 53.641a21.297 21.297 0 00-2.254 7.806c-.058.64.934.636.997 0a19.801 19.801 0 012.117-7.302c.293-.572-.567-1.076-.86-.504M97.293 62.73c.513-2.682 1.123-5.343 1.822-7.985.16-.62-.796-.884-.957-.264a115.056 115.056 0 00-1.827 7.984c-.117.63.84.894.962.264zM60.154 80.61a42.305 42.305 0 00-2.563-6.64c-.28-.576-1.143-.071-.862.505a40.96 40.96 0 012.463 6.397c.181.615 1.143.353.962-.261M61.205 72.215c.76 2.464 1.514 4.929 2.273 7.393.191.611 1.151.353.96-.263-.755-2.464-1.514-4.928-2.273-7.393-.191-.611-1.151-.349-.96.263zM66.124 71.357a205.71 205.71 0 002.104 8.491c.162.622 1.123.359.956-.263a207.547 207.547 0 01-2.099-8.491c-.139-.627-1.1-.359-.961.263zM72.268 71.096a98.215 98.215 0 001.138 7.368c.125.63 1.08.363.956-.263a96.63 96.63 0 01-1.1-7.105c-.07-.631-1.07-.636-.994 0zM78.036 69.83c.321 2.965.637 5.929.953 8.893.067.633 1.064.637.996 0-.316-2.964-.636-5.928-.953-8.893-.071-.632-1.067-.637-.996 0zM82.863 70.982l.444 6.379c.043.636 1.038.64.99 0-.143-2.128-.287-4.251-.44-6.38-.043-.635-1.037-.64-.994 0zM89.002 69.713a117.61 117.61 0 00-1.154 9.163c-.058.637.938.632.996 0 .254-2.98.627-5.95 1.12-8.9.101-.627-.857-.895-.962-.263M93.499 77.91a51.65 51.65 0 012.64-6.697c.278-.574-.583-1.081-.856-.502a52.366 52.366 0 00-2.74 6.936c-.197.612.77.875.956.263M64.13 90.827c.76 2.602 1.44 5.222 2.037 7.86.14.63 1.1.364.96-.261a126.25 126.25 0 00-2.041-7.86c-.173-.615-1.133-.354-.956.261M71.636 96.862c.214-2.253.07-4.505-.415-6.721-.14-.625-1.097-.36-.961.266.466 2.127.587 4.286.382 6.455-.065.64.933.635.994 0zM75.535 89.13c.182 2.43.36 4.854.542 7.282.047.636 1.042.64.995 0-.182-2.428-.36-4.852-.542-7.281-.046-.635-1.041-.64-.995 0zM82.453 97.828c-.043-3.113-.005-6.226.121-9.34.019-.64-.972-.635-.996 0a172.85 172.85 0 00-.117 9.34c.005.64 1 .64.992 0M86.62 97.886c.589-2.864 1.196-5.75 2.536-8.37.295-.57-.565-1.075-.859-.505-1.383 2.704-2.027 5.656-2.634 8.609-.131.63.831.896.957.266zM73.299 115.254a35.86 35.86 0 00-1.41-6.332c-.196-.61-1.156-.351-.96.264a35.06 35.06 0 011.378 6.068c.082.628 1.078.632.992 0M76.739 108.299c.528 2.205.838 4.441.92 6.709.022.638 1.015.643.988 0a35.302 35.302 0 00-.947-6.973c-.15-.624-1.112-.36-.961.264M82.098 107.299a85.842 85.842 0 01-.697 8.234c-.082.638.916.629.998 0 .365-2.731.597-5.481.698-8.234.023-.643-.971-.639-.999 0z"
            fill="#F3D4A6"
        ></path>
        <path
            d="M52.25 87.5c-1.327-1.658-3.033-2.995-4.762-4.252-2.561-1.857-5.524-3.652-8.742-3.331-3.388.34-6.242 3.137-7.197 6.346-.95 3.203-.236 6.681 1.314 9.602 1.545 2.92 5.869 9.27 12.768 11.331 2.173.652 4.54.94 6.728.25 2.193-.69 4.13-2.363 4.792-4.513.713-2.301-.071-4.73-.846-6.974-1.025-2.972-2.084-6.001-4.054-8.458M119.8 88.493c.384-4.898-2.745-10.256-7.591-11.085-2.703-.46-5.547.422-7.762 2.038-5.832 4.273-8.231 10.375-9.606 15.557-.446 1.684-.716 3.476-.265 5.159.929 3.49 4.836 5.571 8.435 5.363 3.603-.204 6.865-2.215 9.582-4.59 3.703-3.234 6.818-7.539 7.207-12.442"
            fill="#FDE6C5"
        ></path>
        <path
            d="M86.079 135.981c-1.96-3.853-15.331-3.54-17.277-.687-2.937 4.311 4.218 10.911 8.62 10.726 4.4-.181 10.449-6.508 8.657-10.039zM39.843 88.102c-1.783.21-1.306 5.675 1.07 7.898 2.691 2.512 6.977 1.89 7.36 1.113 1.142-2.292-.804-9.914-8.43-9.01M110.914 86.403c-8.538-.868-8.135 7.83-7.024 9.893.544 1.008 5.102.408 7.08-2.218 2.063-2.733 1.505-7.52-.056-7.675z"
            fill="#1F1611"
        ></path>
        <path
            d="M55.243 113.189c-.769-2.111-3.048-3.935-6.246-4.472-2.101-.35-4.162.296-5.804 1.187-1.36.737-1.97 1.552-1.942 2.889.018 1.032.86 3.43 4.876 4.69 2.31.727 4.99 1.255 7.005.4 1.815-.773 2.875-2.579 2.11-4.694zM107.92 107.368c-.52-.319-1.172-.497-1.829-.634-1.984-.406-4.338-.429-6.236.588-1.345.721-2.344 1.451-3.11 2.929-.762 1.478.136 3.626 1.021 4.433.885.812 3.403 2.048 6.897 1.018 2.126-.625 5.018-2.751 5.341-5.059.187-1.387-1.414-2.865-2.084-3.275"
            fill="#F599A4"
        ></path>
        <path fill="#fff" fill-opacity="0.01" d="M149 149h1v1h-1z"></path>
    </svg>