<svg
        xmlns="http://www.w3.org/2000/svg"
        width="150"
        height="150"
        viewBox="0 0 150 150"
        fill="none"
        style="width: 4rem; height: 4rem; background: none"
    >
        <path
            d="M148.953 49.043c-.905-9.515-6.024-27.163-17.991-28.52-10.04-1.133-19.204 6.633-24.033 11.645 7.695 9.308 11.007 22.627 10.503 34.722a277.945 277.945 0 01-.286 5.537c3.565 5.293 10.111 8.716 16.441 7.559 7.014-1.286 4.582-8.531 4.789-10.371.339-3.04 3.891-3.337 5.417-5.988 1.195-2.071-.864-5.164.529-7.583 1.505-2.605 5.132-1.75 4.631-7.001"
            fill="#89C6BE"
        ></path>
        <path
            d="M141.571 37.876c-1.208-3.496-4.099-6.39-7.62-7.513-2.292-.732-4.757-.732-7.14-.409-6.043.815-11.967 4.094-15.16 9.159a.151.151 0 01-.017.036c4.356 8.385 6.182 18.444 5.798 27.742-.029.639-.066 1.22-.099 1.843.61.524 1.216 1.048 1.81 1.568 3.5 3.062 7.742 6.084 12.356 5.49.843-.11 1.732-.38 2.248-1.056.683-.901.475-2.19.049-3.239-.418-1.048-1.032-2.067-1.073-3.197-.065-2.051 1.72-3.636 3.402-4.815 1.679-1.18 3.575-2.514 3.894-4.54.377-2.38-1.621-4.664-1.236-7.042.196-1.237 1.007-2.264 1.645-3.341 1.892-3.177 2.355-7.194 1.143-10.686"
            fill="#D6ABB7"
        ></path>
        <path
            d="M33.96 55.93c2.015-8.796 4.52-16.05 9.92-22.42-4.44-5.747-10.184-12.09-17.643-12.286-7.875-.205-14.109 4.006-18.66 10.436C3.016 38.09.56 46.15 1.064 54.018c.378 5.809 5.279 4.962 6.904 7.153 2.606 3.509-.907 6.7 1.706 9.482 2.212 2.352 5.223 2.243 6.608 3.347 1.384 1.104-.847 7.872 5.294 8.875 3.01.494 8.39-.875 11.127-6.398-.638-7.542.016-15.141 1.256-20.548"
            fill="#89C6BE"
        ></path>
        <path
            d="M33.958 55.94c1.189-5.188 2.544-9.835 4.552-14.09-1.51-3-3.721-6.54-5.932-8.777-3.554-3.598-9.005-5.793-13.768-4.1-2.651.943-4.806 2.97-6.392 5.296-1.583 2.326-2.664 4.954-3.73 7.558-1.105 2.704-2.214 5.407-3.32 8.11-.687 1.682-1.355 3.682-.393 5.224 1.244 1.996 4.397 1.893 5.844 3.745 2.163 2.772-1.03 7.558 1.392 10.103 1.725 1.809 5.136 1.013 6.766 2.906 1.293 1.495.78 3.904 1.85 5.566.834 1.296 2.516 1.86 4.05 1.694 1.531-.167 2.93-.95 4.167-1.865 1.117-.823 2.465-2.298 3.518-3.566-.286-6.604.31-13.056 1.396-17.803"
            fill="#D6ABB7"
        ></path>
        <path
            d="M101.127 26.489c-7.109-5.25-16.812-6.928-25.63-6.393-9.572.58-20.767 3.158-27.908 9.555-8.115 7.27-11.196 15.665-13.63 26.282-2.434 10.617-2.676 29.69 4.868 40.154 8.335 11.57 21.66 12.089 36.014 12.089 14.358 0 24.093-2.108 31.636-8.436 9.31-7.81 10.331-18.036 10.955-32.856.615-14.817-4.381-31.58-16.305-40.395"
            fill="#95D1C6"
        ></path>
        <path
            d="M112.244 112.111c-5.245 6.601-11.235 6.979-16.52 4.666-7.884-3.451-.15-24.384-.415-32.49-.325-9.875-5.265-19.352-20.498-19.227-12.345.105-18.319 7.735-18.801 18.58-.254 5.627 1.022 21.062 8.415 31.657 9.674 13.869 24.537 15.281 30.168 15.281 14.896 0 21.239-6.661 25.125-13.946 11.383-3.475 3.037-10.253-1.392-5.169-.523-7.868-8.431-6.564-6.082.648"
            fill="#A9DFD2"
        ></path>
        <path
            d="M85.821 81.113c-1.73-2.34-3.932-5.272-9.058-5.766-5.13-.499-9.482 1.265-12.452 4.725 5.284-1.363 15.189-1.89 21.51 1.041zM71.024 91.168c5.23-.62 13.487-.222 15.606.806-3.274-3.304-8.032-4.346-11.89-3.953-7.807.796-8.984 2.899-10.372 4.819 2.168-1.425 5.302-1.511 6.656-1.672zM85.42 102.5c-.778-1.133-3.959-2.368-5.994-2.484-2.182-.128-4.413-.3-6.553.157-4 .857-5.995 2.922-6.508 4.21 5.273-2.754 13.424-2.189 19.056-1.883M76.81 112.318c-.746.412-1.498.831-2.116 1.415-.614.588-1.09 1.37-1.13 2.22 3.777-2.164 9.355-4.021 12.095-4.792-3.088-1.419-7.502.412-8.85 1.157M85.066 123.012c2.332-.984 4.047-2.268 4.487-5.358-.44.087-1.424.904-2.136 1.357-.919.587-2.539 2.84-2.35 4.001zM97.294 120.655c-.57.726-.852 1.585-.928 2.483-.073.894.034 1.792.141 2.682 1.093-1.257 1.723-3.905.787-5.165"
            fill="#95D1C6"
        ></path>
        <path
            d="M101.119 88.08c-2.976 5.224 7.325 9.218 10.927 3.6 1.594-2.483-.145-4.695-3.065-5.717-2.937-1.03-6.367-.501-7.862 2.118M39.32 86.704c-5.378 3.139-.964 11.157 7.087 7.379 6.874-3.23-.933-10.968-7.088-7.379z"
            fill="#DF8EB5"
        ></path>
        <path
            d="M103.848 73.25c-1.68 5.441 2.943 9.269 5.602 4.7 1.38-2.374.756-5.282-.768-6.537-1.52-1.255-3.992-.88-4.834 1.836z"
            fill="#1F1611"
        ></path>
        <path
            d="M101.354 56.288c.528.225 1.056.462 1.568.71.252.124.496.252.741.384.186.1.876.644.322.167.861.737 2.095.85 2.94 0 .757-.757.865-2.204 0-2.945-1.008-.865-2.254-1.389-3.468-1.908-1.044-.45-2.223-.322-2.847.744-.52.889-.295 2.402.744 2.848M47.045 53.832c-1.346.347-2.57 1.072-3.666 1.919-.9.69-1.377 1.773-.751 2.845.519.885 1.95 1.442 2.85.748.461-.359.934-.687 1.441-.984.248-.145.508-.275.77-.393-.3.137.39-.103.462-.122 1.099-.283 1.755-1.484 1.457-2.56-.305-1.106-1.464-1.735-2.563-1.453z"
            fill="#7DBBB1"
        ></path>
        <path
            d="M42.477 73.046c-3.51 2.46.36 11.044 3.944 7.416 3.918-3.962-.438-9.872-3.944-7.416z"
            fill="#1F1611"
        ></path>
        <path fill="#fff" fill-opacity="0.01" d="M149 149h1v1h-1z"></path>
    </svg>