 <svg
        xmlns="http://www.w3.org/2000/svg"
        width="150"
        height="150"
        viewBox="0 0 150 150"
        fill="none"
        style="width: 4rem; height: 4rem; background: none"
    >
        <path
            d="M125.326 8.344c-.29-2.05-1.012-5.79-3.005-6.343-5.282.925-15.857 12-21.302 17.176h.003c-15.045-3.076-30.627-5.344-45.41-1.454a54.048 54.048 0 00-5.703 1.854C39.852 12.513 25.733 4.343 23.75 5.565c-2.074 1.278.542 26.546 3.203 44.415 2.546 17.107 9.407 40.413 23.753 56.214 5.392 5.939 11.763 10.903 18.206 15.68 17.386 12.892 43.634 20.755 53.001 23.056l-1.873-22.103c-2.427-28.609 1.455-45.525 3.903-74.134 1.384-16.178 2.858-29.92 1.384-40.349z"
            fill="#F68C40"
        ></path>
        <path
            d="M121.296 137.667c-7.443-9.114-12.379-20.147-15.538-31.509-3.469-12.478-4.918-25.417-6.186-38.304-1.603-16.27-2.914-32.903.874-48.792-14.866-3.02-30.239-5.177-44.834-1.338a53.58 53.58 0 00-5.507 1.78c2.776 15.81 7.815 32.238 14.478 46.826 5.139 11.251 11.368 21.963 17.586 32.657 2.53 4.35 5.064 8.704 7.884 12.878 6.74 9.968 15.066 18.793 24.06 26.792 1.354 1.203 2.781 2.421 4.516 2.946.963.293 2.047.311 3.002.019l-.335-3.955"
            fill="#F9A941"
        ></path>
        <path
            d="M54.51 24.127a21.656 21.656 0 002.713 8.988c.355.632 1.33.065.974-.572a20.236 20.236 0 01-2.56-8.416c-.055-.72-1.183-.725-1.127 0M60.554 23.451c.28 2.747.507 5.73 1.974 8.142.376.623 1.352.056.973-.567-1.358-2.24-1.56-5.033-1.818-7.575-.074-.716-1.202-.725-1.129 0M66.704 22.198c.547 2.473.901 5.033 1.866 7.394.271.665 1.363.377 1.088-.297-.965-2.361-1.32-4.922-1.866-7.399-.157-.71-1.244-.409-1.088.302zM73.667 21.468a43.376 43.376 0 001.13 8.259c.166.706 1.254.404 1.087-.303a41.686 41.686 0 01-1.089-7.956c-.028-.725-1.157-.73-1.128 0zM80.756 21.992a26.364 26.364 0 00.188 8.003c.125.715 1.212.409 1.088-.302a25.352 25.352 0 01-.148-7.701c.094-.72-1.035-.711-1.128 0zM87.57 21.698c-.48 2.941-.587 5.883-.122 8.834.113.716 1.2.414 1.088-.297-.432-2.742-.324-5.507.122-8.24.117-.711-.97-1.013-1.087-.297M94.569 23.096a29.271 29.271 0 00-.636 8.42c.05.72 1.178.726 1.128 0a28.17 28.17 0 01.596-8.123c.157-.706-.93-1.008-1.088-.297M59.552 45.99c.242 2.477.842 4.88 1.972 7.106.33.65 1.302.079.974-.567-1.036-2.045-1.597-4.266-1.818-6.539-.07-.72-1.198-.725-1.128 0M65.93 44.98c.267 2.89.89 5.689 1.902 8.412.251.674 1.341.38 1.087-.302a31.484 31.484 0 01-1.862-8.11c-.066-.715-1.195-.725-1.128 0zM72.706 44.156c.05 3.034.602 5.971 1.746 8.788.27.664 1.36.376 1.088-.298-1.106-2.728-1.657-5.549-1.706-8.49-.012-.73-1.14-.73-1.128 0zM82.502 51.892a221.021 221.021 0 01-1.347-8.533c-.099-.715-1.186-.409-1.088.302.394 2.854.842 5.698 1.347 8.533.127.716 1.214.409 1.088-.302M87.437 43.373c-.024 2.905.05 5.74 1.22 8.444.288.665 1.26.093.974-.567-1.08-2.5-1.088-5.205-1.067-7.877.007-.73-1.121-.73-1.127 0zM94.129 44.035c-.172 2.853.053 5.67.716 8.444.17.706 1.258.409 1.088-.297-.641-2.687-.843-5.396-.676-8.147.043-.725-1.085-.72-1.128 0M68.605 70.849c.467 2.365 1.259 4.652 2.575 6.678.395.609 1.371.047.974-.567-1.267-1.952-2.012-4.136-2.462-6.409-.141-.715-1.228-.409-1.087.298zM73.533 68.45c.463 3.09 1.333 6.055 2.71 8.862.32.655 1.293.083.973-.567-1.333-2.724-2.147-5.605-2.595-8.598-.108-.716-1.194-.409-1.088.302zM79.355 67.515c.323 2.686 1.109 5.233 2.09 7.747.261.67 1.352.377 1.087-.302-.94-2.407-1.74-4.87-2.05-7.445-.085-.71-1.214-.72-1.127 0M85.693 66.283a34.71 34.71 0 002.148 8.728c.262.669 1.353.38 1.088-.298a33.618 33.618 0 01-2.108-8.43c-.082-.716-1.21-.725-1.128 0zM91.746 65.072a36.66 36.66 0 001.901 8.625c.24.679 1.33.386 1.088-.302a35.371 35.371 0 01-1.861-8.323c-.07-.716-1.2-.72-1.128 0zM97.135 65.818c.16 2.393.47 4.768.927 7.124.139.711 1.226.409 1.088-.302a54.798 54.798 0 01-.887-6.822c-.048-.725-1.177-.73-1.128 0M79.849 92.715a46.234 46.234 0 004.157 6.761c.428.577 1.408.019.974-.567a46.317 46.317 0 01-4.157-6.766c-.326-.65-1.3-.08-.974.572M84.764 91.118a21.825 21.825 0 003.201 6.404c.424.586 1.402.023.974-.567a20.993 20.993 0 01-3.087-6.134c-.216-.693-1.304-.4-1.088.297M89.487 88.54l2.805 7.923c.24.683 1.33.39 1.087-.297-.934-2.645-1.87-5.284-2.804-7.929-.24-.678-1.331-.385-1.088.302M94.821 88.288a38.95 38.95 0 002.42 6.915c.302.66 1.275.088.975-.567a37.495 37.495 0 01-2.307-6.65c-.174-.702-1.262-.404-1.088.302M100.002 87.178a21.828 21.828 0 001.27 6.441c.245.678 1.335.386 1.088-.302a20.744 20.744 0 01-1.23-6.14c-.034-.724-1.162-.729-1.128 0M90.984 110.85a13.235 13.235 0 002.881 4.002c.526.502 1.325-.293.798-.795a12.429 12.429 0 01-2.705-3.774c-.308-.659-1.28-.088-.974.567zM94.027 106.897c.602 2.347 2.034 5.298 3.944 6.846.56.455 1.363-.34.798-.795-1.758-1.427-3.1-4.192-3.654-6.353-.18-.702-1.269-.404-1.088.302M98.72 106.101a14.144 14.144 0 002.386 5.233c.426.581 1.405.018.975-.567a13.375 13.375 0 01-2.273-4.968c-.163-.707-1.25-.405-1.088.302zM102.68 104.747a25.553 25.553 0 001.898 4.82c.334.646 1.307.079.974-.567a24.198 24.198 0 01-1.785-4.555c-.196-.697-1.285-.399-1.087.302M100.71 124.145a24.567 24.567 0 004.573 4.848c.561.455 1.364-.34.798-.795a23.657 23.657 0 01-4.397-4.62c-.421-.585-1.4-.023-.974.567zM103.922 121.746a48.18 48.18 0 004.553 5.242c.517.511 1.315-.288.798-.799a46.198 46.198 0 01-4.377-5.01c-.431-.576-1.411-.014-.974.567zM107.809 120.261a26.241 26.241 0 003.197 5.108c.454.567 1.246-.237.798-.799a24.994 24.994 0 01-3.021-4.875c-.311-.656-1.283-.084-.974.566z"
            fill="#FCD785"
        ></path>
        <path
            d="M127.511 138.179c-1.682-3.825-6.358-5.954-10.418-4.968-1.1.264-2.252.762-2.813 1.742-5.787 10.15 2.47 13.817 7.934 12.697 4.093-.837 6.981-5.651 5.297-9.471M118.479 66.547c-.121-1.9 0-4.968-3.083-5.238-3.082-.27-2.92 7.297-2.624 8.115.22.608.473 1.259 1.014 1.612.587.386 1.333.177 2.012 0 1.91-.502 2.723-3.834 2.681-4.49zM41.384 63.017c-.87-1.399-2.87-1.952-4.339-1.204-1.467.753-1.864 6.883-1.31 8.012.556 1.13 1.739 2.05 2.986 1.892.901-.117 1.664-.767 2.127-1.552.464-.781.671-1.683.849-2.57.306-1.539.514-3.244-.313-4.578"
            fill="#1F1611"
        ></path>
        <path
            d="M52.223 79.047c-1.191-2.705-3.887-4.629-7.278-4.55-2.232.051-4.23 1.464-5.748 3.1-1.258 1.357-1.732 2.63-1.453 4.457.216 1.417 1.54 4.494 5.917 5.205 2.516.409 5.373.455 7.282-1.237 1.721-1.52 2.47-4.27 1.28-6.975zM118.734 76.074c-1.783-1.468-4.047-1.891-6.351-1.264-1.628.442-2.893 1.013-4.116 2.58-1.221 1.57-.858 4.512-.139 5.804.719 1.287 3.059 3.704 7.064 3.527 7.679-.344 5.926-8.686 3.542-10.647M120.144 8.293c-5.171 4.331-10.342 8.662-15.513 12.989 0 0 9.408 5.646 14.905 10.113.259-.842 1.338-7.487 1.41-8.784.368-6.59.785-7.91-.802-14.318zM27.233 12.8c-.752.433 1.377 15.318 2.947 21.68 0 0 4.827-4.954 7.817-6.97 1.929-1.306 3.684-2.822 6.139-4.82-4.652-3.606-16.263-10.252-16.903-9.89z"
            fill="#F35E40"
        ></path>
        <path fill="#fff" fill-opacity="0.01" d="M149 149h1v1h-1z"></path>
    </svg>