<svg
        xmlns="http://www.w3.org/2000/svg"
        width="150"
        height="150"
        viewBox="0 0 150 150"
        fill="none"
        style="width: 4rem; height: 4rem; background: none"
    >
        <path
            d="M149.734 58.967c1.239-3.605-1.914-12.84-8.333-14.528 3.266.562 8.212-1.54 6.532-5.068-2.253-4.732-7.884-6.306-15.318-7.09 3.605-.57 5.182-3.833 2.52-6.6-2.495-2.593-7.474-2.077-11.077-1.515-12.059 1.885-22.444 8.588-28.184 19.207 8.265 3.27 14.873 8.911 20.757 17.637 3.408 5.083 5.966 10.993 7.291 17.06 2.082 2.601 4.165 4.117 7.04 2.174 1.992-1.346 1.88-6.864 1.092-9.903 2.437 3.574 5.518 3.15 7.32 2.7 3.888-.969 3.603-9.684 1.494-13.081 2.447 2.608 7.147 4.005 8.866-.993"
            fill="#8AC7C0"
        ></path>
        <path
            d="M134.233 56.356c-.337-1.777-1.459-5.602-5.671-7.414 1.284.35 4.955.562 4.339-2.274-.498-2.297-6.644-4.878-10.87-4.82 1.238.11 4.627-1.12 3.716-3.267-2.575-6.068-18.319.7-23.099 8.245 5.248 3.344 9.8 7.976 13.983 14.182a50.641 50.641 0 015.481 10.8c.999 1.609 4.428 2.193 2.258-5.09 1.283 1.243 3.199 1.878 4.642.242 2.13-2.412.477-6.94-.302-9.195 2.41 3.413 6.034 1.281 5.523-1.409"
            fill="#FACFDD"
        ></path>
        <path
            d="M31.516 60.67c2.706-4.617 7.24-9.288 11.179-12.562 2.942-2.455 5.868-4.279 8.79-5.622-4-8.434-14.873-16.148-26.031-18.968-3.826-.97-15.274-1.031-17.016 3.936-.651 1.858.735 5.056 5.026 5.894-5.358 1.509-11.407 3.14-13.219 9.75-1.273 4.644 2.546 8.184 8.416 6.264C4.12 52.205-2.305 58.78.977 64.695c1.735 3.124 5.959 2.377 7.947.242-1.699 3.998-4.71 10.27-.464 12.77 3.576 2.105 7.425-.947 8.796-3.632-.209 3.34-.413 6.283 2.716 7.256 1.433.443 2.802.216 4.115-.392 1.125-6.918 3.722-13.913 7.43-20.27"
            fill="#8AC7C0"
        ></path>
        <path
            d="M25.743 71.803c.229.031.487-.077.765-.284a62.836 62.836 0 015.009-10.847c2.705-4.617 7.24-9.288 11.178-12.562.33-.273.66-.535.99-.796-2.832-5.745-7.233-9.712-12.104-11.39-1.782-.611-9.665-2.254-10.793.97-.57 1.624 2.256 3.17 3.67 3.49-3.931-.292-12.004 1.578-12.229 5.183-.169 2.697 3.63 3.259 5.743 2.812-3.405 2.213-6.814 9.038-5.18 11.49.901 1.35 3.379 1.688 6.081-.566-.84 2.227-2.316 5.382-1.013 7.549 1.397 2.316 4.617.784 5.856-2.255-.427 1.874-1.44 6.768 2.027 7.206"
            fill="#FACFDD"
        ></path>
        <path
            d="M116.632 61.009c-8.751-12.982-19.088-19.157-34.131-20.816-13.804-1.508-26.637-3.078-39.806 7.915-3.939 3.274-8.473 7.945-11.178 12.562-6.963 11.94-10.062 26.133-6.708 37.833 3.674 12.913 12.41 20.1 20.546 23.732 11.226 5.017 25.118 5.468 38.205 4.002 4.804-.535 9.6-1.328 14.092-2.851 12.616-4.267 21.688-14.198 25.555-25.537 4.069-11.812.593-26.148-6.575-36.84"
            fill="#A6D3CE"
        ></path>
        <path
            d="M54.102 45.319a17.66 17.66 0 00-2.904 4.147c-.273.539.436 1.012.71.47.74-1.47 1.656-2.79 2.756-3.96.404-.426-.157-1.088-.562-.657zM59.583 44.9a17.662 17.662 0 01-1.76 4.416c-.298.524.421.993.717.474a18.583 18.583 0 001.847-4.644c.145-.585-.657-.835-.804-.246M66.24 44.373c.327 1.939.124 3.84-.59 5.679-.218.561.607.8.82.25.77-1.997.946-4.079.587-6.176-.1-.588-.916-.338-.817.247M71.966 44.519c.501 1.747.912 3.52 1.232 5.325.105.588.93.338.825-.25-.324-1.8-.74-3.575-1.243-5.321-.163-.57-.977-.328-.814.246zM79.64 44.982c.56 1.504 1.127 3.009 1.701 4.513.211.554 1.034.312.819-.246a544.336 544.336 0 01-1.71-4.517c-.209-.554-1.018-.312-.81.25zM85.765 44.291c1.38 1.89 2.781 3.779 4.204 5.672.358.473.93-.193.575-.662a469.956 469.956 0 01-4.205-5.672c-.347-.473-.916.193-.574.662zM38.442 58.687a639.11 639.11 0 01-1.81 4.04c-.256.561.579.804.83.246a657.62 657.62 0 001.801-4.036c.25-.566-.573-.808-.82-.25zM43.244 59.903a890.172 890.172 0 01-1.432 4.54c-.187.585.652.83.837.246.479-1.512.952-3.024 1.423-4.536.181-.585-.645-.831-.828-.25M50.018 58.479a60.716 60.716 0 00-.322 6.264c0 .596.893.6.89 0a60.58 60.58 0 01.307-6.264c.06-.604-.813-.6-.875 0zM55.709 59.076c.442 1.85.6 3.728.462 5.664-.043.604.85.6.89 0a19.428 19.428 0 00-.495-5.914c-.138-.573-.994-.327-.857.25M63.718 57.536c-.022 2.097.04 4.187.192 6.272.043.593.933.596.888 0a75.04 75.04 0 01-.207-6.272c.005-.6-.866-.6-.873 0zM73.243 56.091a39.687 39.687 0 011.58 5.96c.108.589.96.338.85-.25a39.83 39.83 0 00-1.591-5.956c-.196-.558-1.036-.316-.839.246zM80.003 56.863a636.54 636.54 0 001.975 5.34c.208.558 1.06.316.846-.25a666.456 666.456 0 01-1.985-5.336c-.204-.558-1.042-.316-.836.246M86.266 57.662a739.482 739.482 0 002.274 6.695c.197.569 1.047.323.847-.25a737.073 737.073 0 01-2.288-6.691c-.191-.57-1.024-.327-.834.246M94.044 56.678a52.983 52.983 0 012.479 5.525c.217.566 1.057.32.837-.25a56.104 56.104 0 00-2.59-5.745c-.279-.538-1.003-.069-.726.47M99.806 56.288a16.222 16.222 0 013.148 4.663c.247.554 1.082.316.83-.246a17.598 17.598 0 00-3.409-5.075c-.418-.435-.986.223-.569.658M106.973 55.742a23.626 23.626 0 012.726 5.34c.208.581 1.036.335.826-.246a24.735 24.735 0 00-2.844-5.567c-.345-.504-1.054-.039-.708.473M28.022 76.507a33.01 33.01 0 00-2.01 6.865c-.108.6.828.596.933 0a31.604 31.604 0 011.934-6.614c.237-.578-.62-.824-.857-.25zM32.418 77.619c-.819 2.358-1.335 4.74-1.528 7.168-.048.6.89.604.936 0 .181-2.344.667-4.64 1.453-6.922.201-.585-.659-.831-.861-.246zM41.062 78.352a35.55 35.55 0 00-.784 6.74c-.012.597.927.605.937 0 .038-2.254.298-4.497.77-6.74.124-.593-.798-.585-.923 0zM48.608 77.577l-.367 5.64c-.039.601.896.601.934 0l.353-5.64c.038-.6-.88-.6-.92 0zM54.286 76.79a78.009 78.009 0 01-.256 6.268c-.05.6.885.6.933 0 .165-2.093.245-4.179.241-6.268-.002-.6-.917-.604-.918 0M60.865 75.39a67.34 67.34 0 01.091 7.203c-.025.6.909.6.932 0a67.418 67.418 0 00-.108-7.203c-.04-.592-.953-.596-.915 0zM65.488 76.173c.13 2.193.261 4.386.398 6.583.036.592.97.6.932 0-.14-2.197-.278-4.39-.413-6.583-.036-.597-.952-.6-.917 0zM72.532 74.59a26.056 26.056 0 011.589 7.53c.035.6.967.6.93 0a26.992 26.992 0 00-1.639-7.776c-.205-.558-1.087-.315-.88.246M81.966 74.283c.442 2.978.894 5.956 1.354 8.934.091.585 1.027.597.933 0-.467-2.978-.925-5.956-1.375-8.934-.09-.589-1-.596-.912 0zM89.257 75.44a39.08 39.08 0 012.146 6.02c.156.59 1.043.34.884-.245a40.51 40.51 0 00-2.259-6.245c-.25-.554-1.017-.077-.77.47M95.513 72.992a49.374 49.374 0 012.287 7.233c.137.593 1.016.339.877-.25a49.308 49.308 0 00-2.301-7.23c-.227-.561-1.09-.319-.863.247zM101.325 72.794a45.036 45.036 0 013.288 6.33c.238.565 1.113.323.871-.247a47.064 47.064 0 00-3.407-6.552c-.326-.523-1.078-.054-.752.47M108.44 72.103c1.073 2.385 1.874 4.832 2.37 7.364.116.592 1.044.6.925 0a34.835 34.835 0 00-2.443-7.61c-.252-.559-1.106-.316-.852.246zM113.344 70.309a916.181 916.181 0 003.423 9.442c.214.58 1.081.334.864-.25a927.256 927.256 0 01-3.441-9.439c-.209-.584-1.052-.334-.846.247zM119.005 70.474c1.123 1.896 1.79 3.901 2.004 6.013.06.6.979.6.917 0-.235-2.277-.984-4.444-2.196-6.483-.32-.538-1.042-.07-.725.47zM29.912 98.52a7.645 7.645 0 001.892 4.449c.387.438 1.144-.22.758-.662-1-1.139-1.555-2.501-1.69-4.032-.052-.593-1.011-.343-.96.246M35.7 98.404c-.046 1.854.3 3.605 1.056 5.252.246.534 1.134.061.889-.47a10.708 10.708 0 01-.976-4.782c.013-.597-.954-.6-.969 0zM41.163 99.302a503.85 503.85 0 002.354 4.651c.27.528 1.152.054.882-.469a509.887 509.887 0 01-2.36-4.652c-.264-.527-1.138-.054-.876.47M47.75 99.294a29.012 29.012 0 002.254 5.321c.285.524 1.162.054.875-.469a27.976 27.976 0 01-2.179-5.098c-.176-.562-1.127-.32-.95.246M57.742 97.397c.794 1.724 1.6 3.448 2.416 5.172.256.542 1.117.069.86-.47a571.397 571.397 0 01-2.423-5.171c-.25-.543-1.1-.07-.853.47zM64.236 96.802a42.293 42.293 0 011.911 5.814c.146.585 1.096.335.948-.246a42.23 42.23 0 00-1.923-5.818c-.225-.542-1.163-.304-.936.25M72.61 96.185a61.702 61.702 0 001.627 7.988c.16.58 1.108.334.946-.251a61.442 61.442 0 01-1.644-7.987c-.082-.593-1.01-.339-.93.25zM79.133 95.7a46.582 46.582 0 012.328 7.063c.143.585 1.084.339.939-.25a46.676 46.676 0 00-2.343-7.06c-.233-.554-1.158-.312-.924.246M89.883 95.11c.043 2.213.364 4.383.972 6.537.166.585 1.099.335.931-.25a24.704 24.704 0 01-.942-6.287c-.013-.6-.973-.6-.961 0M95.179 94.933c.41 1.828.825 3.656 1.243 5.483.136.593 1.061.339.925-.246-.423-1.828-.84-3.655-1.255-5.483-.134-.592-1.044-.342-.913.246M100.158 93.83a29.815 29.815 0 011.297 5.67c.075.597 1.049.601.972 0a31.538 31.538 0 00-1.361-5.92c-.194-.582-1.1-.336-.908.25zM107.473 93.372c.668 2.093.935 4.202.764 6.326-.048.588.912.842.958.25.179-2.297-.093-4.56-.819-6.826-.188-.585-1.089-.335-.903.25M113.087 92.302c.095 2.14.19 4.279.282 6.418.025.604.997.6.969 0-.097-2.139-.197-4.278-.297-6.418-.029-.6-.982-.6-.954 0zM118.028 92.899c.544 1.82.656 3.613.345 5.398-.103.581.86.827.96.246.337-1.947.186-3.909-.41-5.894-.178-.589-1.069-.339-.895.25M45.82 116.634c.881 1.751 2.315 3.163 4.161 4.109.564.289 1.121-.515.56-.804-1.706-.877-3-2.158-3.818-3.774-.269-.535-1.17-.062-.903.469M53.755 116.503c1.098 1.851 2.598 3.417 4.459 4.679.521.354 1.059-.458.544-.808a13.627 13.627 0 01-4.109-4.344c-.306-.515-1.2-.046-.894.473zM62.546 114.977c.526 2.093 1.504 3.982 2.915 5.69.394.478 1.123-.188.734-.657a13.366 13.366 0 01-2.672-5.279c-.147-.585-1.123-.335-.977.246M71.928 114.029a31.816 31.816 0 002.276 7.699c.243.55 1.234.311.986-.251a31.86 31.86 0 01-2.292-7.695c-.098-.592-1.065-.342-.97.247zM79.386 113.233c.476 1.944.959 3.883 1.447 5.826.148.588 1.126.338.976-.25-.492-1.94-.978-3.883-1.458-5.826-.146-.584-1.107-.338-.965.25zM86.189 112.964c.293 1.981.555 3.967.784 5.956.068.592 1.087.6 1.017 0a191.647 191.647 0 00-.798-5.956c-.09-.593-1.09-.597-1.003 0M91.926 112.022c.217 1.674.323 3.344.313 5.018-.003.6 1.01.596 1.012 0a37.25 37.25 0 00-.324-5.018c-.08-.592-1.079-.596-1 0M98.693 110.618a17.15 17.15 0 01-.773 6.929c-.186.569.808.808.99.246.755-2.324 1.005-4.713.78-7.175-.054-.601-1.05-.601-.997 0M103.396 110.775a16.417 16.417 0 01-.655 5.814c-.172.573.823.815.992.25a17.14 17.14 0 00.661-6.064c-.04-.6-1.036-.6-.998 0M111.471 109.709c-.119 2.128-.956 3.998-2.513 5.487-.437.419.331 1.077.767.658 1.661-1.589 2.606-3.621 2.728-5.898.03-.589-.949-.843-.982-.247"
            fill="#93CAC6"
        ></path>
        <path
            d="M66.726 39.155c5.162-.142 10.395.45 15.775 1.039 1.013.111 2.003.25 2.975.404-2.35-5.125-6.593-10.489-12.055-11.674.3 2.393 2.422 4.84 3.837 6.745-2.355.754-7.231-3.944-10.433-4.01 1.341 1.486 2.475 3.537 3.748 4.941-3.899-1.424-9.795-3.213-14.524-1.112.546 1.074 6.532 1.466 10.677 3.667"
            fill="#A6D3CE"
        ></path>
        <path
            d="M42.634 94.88c-1.138-2.586-3.715-4.425-6.957-4.349-2.134.047-4.044 1.397-5.495 2.963-1.202 1.297-1.654 2.513-1.388 4.263.206 1.35 1.473 4.294 5.656 4.975 2.405.389 5.136.431 6.961-1.181 1.645-1.458 2.361-4.082 1.223-6.672M117.363 91.571c-.607-.346-1.328-.511-2.051-.63-2.179-.355-4.69-.22-6.533 1.123-1.304.954-2.241 1.89-2.799 3.709-.558 1.816.769 4.321 1.85 5.229 1.08.908 3.968 2.216 7.509.746 2.148-.889 4.86-3.628 4.8-6.406-.035-1.666-1.991-3.328-2.776-3.77z"
            fill="#DF91BE"
        ></path>
        <path
            d="M73.524 64.274c-15.096 0-20.329 15.498-21.026 22.531-.697 7.034 1.48 14.309 5.926 19.804 1.345 1.662 2.822 3.347 4.766 4.232 8.429 3.852 20.972 1.962 25.431-2.158 4.458-4.125 5.94-12.397 5.863-18.469-.125-9.65-7.475-25.94-20.96-25.94"
            fill="#EEE3E0"
        ></path>
        <path
            d="M75.158 67.57c-11.573-.29-14.373 18.34-11.83 27.544 2.082 7.537 20.014 8.091 23.053-.393 2.192-6.117.35-26.86-11.223-27.152"
            fill="#4B5E61"
        ></path>
        <path
            d="M67.76 105.151c3.581 3.613 10.6 3.544 13.868-.419.4-.485-.292-1.632-.697-1.143-2.928 3.547-9.243 3.682-12.475.419-.448-.454-1.144.689-.697 1.143zM39.7 80.367c-1.617.6-2.004 4.66-1.13 7.049.873 2.39 5.123 1.593 5.23-1.539.115-3.401-1.434-6.506-4.1-5.51M106.932 79.193c-2.782.288-2.566 6.352-1.555 8.23 1.01 1.877 3.703.992 4.676-.677.922-1.586-.339-7.838-3.121-7.553z"
            fill="#1F1611"
        ></path>
        <path
            d="M106.941 68.588a33.7 33.7 0 011.453.659c.231.111.459.23.685.353.172.097.815.597.298.158.798.681 1.941.785 2.727 0 .7-.7.799-2.043 0-2.728-.939-.804-2.093-1.289-3.217-1.77-.966-.415-2.059-.3-2.638.69-.481.822-.275 2.223.692 2.638M38.4 65.535c-1.25.323-2.385.996-3.4 1.777-.83.643-1.274 1.643-.691 2.64.48.82 1.803 1.335 2.638.692.427-.33.869-.634 1.334-.912.23-.134.472-.253.715-.365-.277.127.36-.096.43-.112 1.018-.261 1.622-1.373 1.346-2.373-.282-1.024-1.354-1.605-2.371-1.347"
            fill="#7DBBBB"
        ></path>
        <path fill="#fff" fill-opacity="0.01" d="M149 149h1v1h-1z"></path>
    </svg>